<svg width="569" height="569" viewBox="0 0 569 569" fill="none" xmlns="http://www.w3.org/2000/svg">
<path d="M284.926 0.0078125C207.835 0.0078125 198.141 0.362905 167.852 1.71226C137.562 3.13263 116.931 7.89087 98.8572 14.9217C79.8897 22.0351 62.7137 33.2231 48.5405 47.6968C34.0669 61.87 22.8789 79.0459 15.7655 98.0134C8.73462 116.052 3.94087 136.719 2.55601 166.901C1.20666 197.262 0.851562 206.92 0.851562 284.118C0.851562 361.244 1.20666 370.902 2.55601 401.192C3.97638 431.446 8.73462 452.076 15.7655 470.151C23.0449 488.829 32.7389 504.666 48.5405 520.467C64.3067 536.269 80.1438 545.999 98.8217 553.242C116.931 560.273 137.527 565.067 167.781 566.452C198.106 567.801 207.764 568.156 284.926 568.156C362.087 568.156 371.711 567.801 402.035 566.452C432.254 565.031 452.956 560.273 471.03 553.242C489.985 546.124 507.148 534.937 521.311 520.467C537.113 504.666 546.807 488.829 554.086 470.151C561.081 452.076 565.875 431.446 567.296 401.192C568.645 370.902 569 361.244 569 284.082C569 206.92 568.645 197.262 567.296 166.937C565.875 136.719 561.081 116.052 554.086 98.0134C546.973 79.0459 535.785 61.87 521.311 47.6968C507.138 33.2231 489.962 22.0351 470.994 14.9217C452.885 7.89087 432.218 3.09712 402 1.71226C371.675 0.362905 362.052 0.0078125 284.855 0.0078125H284.926ZM259.466 51.2122H284.961C360.809 51.2122 369.793 51.4608 399.727 52.8456C427.425 54.0884 442.48 58.7402 452.494 62.6107C465.739 67.7595 475.22 73.9381 485.163 83.8807C495.105 93.8233 501.248 103.269 506.397 116.549C510.303 126.527 514.919 141.583 516.162 169.281C517.547 199.215 517.831 208.199 517.831 284.011C517.831 359.823 517.547 368.843 516.162 398.777C514.919 426.474 510.268 441.495 506.397 451.508C501.811 463.827 494.546 474.973 485.127 484.141C475.185 494.084 465.739 500.227 452.459 505.376C442.516 509.282 427.46 513.898 399.727 515.176C369.793 516.526 360.809 516.845 284.961 516.845C209.114 516.845 200.094 516.526 170.16 515.176C142.463 513.898 127.442 509.282 117.429 505.376C105.101 500.804 93.9426 493.551 84.76 484.141C75.3242 474.966 68.0468 463.807 63.4544 451.473C59.5839 441.495 54.9322 426.439 53.6894 398.742C52.34 368.807 52.0559 359.823 52.0559 283.94C52.0559 208.057 52.34 199.144 53.6894 169.21C54.9677 141.512 59.5839 126.456 63.4899 116.443C68.6388 103.198 74.8174 93.7168 84.76 83.7742C94.7026 73.8316 104.148 67.6885 117.429 62.5397C127.442 58.6336 142.463 54.0174 170.16 52.7391C196.366 51.5318 206.521 51.1767 259.466 51.1412V51.2122ZM436.586 98.3685C432.109 98.3685 427.677 99.2503 423.541 100.963C419.405 102.677 415.647 105.187 412.481 108.353C409.316 111.518 406.805 115.276 405.092 119.412C403.379 123.548 402.497 127.981 402.497 132.457C402.497 136.934 403.379 141.367 405.092 145.503C406.805 149.639 409.316 153.396 412.481 156.562C415.647 159.727 419.405 162.238 423.541 163.951C427.677 165.665 432.109 166.546 436.586 166.546C445.627 166.546 454.298 162.955 460.69 156.562C467.083 150.169 470.675 141.498 470.675 132.457C470.675 123.416 467.083 114.746 460.69 108.353C454.298 101.96 445.627 98.3685 436.586 98.3685ZM284.961 138.21C265.611 137.908 246.394 141.459 228.43 148.655C210.465 155.851 194.111 166.549 180.321 180.126C166.53 193.703 155.578 209.888 148.103 227.738C140.627 245.588 136.778 264.747 136.778 284.1C136.778 303.452 140.627 322.611 148.103 340.462C155.578 358.312 166.53 374.497 180.321 388.074C194.111 401.651 210.465 412.349 228.43 419.545C246.394 426.741 265.611 430.292 284.961 429.99C323.26 429.392 359.787 413.759 386.659 386.464C413.531 359.17 428.593 322.403 428.593 284.1C428.593 245.797 413.531 209.03 386.659 181.735C359.787 154.441 323.26 138.807 284.961 138.21ZM284.961 189.379C297.398 189.379 309.713 191.828 321.203 196.588C332.693 201.347 343.133 208.323 351.927 217.117C360.721 225.911 367.696 236.351 372.456 247.841C377.215 259.331 379.665 271.645 379.665 284.082C379.665 296.519 377.215 308.833 372.456 320.323C367.696 331.813 360.721 342.253 351.927 351.047C343.133 359.841 332.693 366.817 321.203 371.576C309.713 376.336 297.398 378.785 284.961 378.785C259.844 378.785 235.756 368.808 217.996 351.047C200.236 333.287 190.258 309.199 190.258 284.082C190.258 258.965 200.236 234.877 217.996 217.117C235.756 199.356 259.844 189.379 284.961 189.379Z" fill="white"/>
</svg>
