<svg width="520" height="520" viewBox="0 0 520 520" fill="none" xmlns="http://www.w3.org/2000/svg">
<path d="M461.453 0.623047C476.746 0.623047 491.412 6.69799 502.226 17.5115C513.039 28.3249 519.114 42.9912 519.114 58.2837V461.909C519.114 477.201 513.039 491.867 502.226 502.681C491.412 513.494 476.746 519.569 461.453 519.569H57.8287C42.5361 519.569 27.8699 513.494 17.0564 502.681C6.24291 491.867 0.167969 477.201 0.167969 461.909V58.2837C0.167969 42.9912 6.24291 28.3249 17.0564 17.5115C27.8699 6.69799 42.5361 0.623047 57.8287 0.623047H461.453ZM447.038 447.493V294.693C447.038 269.766 437.136 245.86 419.51 228.234C401.884 210.608 377.978 200.706 353.051 200.706C328.546 200.706 300.004 215.697 286.165 238.185V206.183H205.728V447.493H286.165V305.36C286.165 283.16 304.04 264.997 326.239 264.997C336.944 264.997 347.21 269.25 354.78 276.819C362.349 284.389 366.602 294.655 366.602 305.36V447.493H447.038ZM112.03 160.92C124.875 160.92 137.195 155.817 146.278 146.734C155.362 137.65 160.465 125.331 160.465 112.485C160.465 85.6726 138.842 63.7615 112.03 63.7615C99.1075 63.7615 86.7145 68.8948 77.5771 78.0322C68.4398 87.1696 63.3064 99.5626 63.3064 112.485C63.3064 139.297 85.2175 160.92 112.03 160.92ZM152.104 447.493V206.183H72.2438V447.493H152.104Z" fill="white"/>
</svg>
