<svg width="2424" height="1532" viewBox="0 0 2424 1532" fill="none" xmlns="http://www.w3.org/2000/svg">
<path d="M597.153 938.489C583.159 930.323 566.365 926.062 546.423 926.062C527.88 926.062 511.087 929.258 496.393 934.939C481.698 940.619 469.803 949.141 461.406 960.147C453.01 971.154 448.811 984.29 448.811 999.202C448.811 1020.86 456.858 1038.97 473.652 1053.17C490.095 1067.37 512.836 1075.89 541.875 1078.73C562.867 1080.86 578.261 1086.9 588.756 1096.49C598.903 1106.07 604.15 1117.43 604.15 1130.93C604.15 1145.13 597.853 1156.49 585.958 1164.65C573.712 1172.82 559.018 1176.73 541.525 1176.73C526.481 1176.73 512.836 1173.53 500.591 1167.14C487.996 1160.75 479.949 1152.94 475.751 1143.71C474.001 1140.16 471.552 1136.96 468.054 1134.83C464.555 1132.7 461.056 1131.28 457.558 1131.28C455.809 1131.28 454.759 1131.64 454.059 1131.64C449.511 1132.7 446.012 1134.48 443.563 1137.32C440.764 1140.16 439.715 1143 439.715 1146.55C439.715 1148.68 440.065 1150.81 441.464 1153.65C448.461 1170.69 461.057 1184.18 479.599 1194.48C498.142 1205.13 518.784 1210.1 541.525 1210.1C558.668 1210.1 574.762 1207.26 589.806 1201.22C604.85 1195.19 617.095 1185.96 626.192 1173.89C635.288 1161.81 639.836 1146.9 639.836 1129.86C639.836 1106.43 632.14 1087.61 616.746 1073.41C601.352 1059.21 579.66 1050.33 551.671 1047.49C526.481 1045 508.988 1039.68 499.192 1031.16C489.395 1022.99 484.497 1012.69 484.497 1000.27C484.497 987.131 489.745 977.189 500.941 970.088C511.787 962.988 526.131 959.437 543.974 959.437C558.318 959.437 570.214 962.277 579.66 967.958C589.106 973.639 597.153 981.45 603.451 992.101C604.85 995.297 607.299 997.782 610.448 999.557C613.247 1001.33 616.746 1002.04 620.244 1002.04C623.743 1002.04 626.542 1001.33 629.341 999.557C633.889 996.362 636.338 992.101 636.338 986.776C636.338 982.87 634.938 978.61 632.14 973.994C622.343 958.727 610.798 947.01 597.153 938.489Z" fill="white"/>
<path d="M859.031 1117.79C861.83 1114.95 863.579 1111.04 863.579 1106.43C863.579 1087.96 860.08 1071.28 853.083 1056.72C846.086 1042.52 835.94 1031.16 822.995 1022.99C809.7 1015.18 794.306 1010.92 776.463 1010.92C758.27 1010.92 741.827 1015.18 727.482 1023.7C713.138 1032.22 701.942 1043.94 693.895 1058.85C685.848 1073.76 682 1090.8 682 1109.62C682 1128.79 686.198 1145.48 694.595 1160.39C702.992 1175.31 714.887 1187.02 730.281 1195.54C745.325 1204.06 762.469 1207.97 781.711 1207.97C792.207 1207.97 803.402 1206.19 815.298 1201.93C827.193 1198.03 836.989 1192.7 845.036 1186.31C848.535 1183.47 850.634 1179.92 850.634 1175.66C850.634 1171.4 848.535 1167.14 844.336 1163.59C841.538 1161.46 838.039 1160.04 833.841 1160.04C829.292 1160.04 825.444 1161.46 822.295 1163.94C817.397 1167.85 811.099 1171.04 803.402 1173.53C795.705 1176.37 788.708 1177.44 781.711 1177.44C763.868 1177.44 748.824 1172.46 736.579 1162.17C724.333 1152.23 716.986 1138.74 714.537 1122.05H847.485C852.033 1122.05 855.882 1120.63 859.031 1117.79ZM734.829 1055.65C745.325 1046.42 759.32 1041.45 776.463 1041.45C791.857 1041.45 804.102 1046.42 813.898 1055.65C823.345 1065.24 829.292 1078.02 831.392 1093.64H714.887C717.686 1078.02 724.333 1065.24 734.829 1055.65Z" fill="white"/>
<path d="M1077.72 1052.47C1070.37 1038.98 1060.23 1028.33 1047.63 1021.23C1035.39 1014.84 1022.09 1011.29 1007.4 1010.93C1007.05 1010.93 1006.35 1010.58 1006.35 1010.58H925.879C920.981 1010.58 917.133 1012.35 913.984 1015.55C910.485 1019.1 909.086 1023 909.086 1027.62C909.086 1027.98 909.086 1028.69 909.086 1029.04C909.086 1029.75 909.086 1030.11 909.086 1030.46V1188.81C909.086 1194.14 910.485 1198.4 913.984 1201.95C917.483 1205.5 921.681 1206.92 926.929 1206.92C932.177 1206.92 936.375 1205.5 939.874 1201.95C943.023 1198.4 944.772 1194.14 944.772 1188.81V1088.69C944.772 1080.17 946.871 1072.71 951.419 1065.61C955.967 1058.86 962.265 1053.54 970.312 1049.28C978.359 1045.37 987.455 1043.24 997.251 1043.24C1014.04 1043.24 1027.34 1048.21 1037.49 1058.15C1047.63 1068.1 1052.88 1082.65 1052.88 1101.47V1188.81C1052.88 1194.14 1054.28 1198.4 1057.78 1201.95C1061.28 1205.5 1065.47 1206.92 1070.72 1206.92C1075.62 1206.92 1079.82 1205.5 1083.32 1201.95C1086.82 1198.4 1088.57 1194.14 1088.57 1188.81V1101.47C1088.57 1082.3 1084.72 1065.97 1077.72 1052.47Z" fill="white"/>
<path d="M1255.23 1018.37C1243.33 1013.4 1229.69 1010.92 1214.64 1010.92C1202.05 1010.92 1190.5 1013.05 1179.66 1016.95C1168.46 1021.21 1159.72 1027.25 1153.07 1035.06C1146.07 1043.23 1142.92 1053.17 1142.92 1064.53C1142.92 1093.29 1165.31 1112.11 1210.1 1120.63C1227.24 1124.18 1239.48 1128.08 1246.83 1133.05C1253.83 1138.03 1257.68 1144.06 1257.68 1151.16C1257.68 1158.97 1253.83 1165.01 1246.48 1169.27C1239.13 1173.89 1228.99 1176.02 1215.69 1176.02C1205.55 1176.02 1196.1 1174.24 1187.35 1170.69C1178.26 1167.14 1171.61 1162.52 1167.41 1157.55C1163.21 1153.29 1158.67 1151.16 1154.12 1151.16C1150.27 1151.16 1146.07 1152.94 1141.87 1156.13C1136.97 1159.68 1134.88 1164.3 1134.88 1169.98C1134.88 1174.24 1136.27 1178.15 1139.42 1180.99C1147.12 1189.15 1158.32 1195.54 1172.31 1200.51C1186.3 1205.48 1201 1207.97 1217.09 1207.97C1232.84 1207.97 1246.48 1205.48 1257.68 1200.51C1268.87 1195.54 1277.62 1188.44 1283.57 1179.57C1289.16 1170.69 1292.31 1160.75 1292.31 1149.74C1292.31 1135.18 1286.72 1123.11 1276.22 1113.88C1265.72 1104.65 1247.53 1097.55 1222.34 1092.22C1209.75 1089.74 1200.3 1087.25 1194 1084.41C1187.35 1081.57 1182.81 1078.73 1180.71 1075.54C1178.26 1072.34 1177.21 1068.44 1177.21 1063.47C1177.21 1057.07 1180.36 1051.75 1187.35 1048.2C1194.35 1044.65 1203.1 1042.52 1213.94 1042.52C1223.04 1042.52 1231.09 1043.94 1237.73 1046.07C1244.03 1048.2 1250.33 1052.1 1256.28 1057.43C1261.18 1062.04 1266.42 1064.18 1272.72 1064.18C1276.57 1064.18 1279.72 1063.47 1282.52 1061.33C1286.37 1058.14 1288.46 1054.59 1288.46 1050.33C1288.46 1046.78 1286.72 1042.87 1283.92 1038.97C1276.92 1030.45 1267.12 1023.34 1255.23 1018.37Z" fill="white"/>
<path d="M1335.47 934.242C1331.97 937.793 1330.57 942.053 1330.57 947.024V1140.88C1330.57 1153.66 1332.67 1165.02 1337.22 1174.96C1341.42 1184.91 1347.72 1192.72 1355.76 1198.4C1363.81 1204.08 1372.91 1206.56 1383.05 1206.56H1383.75C1390.75 1206.56 1396.35 1205.14 1400.9 1201.59C1405.1 1198.4 1407.54 1194.14 1407.54 1188.81C1407.54 1183.84 1405.79 1179.58 1403 1176.03C1400.2 1172.83 1396.35 1171.06 1391.8 1171.06H1383.05C1377.81 1171.06 1373.61 1168.22 1370.46 1162.54C1366.96 1156.86 1365.56 1149.76 1365.56 1140.88V947.024C1365.56 942.053 1363.81 937.793 1360.66 934.242C1357.16 931.047 1352.97 929.271 1348.07 929.271C1342.82 929.271 1338.62 931.047 1335.47 934.242Z" fill="white"/>
<path d="M1600.13 1027.95C1600.13 1021.56 1596.28 1016.94 1589.29 1014.1C1586.49 1013.03 1583.69 1012.32 1580.89 1012.32C1574.59 1012.32 1570.04 1015.87 1567.24 1022.62L1510.92 1151.5L1446.89 1022.27C1443.39 1015.87 1438.5 1012.32 1432.2 1012.32C1429.4 1012.32 1427.3 1013.03 1425.2 1013.74C1422.05 1015.16 1419.6 1017.29 1417.85 1019.78C1415.75 1022.62 1415.05 1025.46 1415.05 1028.3C1415.05 1031.14 1415.4 1033.63 1416.8 1035.76L1495.52 1187.36L1460.54 1267.25C1459.14 1270.09 1458.44 1272.93 1458.44 1275.77C1458.44 1282.16 1461.94 1286.78 1468.93 1289.62C1472.08 1291.04 1474.88 1291.75 1477.33 1291.75C1483.63 1291.75 1488.18 1288.2 1490.97 1280.74L1598.03 1036.47C1599.43 1033.27 1600.13 1030.43 1600.13 1027.95Z" fill="white"/>
<path d="M1774.73 1189.85C1774.73 1178.84 1769.13 1173.16 1758.28 1173.16H1669.42L1768.08 1040.37C1770.18 1037.53 1771.23 1033.98 1771.23 1029.01C1771.23 1018 1765.63 1012.32 1754.79 1012.32H1635.48C1624.29 1012.32 1619.04 1018 1619.04 1029.01C1619.04 1040.37 1624.29 1045.7 1635.48 1045.7H1724.7L1625.69 1178.49C1623.59 1181.33 1622.54 1185.23 1622.54 1189.85C1622.54 1201.21 1627.79 1206.54 1638.98 1206.54H1758.28C1769.13 1206.54 1774.73 1201.21 1774.73 1189.85Z" fill="white"/>
<path d="M1980.48 1117.79C1983.28 1114.95 1985.03 1111.04 1985.03 1106.43C1985.03 1087.96 1981.53 1071.28 1974.54 1056.72C1967.54 1042.52 1957.39 1031.16 1944.45 1022.99C1931.15 1015.18 1915.76 1010.92 1897.92 1010.92C1879.72 1010.92 1863.28 1015.18 1848.94 1023.7C1834.59 1032.22 1823.4 1043.94 1815.35 1058.85C1807.3 1073.76 1803.45 1090.8 1803.45 1109.62C1803.45 1128.79 1807.65 1145.48 1816.05 1160.39C1824.45 1175.31 1836.34 1187.02 1851.73 1195.54C1866.78 1204.06 1883.92 1207.97 1903.16 1207.97C1913.66 1207.97 1924.86 1206.19 1936.75 1201.93C1948.65 1198.03 1958.44 1192.7 1966.49 1186.31C1969.99 1183.47 1972.09 1179.92 1972.09 1175.66C1972.09 1171.4 1969.99 1167.14 1965.79 1163.59C1962.99 1161.46 1959.49 1160.04 1955.29 1160.04C1950.75 1160.04 1946.9 1161.46 1943.75 1163.94C1938.85 1167.85 1932.55 1171.04 1924.86 1173.53C1917.16 1176.37 1910.16 1177.44 1903.16 1177.44C1885.32 1177.44 1870.28 1172.46 1858.03 1162.17C1845.79 1152.23 1838.44 1138.74 1835.99 1122.05H1968.94C1973.49 1122.05 1977.33 1120.63 1980.48 1117.79ZM1856.28 1055.65C1866.78 1046.42 1880.77 1041.45 1897.92 1041.45C1913.31 1041.45 1925.56 1046.42 1935.35 1055.65C1944.8 1065.24 1950.75 1078.02 1952.84 1093.64H1836.34C1839.14 1078.02 1845.79 1065.24 1856.28 1055.65Z" fill="white"/>
<path d="M1422.31 577.254C1425.96 567.794 1429.2 559.405 1432.73 550.25C1454.59 550.25 1476.73 550.25 1503.04 550.25C1495.42 571.525 1490.57 592.645 1480.7 611.308C1435.26 697.294 1362.01 743.183 1261.41 745.041C1186.56 746.424 1111.65 745.115 1036.77 745.55C1026.7 745.609 922.305 745.041 922.305 745.041V679.493C929.384 679.493 1001.26 679.587 1006.16 679.587C1089.88 679.594 1173.61 679.99 1257.32 679.493C1333.92 679.038 1388.57 644.545 1422.31 577.254Z" fill="white"/>
<path d="M1274.2 0.366064C1307.92 0.365789 1340.09 0.651774 1372.24 0.176786C1380.98 0.0477768 1503.04 0.566016 1503.04 0.566016V66.3414C1495.95 66.3414 1409.88 66.3415 1404.99 66.3414C1327.18 66.3378 1249.36 66.3129 1171.54 66.3363C1084.66 66.3624 1022.7 109.486 994.772 189.306C994.112 191.192 993.453 193.079 992.626 195.445C970.427 195.445 948.266 195.445 922.305 195.445C928.878 176.349 933.196 157.796 941.386 141.016C985.34 50.9596 1059.24 3.77501 1162.14 0.566016C1198.94 -0.581434 1235.8 0.371768 1274.2 0.366064Z" fill="white"/>
<path d="M1274.1 616.376C1243.32 616.064 1212.54 615.539 1181.76 615.482C1111.09 615.35 992.975 615.758 922.305 616.376V548.04C1058.22 548.049 1211.59 548.007 1349.93 547.861C1352.99 547.573 1353.65 547.396 1354.31 547.219C1358.9 547.755 1363.5 548.291 1369.71 549.015C1351.21 587.187 1321.68 608.992 1277.68 615.249C1275.22 615.942 1274.66 616.159 1274.1 616.376Z" fill="white"/>
<path d="M1063.52 195.44C1050.37 195.362 1057.47 189.049 1059.27 185.945C1079.35 151.262 1110.42 130.646 1151.68 130.068C1249.77 128.693 1347.91 129.518 1446.02 129.705H1503.14V162.364V193.936C1358.71 193.936 1206.99 195.433 1063.52 195.44Z" fill="white"/>
<path d="M1135.53 402.805C1175.37 362.42 1214.4 322.708 1253.57 283.144C1256.57 280.12 1260.51 276.148 1264.14 276.002C1290.23 274.952 1316.09 276.629 1343.57 287.171C1311.66 319.058 1281.04 349.503 1250.58 380.109C1223.23 407.594 1196.14 435.346 1168.67 462.718C1165.43 465.949 1160.43 469.792 1156.52 469.503C1131.75 467.675 1107.05 464.764 1082.33 462.21C1081.86 460.365 1081.39 458.52 1080.92 456.675C1098.86 438.956 1116.81 421.236 1135.53 402.805Z" fill="white"/>
<path d="M1080.33 283.122C1085.25 280.066 1089.38 275.954 1093.6 275.865C1121.15 275.279 1148.72 275.563 1175.47 275.563C1124.75 327.04 1074.16 378.382 1022.17 431.153C1007.95 418.539 992.189 404.553 975.191 389.471C1011.16 353.1 1045.37 318.513 1080.33 283.122Z" fill="white"/>
<path d="M1249.93 462.626C1299.61 412.357 1348.45 362.868 1399.26 311.395C1415.41 325.332 1431.61 339.317 1449 354.323C1417.18 386.563 1385.86 416.191 1357.16 448.234C1341.75 465.429 1325.84 472.719 1303.31 470.142L1251.57 469.463C1250.71 469.444 1249.92 465.516 1249.93 462.626Z" fill="white"/>
<path d="M1464.14 420.621C1469.12 415.035 1473.34 410.19 1480.68 401.762C1488.71 426.18 1495.52 446.867 1502.96 469.482C1472.71 469.482 1445.54 469.482 1415.15 469.482C1432.62 452.054 1448 436.707 1464.14 420.621Z" fill="white"/>
<path d="M1002.63 280.044C983.343 299.992 964.748 319.137 943.407 341.109C935.956 318.366 929.455 298.52 922.305 276.691C951.186 276.691 977.301 276.691 1003.42 276.691C1003.39 277.541 1003.36 278.391 1002.63 280.044Z" fill="white"/>
<path d="M1354.92 548.126C1354.68 548.886 1354.07 549.058 1352.54 548.976C1352.6 548.326 1353.57 547.932 1354.92 548.126Z" fill="white"/>
<path d="M1280.92 616.332C1281.09 615.649 1281.61 615.437 1282.96 615.395C1282.95 615.977 1282.11 616.39 1280.92 616.332Z" fill="white"/>
<path d="M66.6253 1418.94C64.2525 1418.94 62.0878 1418.59 60.1313 1417.88C58.1748 1417.13 56.5097 1416.11 55.136 1414.82C53.7623 1413.49 52.68 1411.89 51.889 1410.02C51.1397 1408.14 50.7651 1406.06 50.7651 1403.77C50.7651 1401.4 51.1814 1398.92 52.0139 1396.34C52.8881 1393.76 54.1369 1391.16 55.7604 1388.54C57.3839 1385.91 59.3404 1383.33 61.6299 1380.79C63.9611 1378.21 66.6045 1375.73 69.56 1373.36L76.7408 1378.98C75.3671 1380.4 74.1183 1381.75 72.9943 1383.04C71.912 1384.33 70.9129 1385.62 69.9971 1386.91C69.0813 1388.2 68.2279 1389.53 67.437 1390.91C66.6877 1392.28 66.0008 1393.74 65.3764 1395.28L82.3606 1403.77C82.3606 1406.02 81.9235 1408.08 81.0493 1409.95C80.2167 1411.83 79.0928 1413.43 77.6774 1414.76C76.2621 1416.09 74.597 1417.13 72.6821 1417.88C70.7672 1418.59 68.7483 1418.94 66.6253 1418.94ZM25.8509 1418.94C23.4781 1418.94 21.3134 1418.59 19.3569 1417.88C17.4004 1417.13 15.7353 1416.11 14.3616 1414.82C12.9879 1413.49 11.9055 1411.89 11.1146 1410.02C10.3653 1408.14 9.99067 1406.06 9.99067 1403.77C9.99067 1401.4 10.4069 1398.92 11.2395 1396.34C12.1137 1393.76 13.3625 1391.16 14.986 1388.54C16.6095 1385.91 18.566 1383.33 20.8555 1380.79C23.1867 1378.21 25.83 1375.73 28.7856 1373.36L35.9664 1378.98C34.5927 1380.4 33.3439 1381.75 32.2199 1383.04C31.1376 1384.33 30.1385 1385.62 29.2227 1386.91C28.3069 1388.2 27.4535 1389.53 26.6626 1390.91C25.9133 1392.28 25.2264 1393.74 24.602 1395.28L41.5862 1403.77C41.5862 1406.02 41.1491 1408.08 40.2749 1409.95C39.4423 1411.83 38.3184 1413.43 36.903 1414.76C35.4877 1416.09 33.8226 1417.13 31.9077 1417.88C29.9928 1418.59 27.9739 1418.94 25.8509 1418.94ZM97.1752 1436.13C98.7098 1427.44 102.077 1419.63 107.278 1412.73C112.564 1405.82 119 1400.45 126.588 1396.62C134.261 1392.69 142.232 1390.73 150.501 1390.73C159.965 1390.73 167.978 1393.08 174.543 1397.77C181.193 1402.37 185.413 1408.94 187.203 1417.46H169.683C168.064 1413.03 165.421 1409.7 161.755 1407.49C158.089 1405.18 153.571 1404.03 148.2 1404.03C142.317 1404.03 136.818 1405.35 131.703 1408C126.673 1410.64 122.41 1414.39 118.915 1419.25C115.505 1424.11 113.246 1429.74 112.137 1436.13C111.711 1438.94 111.498 1441.33 111.498 1443.29C111.498 1450.97 113.8 1457.06 118.403 1461.58C123.007 1466.1 129.145 1468.36 136.818 1468.36C142.189 1468.36 147.134 1467.25 151.652 1465.03C156.171 1462.73 159.965 1459.36 163.034 1454.93H180.553C175.694 1463.46 169.172 1470.02 160.988 1474.62C152.803 1479.23 143.98 1481.53 134.516 1481.53C127.185 1481.53 120.62 1479.99 114.823 1476.93C109.025 1473.86 104.507 1469.55 101.267 1464.01C98.0278 1458.47 96.4079 1452.07 96.4079 1444.83C96.4079 1442.1 96.6637 1439.2 97.1752 1436.13ZM242.12 1409.15C249.196 1409.15 254.865 1411.15 259.128 1415.16C263.391 1419.08 265.522 1424.71 265.522 1432.04C265.522 1434 265.309 1436.39 264.883 1439.2L257.465 1480.76H243.015L250.048 1441.37C250.389 1438.99 250.56 1437.28 250.56 1436.26C250.56 1431.57 249.239 1427.99 246.596 1425.52C244.038 1423.04 240.457 1421.81 235.854 1421.81C230.312 1421.81 225.623 1423.51 221.787 1426.92C218.036 1430.25 215.649 1435.07 214.626 1441.37V1441.12L207.592 1480.76H193.014L209.766 1386.13H224.344L218.59 1418.48C221.574 1415.5 225.112 1413.2 229.204 1411.58C233.296 1409.96 237.601 1409.15 242.12 1409.15ZM277.468 1445.21C278.747 1438.13 281.304 1431.87 285.141 1426.41C289.062 1420.96 293.837 1416.74 299.463 1413.75C305.09 1410.68 310.973 1409.15 317.111 1409.15C322.652 1409.15 327.299 1410.26 331.05 1412.47C334.801 1414.6 337.614 1417.29 339.49 1420.53L341.28 1410.3H355.986L343.582 1480.76H328.876L330.794 1470.28C327.725 1473.6 323.846 1476.37 319.157 1478.59C314.553 1480.8 309.523 1481.91 304.067 1481.91C298.781 1481.91 294.05 1480.72 289.872 1478.33C285.78 1475.94 282.54 1472.58 280.153 1468.23C277.851 1463.8 276.701 1458.72 276.701 1453.01C276.701 1450.45 276.956 1447.85 277.468 1445.21ZM335.142 1445.47C335.483 1443.85 335.653 1442.1 335.653 1440.22C335.653 1434.51 333.948 1430.04 330.538 1426.8C327.213 1423.47 323.036 1421.81 318.006 1421.81C314.255 1421.81 310.589 1422.75 307.008 1424.62C303.428 1426.41 300.316 1429.1 297.673 1432.68C295.03 1436.17 293.282 1440.35 292.43 1445.21C292.089 1446.83 291.918 1448.58 291.918 1450.45C291.918 1456.25 293.581 1460.85 296.906 1464.27C300.316 1467.59 304.536 1469.25 309.566 1469.25C313.317 1469.25 316.983 1468.31 320.564 1466.44C324.144 1464.56 327.256 1461.84 329.899 1458.25C332.542 1454.59 334.289 1450.33 335.142 1445.47ZM410.941 1409.15C418.358 1409.15 424.241 1411.15 428.589 1415.16C433.022 1419.08 435.238 1424.75 435.238 1432.17C435.238 1434.04 435.025 1436.39 434.599 1439.2L427.182 1480.76H412.731L419.765 1441.37C420.106 1438.99 420.276 1437.28 420.276 1436.26C420.276 1431.57 418.955 1427.99 416.312 1425.52C413.755 1423.04 410.174 1421.81 405.57 1421.81C400.029 1421.81 395.34 1423.51 391.503 1426.92C387.752 1430.25 385.365 1435.07 384.342 1441.37V1440.99L377.309 1480.76H362.73L375.135 1410.3H389.713L388.306 1418.48C391.205 1415.59 394.615 1413.33 398.537 1411.71C402.544 1410 406.678 1409.15 410.941 1409.15ZM493.989 1409.15C501.406 1409.15 507.288 1411.15 511.636 1415.16C516.069 1419.08 518.286 1424.75 518.286 1432.17C518.286 1434.04 518.073 1436.39 517.646 1439.2L510.229 1480.76H495.779L502.812 1441.37C503.153 1438.99 503.324 1437.28 503.324 1436.26C503.324 1431.57 502.002 1427.99 499.36 1425.52C496.802 1423.04 493.221 1421.81 488.618 1421.81C483.076 1421.81 478.387 1423.51 474.551 1426.92C470.8 1430.25 468.412 1435.07 467.389 1441.37V1440.99L460.356 1480.76H445.778L458.182 1410.3H472.76L471.354 1418.48C474.252 1415.59 477.662 1413.33 481.584 1411.71C485.591 1410 489.726 1409.15 493.989 1409.15ZM571.793 1409.15C580.574 1409.15 587.565 1411.62 592.765 1416.57C598.051 1421.51 600.694 1428.16 600.694 1436.52C600.694 1438.48 600.481 1440.82 600.055 1443.55C599.713 1445.42 599.117 1447.73 598.264 1450.45H544.426C544.341 1451.05 544.299 1451.95 544.299 1453.14C544.299 1458.17 545.833 1462.18 548.902 1465.16C552.057 1468.14 556.149 1469.64 561.179 1469.64C569.107 1469.64 575.203 1466.35 579.466 1459.79H595.195C591.955 1466.27 587.181 1471.6 580.872 1475.77C574.564 1479.87 567.274 1481.91 559.005 1481.91C553.122 1481.91 547.964 1480.76 543.531 1478.46C539.098 1476.16 535.645 1472.88 533.173 1468.61C530.701 1464.27 529.464 1459.19 529.464 1453.4C529.464 1450.92 529.72 1448.28 530.232 1445.47C531.511 1438.22 534.111 1431.87 538.032 1426.41C541.954 1420.87 546.814 1416.61 552.611 1413.62C558.493 1410.64 564.887 1409.15 571.793 1409.15ZM585.476 1439.97C585.647 1438.43 585.732 1437.32 585.732 1436.64C585.732 1431.95 584.155 1428.25 581 1425.52C577.931 1422.79 573.924 1421.43 568.98 1421.43C563.779 1421.43 559.09 1423.09 554.913 1426.41C550.735 1429.74 547.879 1434.26 546.345 1439.97H585.476ZM639.082 1386.13L622.33 1480.76H607.751L624.504 1386.13H639.082ZM662.954 1400.96C660.652 1400.96 658.776 1400.24 657.327 1398.79C655.878 1397.34 655.153 1395.51 655.153 1393.29C655.153 1390.31 656.261 1387.75 658.478 1385.62C660.78 1383.4 663.38 1382.29 666.279 1382.29C668.58 1382.29 670.413 1383.02 671.778 1384.47C673.227 1385.92 673.951 1387.75 673.951 1389.97C673.951 1392.95 672.843 1395.55 670.627 1397.77C668.41 1399.9 665.852 1400.96 662.954 1400.96ZM668.453 1410.3L656.048 1480.76H641.47L653.874 1410.3H668.453ZM690.278 1468.87H722.248L720.074 1480.76H671.224L673.398 1468.87L713.68 1422.19H681.582L683.628 1410.3H732.479L730.433 1422.19L690.278 1468.87ZM778.35 1409.15C787.131 1409.15 794.122 1411.62 799.322 1416.57C804.608 1421.51 807.251 1428.16 807.251 1436.52C807.251 1438.48 807.038 1440.82 806.612 1443.55C806.271 1445.42 805.674 1447.73 804.821 1450.45H750.983C750.898 1451.05 750.856 1451.95 750.856 1453.14C750.856 1458.17 752.39 1462.18 755.459 1465.16C758.614 1468.14 762.706 1469.64 767.736 1469.64C775.664 1469.64 781.76 1466.35 786.023 1459.79H801.752C798.512 1466.27 793.738 1471.6 787.429 1475.77C781.121 1479.87 773.831 1481.91 765.562 1481.91C759.679 1481.91 754.522 1480.76 750.088 1478.46C745.655 1476.16 742.202 1472.88 739.73 1468.61C737.258 1464.27 736.021 1459.19 736.021 1453.4C736.021 1450.92 736.277 1448.28 736.789 1445.47C738.068 1438.22 740.668 1431.87 744.589 1426.41C748.511 1420.87 753.371 1416.61 759.168 1413.62C765.05 1410.64 771.444 1409.15 778.35 1409.15ZM792.033 1439.97C792.204 1438.43 792.289 1437.32 792.289 1436.64C792.289 1431.95 790.712 1428.25 787.557 1425.52C784.488 1422.79 780.481 1421.43 775.537 1421.43C770.336 1421.43 765.647 1423.09 761.47 1426.41C757.292 1429.74 754.436 1434.26 752.902 1439.97H792.033ZM934.235 1391.88L894.848 1448.54L889.094 1480.76H874.515L880.27 1448.54L860.704 1391.88H876.945L889.733 1435.24L917.867 1391.88H934.235ZM960.894 1481.91C954.927 1481.91 949.684 1480.68 945.165 1478.2C940.647 1475.73 937.109 1472.24 934.551 1467.72C932.079 1463.2 930.843 1458.04 930.843 1452.24C930.843 1444.32 932.675 1437.07 936.341 1430.5C940.093 1423.94 945.208 1418.74 951.687 1414.9C958.252 1411.07 965.541 1409.15 973.555 1409.15C979.522 1409.15 984.808 1410.43 989.412 1412.99C994.015 1415.46 997.596 1418.95 1000.15 1423.47C1002.8 1427.9 1004.12 1433.06 1004.12 1438.94C1004.12 1446.87 1002.2 1454.12 998.363 1460.68C994.527 1467.25 989.327 1472.45 982.762 1476.29C976.197 1480.04 968.908 1481.91 960.894 1481.91ZM962.685 1469.64C967.544 1469.64 971.977 1468.27 975.984 1465.54C980.077 1462.73 983.274 1459.06 985.575 1454.55C987.877 1449.94 989.028 1445.04 989.028 1439.84C989.028 1433.96 987.366 1429.44 984.041 1426.28C980.716 1423.04 976.538 1421.43 971.509 1421.43C966.564 1421.43 962.131 1422.83 958.209 1425.65C954.373 1428.37 951.346 1432.08 949.129 1436.77C946.998 1441.37 945.932 1446.32 945.932 1451.6C945.932 1457.32 947.467 1461.75 950.536 1464.9C953.691 1468.06 957.74 1469.64 962.685 1469.64ZM1087.84 1410.3L1075.44 1480.76H1060.86L1062.26 1472.45C1059.45 1475.35 1056.04 1477.65 1052.03 1479.36C1048.11 1480.97 1044.06 1481.78 1039.89 1481.78C1032.47 1481.78 1026.54 1479.78 1022.11 1475.77C1017.68 1471.77 1015.46 1466.1 1015.46 1458.77C1015.46 1456.81 1015.67 1454.46 1016.1 1451.73L1023.39 1410.3H1037.84L1030.93 1449.56C1030.59 1451.95 1030.42 1453.65 1030.42 1454.67C1030.42 1459.36 1031.7 1462.94 1034.26 1465.42C1036.9 1467.89 1040.53 1469.12 1045.13 1469.12C1050.5 1469.12 1055.06 1467.55 1058.81 1464.39C1062.56 1461.15 1065.04 1456.51 1066.23 1450.45L1073.26 1410.3H1087.84ZM1119.48 1422.7C1122.38 1418.44 1125.79 1415.12 1129.71 1412.73C1133.72 1410.34 1138.15 1409.15 1143.01 1409.15L1140.32 1424.24H1136.62C1130.99 1424.24 1126.47 1425.65 1123.06 1428.46C1119.65 1431.27 1117.26 1436.13 1115.9 1443.04L1109.25 1480.76H1094.67L1107.08 1410.3H1121.65L1119.48 1422.7ZM1212.4 1391.88L1196.67 1480.76H1182.09L1197.82 1391.88H1212.4ZM1217.22 1445.21C1218.49 1438.13 1221.05 1431.87 1224.89 1426.41C1228.81 1420.96 1233.58 1416.74 1239.21 1413.75C1244.84 1410.68 1250.76 1409.15 1256.99 1409.15C1261.59 1409.15 1265.94 1410.17 1270.03 1412.22C1274.12 1414.18 1277.23 1416.82 1279.36 1420.15L1285.38 1386.13H1300.08L1283.33 1480.76H1268.62L1270.54 1470.15C1267.47 1473.64 1263.64 1476.5 1259.03 1478.72C1254.51 1480.85 1249.53 1481.91 1244.07 1481.91C1238.7 1481.91 1233.92 1480.72 1229.75 1478.33C1225.57 1475.94 1222.29 1472.58 1219.9 1468.23C1217.6 1463.8 1216.45 1458.72 1216.45 1453.01C1216.45 1450.45 1216.7 1447.85 1217.22 1445.21ZM1274.89 1445.47C1275.23 1443.85 1275.4 1442.1 1275.4 1440.22C1275.4 1434.51 1273.7 1430.04 1270.29 1426.8C1266.96 1423.47 1262.78 1421.81 1257.75 1421.81C1254 1421.81 1250.34 1422.75 1246.76 1424.62C1243.17 1426.41 1240.06 1429.1 1237.42 1432.68C1234.78 1436.17 1233.03 1440.35 1232.18 1445.21C1231.84 1446.83 1231.67 1448.58 1231.67 1450.45C1231.67 1456.25 1233.33 1460.85 1236.65 1464.27C1240.06 1467.59 1244.28 1469.25 1249.31 1469.25C1253.06 1469.25 1256.73 1468.31 1260.31 1466.44C1263.89 1464.56 1267 1461.84 1269.65 1458.25C1272.29 1454.59 1274.04 1450.33 1274.89 1445.47ZM1345.45 1409.15C1354.23 1409.15 1361.22 1411.62 1366.42 1416.57C1371.7 1421.51 1374.35 1428.16 1374.35 1436.52C1374.35 1438.48 1374.13 1440.82 1373.71 1443.55C1373.37 1445.42 1372.77 1447.73 1371.92 1450.45H1318.08C1317.99 1451.05 1317.95 1451.95 1317.95 1453.14C1317.95 1458.17 1319.49 1462.18 1322.55 1465.16C1325.71 1468.14 1329.8 1469.64 1334.83 1469.64C1342.76 1469.64 1348.86 1466.35 1353.12 1459.79H1368.85C1365.61 1466.27 1360.83 1471.6 1354.52 1475.77C1348.22 1479.87 1340.93 1481.91 1332.66 1481.91C1326.77 1481.91 1321.62 1480.76 1317.18 1478.46C1312.75 1476.16 1309.3 1472.88 1306.83 1468.61C1304.35 1464.27 1303.12 1459.19 1303.12 1453.4C1303.12 1450.92 1303.37 1448.28 1303.88 1445.47C1305.16 1438.22 1307.76 1431.87 1311.68 1426.41C1315.61 1420.87 1320.47 1416.61 1326.26 1413.62C1332.15 1410.64 1338.54 1409.15 1345.45 1409.15ZM1359.13 1439.97C1359.3 1438.43 1359.38 1437.32 1359.38 1436.64C1359.38 1431.95 1357.81 1428.25 1354.65 1425.52C1351.58 1422.79 1347.58 1421.43 1342.63 1421.43C1337.43 1421.43 1332.74 1423.09 1328.57 1426.41C1324.39 1429.74 1321.53 1434.26 1320 1439.97H1359.13ZM1382.81 1445.21C1384.09 1438.13 1386.65 1431.87 1390.48 1426.41C1394.4 1420.96 1399.18 1416.74 1404.81 1413.75C1410.43 1410.68 1416.32 1409.15 1422.45 1409.15C1427.99 1409.15 1432.64 1410.26 1436.39 1412.47C1440.14 1414.6 1442.96 1417.29 1444.83 1420.53L1446.62 1410.3H1461.33L1448.92 1480.76H1434.22L1436.14 1470.28C1433.07 1473.6 1429.19 1476.37 1424.5 1478.59C1419.9 1480.8 1414.87 1481.91 1409.41 1481.91C1404.12 1481.91 1399.39 1480.72 1395.21 1478.33C1391.12 1475.94 1387.88 1472.58 1385.5 1468.23C1383.19 1463.8 1382.04 1458.72 1382.04 1453.01C1382.04 1450.45 1382.3 1447.85 1382.81 1445.21ZM1440.48 1445.47C1440.83 1443.85 1441 1442.1 1441 1440.22C1441 1434.51 1439.29 1430.04 1435.88 1426.8C1432.56 1423.47 1428.38 1421.81 1423.35 1421.81C1419.6 1421.81 1415.93 1422.75 1412.35 1424.62C1408.77 1426.41 1405.66 1429.1 1403.02 1432.68C1400.37 1436.17 1398.62 1440.35 1397.77 1445.21C1397.43 1446.83 1397.26 1448.58 1397.26 1450.45C1397.26 1456.25 1398.92 1460.85 1402.25 1464.27C1405.66 1467.59 1409.88 1469.25 1414.91 1469.25C1418.66 1469.25 1422.33 1468.31 1425.91 1466.44C1429.49 1464.56 1432.6 1461.84 1435.24 1458.25C1437.88 1454.59 1439.63 1450.33 1440.48 1445.47ZM1494.03 1481.91C1489.17 1481.91 1484.74 1481.1 1480.73 1479.48C1476.73 1477.78 1473.57 1475.43 1471.27 1472.45C1468.97 1469.38 1467.82 1465.88 1467.82 1461.96C1467.82 1461.28 1467.9 1460.34 1468.07 1459.15H1482.27C1481.93 1462.39 1482.91 1465.08 1485.21 1467.21C1487.51 1469.34 1490.75 1470.4 1494.93 1470.4C1499.02 1470.4 1502.39 1469.68 1505.03 1468.23C1507.67 1466.78 1508.99 1464.65 1508.99 1461.84C1508.99 1459.45 1507.89 1457.53 1505.67 1456.08C1503.54 1454.63 1500.09 1453.01 1495.31 1451.22C1490.79 1449.43 1487.13 1447.77 1484.31 1446.23C1481.5 1444.7 1479.07 1442.61 1477.02 1439.97C1474.98 1437.24 1473.96 1433.87 1473.96 1429.87C1473.96 1425.77 1475.11 1422.19 1477.41 1419.12C1479.8 1415.97 1483.08 1413.54 1487.25 1411.83C1491.52 1410.04 1496.38 1409.15 1501.83 1409.15C1506.78 1409.15 1511.17 1410 1515 1411.71C1518.93 1413.33 1521.95 1415.67 1524.08 1418.74C1526.3 1421.72 1527.41 1425.18 1527.41 1429.1C1527.41 1430.29 1527.37 1431.19 1527.28 1431.78H1513.47C1513.81 1428.46 1512.83 1425.77 1510.53 1423.73C1508.31 1421.68 1505.12 1420.66 1500.94 1420.66C1497.27 1420.66 1494.29 1421.43 1491.99 1422.96C1489.77 1424.49 1488.66 1426.58 1488.66 1429.23C1488.66 1431.87 1489.81 1434 1492.11 1435.62C1494.42 1437.15 1497.95 1438.86 1502.73 1440.74C1507.08 1442.44 1510.61 1444.06 1513.34 1445.59C1516.07 1447.13 1518.42 1449.18 1520.38 1451.73C1522.34 1454.29 1523.32 1457.49 1523.32 1461.32C1523.32 1465.5 1522.04 1469.17 1519.48 1472.32C1517.01 1475.39 1513.56 1477.78 1509.12 1479.48C1504.69 1481.1 1499.66 1481.91 1494.03 1481.91ZM1647.87 1391.88L1645.82 1403.27H1622.17L1608.48 1480.76H1593.91L1607.59 1403.27H1583.8L1585.85 1391.88H1647.87ZM1677.72 1481.91C1671.76 1481.91 1666.51 1480.68 1662 1478.2C1657.48 1475.73 1653.94 1472.24 1651.38 1467.72C1648.91 1463.2 1647.67 1458.04 1647.67 1452.24C1647.67 1444.32 1649.51 1437.07 1653.17 1430.5C1656.92 1423.94 1662.04 1418.74 1668.52 1414.9C1675.08 1411.07 1682.37 1409.15 1690.38 1409.15C1696.35 1409.15 1701.64 1410.43 1706.24 1412.99C1710.85 1415.46 1714.43 1418.95 1716.98 1423.47C1719.63 1427.9 1720.95 1433.06 1720.95 1438.94C1720.95 1446.87 1719.03 1454.12 1715.19 1460.68C1711.36 1467.25 1706.16 1472.45 1699.59 1476.29C1693.03 1480.04 1685.74 1481.91 1677.72 1481.91ZM1679.52 1469.64C1684.37 1469.64 1688.81 1468.27 1692.81 1465.54C1696.91 1462.73 1700.1 1459.06 1702.41 1454.55C1704.71 1449.94 1705.86 1445.04 1705.86 1439.84C1705.86 1433.96 1704.2 1429.44 1700.87 1426.28C1697.55 1423.04 1693.37 1421.43 1688.34 1421.43C1683.39 1421.43 1678.96 1422.83 1675.04 1425.65C1671.2 1428.37 1668.18 1432.08 1665.96 1436.77C1663.83 1441.37 1662.76 1446.32 1662.76 1451.6C1662.76 1457.32 1664.3 1461.75 1667.37 1464.9C1670.52 1468.06 1674.57 1469.64 1679.52 1469.64ZM1839.94 1418.36C1839.17 1422.87 1837.34 1427.14 1834.44 1431.14C1831.63 1435.15 1827.66 1438.43 1822.55 1440.99C1817.43 1443.46 1811.21 1444.7 1803.88 1444.7H1787.77L1781.37 1480.76H1766.79L1782.52 1391.88H1813.21C1822.17 1391.88 1828.94 1393.89 1833.55 1397.9C1838.15 1401.82 1840.45 1406.97 1840.45 1413.37C1840.45 1414.48 1840.28 1416.14 1839.94 1418.36ZM1805.93 1433.32C1811.47 1433.32 1815.81 1432 1818.97 1429.35C1822.21 1426.71 1824.21 1423.04 1824.98 1418.36C1825.24 1417.08 1825.36 1415.84 1825.36 1414.65C1825.36 1411.07 1824.17 1408.3 1821.78 1406.34C1819.48 1404.29 1815.94 1403.27 1811.17 1403.27H1795.06L1789.81 1433.32H1805.93ZM1867.66 1422.7C1870.56 1418.44 1873.97 1415.12 1877.89 1412.73C1881.89 1410.34 1886.33 1409.15 1891.19 1409.15L1888.5 1424.24H1884.79C1879.17 1424.24 1874.65 1425.65 1871.24 1428.46C1867.83 1431.27 1865.44 1436.13 1864.08 1443.04L1857.43 1480.76H1842.85L1855.25 1410.3H1869.83L1867.66 1422.7ZM1922.75 1481.91C1916.78 1481.91 1911.54 1480.68 1907.02 1478.2C1902.5 1475.73 1898.96 1472.24 1896.4 1467.72C1893.93 1463.2 1892.69 1458.04 1892.69 1452.24C1892.69 1444.32 1894.53 1437.07 1898.19 1430.5C1901.94 1423.94 1907.06 1418.74 1913.54 1414.9C1920.1 1411.07 1927.39 1409.15 1935.41 1409.15C1941.37 1409.15 1946.66 1410.43 1951.26 1412.99C1955.87 1415.46 1959.45 1418.95 1962.01 1423.47C1964.65 1427.9 1965.97 1433.06 1965.97 1438.94C1965.97 1446.87 1964.05 1454.12 1960.21 1460.68C1956.38 1467.25 1951.18 1472.45 1944.61 1476.29C1938.05 1480.04 1930.76 1481.91 1922.75 1481.91ZM1924.54 1469.64C1929.4 1469.64 1933.83 1468.27 1937.84 1465.54C1941.93 1462.73 1945.13 1459.06 1947.43 1454.55C1949.73 1449.94 1950.88 1445.04 1950.88 1439.84C1950.88 1433.96 1949.22 1429.44 1945.89 1426.28C1942.57 1423.04 1938.39 1421.43 1933.36 1421.43C1928.42 1421.43 1923.98 1422.83 1920.06 1425.65C1916.22 1428.37 1913.2 1432.08 1910.98 1436.77C1908.85 1441.37 1907.78 1446.32 1907.78 1451.6C1907.78 1457.32 1909.32 1461.75 1912.39 1464.9C1915.54 1468.06 1919.59 1469.64 1924.54 1469.64ZM1974.88 1445.21C1976.16 1438.13 1978.72 1431.87 1982.56 1426.41C1986.48 1420.96 1991.25 1416.74 1996.88 1413.75C2002.5 1410.68 2008.43 1409.15 2014.65 1409.15C2019.26 1409.15 2023.6 1410.17 2027.7 1412.22C2031.79 1414.18 2034.9 1416.82 2037.03 1420.15L2043.04 1386.13H2057.75L2041 1480.76H2026.29L2028.21 1470.15C2025.14 1473.64 2021.3 1476.5 2016.7 1478.72C2012.18 1480.85 2007.19 1481.91 2001.74 1481.91C1996.37 1481.91 1991.59 1480.72 1987.41 1478.33C1983.24 1475.94 1979.95 1472.58 1977.57 1468.23C1975.27 1463.8 1974.11 1458.72 1974.11 1453.01C1974.11 1450.45 1974.37 1447.85 1974.88 1445.21ZM2032.56 1445.47C2032.9 1443.85 2033.07 1442.1 2033.07 1440.22C2033.07 1434.51 2031.36 1430.04 2027.95 1426.8C2024.63 1423.47 2020.45 1421.81 2015.42 1421.81C2011.67 1421.81 2008 1422.75 2004.42 1424.62C2000.84 1426.41 1997.73 1429.1 1995.09 1432.68C1992.44 1436.17 1990.7 1440.35 1989.84 1445.21C1989.5 1446.83 1989.33 1448.58 1989.33 1450.45C1989.33 1456.25 1991 1460.85 1994.32 1464.27C1997.73 1467.59 2001.95 1469.25 2006.98 1469.25C2010.73 1469.25 2014.4 1468.31 2017.98 1466.44C2021.56 1464.56 2024.67 1461.84 2027.31 1458.25C2029.96 1454.59 2031.7 1450.33 2032.56 1445.47ZM2136.36 1410.3L2123.96 1480.76H2109.38L2110.79 1472.45C2107.97 1475.35 2104.56 1477.65 2100.55 1479.36C2096.63 1480.97 2092.58 1481.78 2088.41 1481.78C2080.99 1481.78 2075.06 1479.78 2070.63 1475.77C2066.2 1471.77 2063.98 1466.1 2063.98 1458.77C2063.98 1456.81 2064.19 1454.46 2064.62 1451.73L2071.91 1410.3H2086.36L2079.45 1449.56C2079.11 1451.95 2078.94 1453.65 2078.94 1454.67C2078.94 1459.36 2080.22 1462.94 2082.78 1465.42C2085.42 1467.89 2089.05 1469.12 2093.65 1469.12C2099.02 1469.12 2103.58 1467.55 2107.33 1464.39C2111.08 1461.15 2113.56 1456.51 2114.75 1450.45L2121.78 1410.3H2136.36ZM2144.6 1445.47C2145.88 1438.22 2148.44 1431.87 2152.27 1426.41C2156.19 1420.87 2161.01 1416.61 2166.72 1413.62C2172.52 1410.64 2178.79 1409.15 2185.52 1409.15C2194.05 1409.15 2200.74 1411.19 2205.6 1415.29C2210.46 1419.29 2213.23 1425.05 2213.91 1432.55H2198.18C2197.5 1429.06 2195.92 1426.33 2193.45 1424.37C2190.98 1422.41 2187.61 1421.43 2183.35 1421.43C2177.38 1421.43 2172.26 1423.56 2168 1427.82C2163.74 1432 2160.92 1437.88 2159.56 1445.47C2159.13 1448.19 2158.92 1450.41 2158.92 1452.12C2158.92 1457.74 2160.33 1462.09 2163.14 1465.16C2165.95 1468.14 2169.88 1469.64 2174.91 1469.64C2183.35 1469.64 2189.57 1465.93 2193.58 1458.51H2209.31C2205.98 1465.67 2201.12 1471.38 2194.73 1475.65C2188.42 1479.82 2181.09 1481.91 2172.73 1481.91C2163.87 1481.91 2156.83 1479.4 2151.63 1474.37C2146.43 1469.25 2143.83 1462.35 2143.83 1453.65C2143.83 1451.01 2144.09 1448.28 2144.6 1445.47ZM2240.33 1461.2C2240.16 1462.39 2240.08 1463.16 2240.08 1463.5C2240.08 1465.29 2240.63 1466.61 2241.74 1467.46C2242.85 1468.23 2244.68 1468.61 2247.24 1468.61H2256.19L2254.01 1480.76H2242.51C2236.88 1480.76 2232.57 1479.65 2229.59 1477.44C2226.61 1475.13 2225.11 1471.51 2225.11 1466.57C2225.11 1464.69 2225.28 1462.9 2225.63 1461.2L2232.53 1422.19H2224.22L2226.26 1410.3H2234.7L2237.77 1392.78H2252.48L2249.41 1410.3H2266.42L2264.37 1422.19H2247.24L2240.33 1461.2ZM2293.41 1481.91C2288.55 1481.91 2284.12 1481.1 2280.11 1479.48C2276.1 1477.78 2272.95 1475.43 2270.65 1472.45C2268.35 1469.38 2267.2 1465.88 2267.2 1461.96C2267.2 1461.28 2267.28 1460.34 2267.45 1459.15H2281.65C2281.3 1462.39 2282.29 1465.08 2284.59 1467.21C2286.89 1469.34 2290.13 1470.4 2294.31 1470.4C2298.4 1470.4 2301.77 1469.68 2304.41 1468.23C2307.05 1466.78 2308.37 1464.65 2308.37 1461.84C2308.37 1459.45 2307.26 1457.53 2305.05 1456.08C2302.92 1454.63 2299.46 1453.01 2294.69 1451.22C2290.17 1449.43 2286.51 1447.77 2283.69 1446.23C2280.88 1444.7 2278.45 1442.61 2276.4 1439.97C2274.36 1437.24 2273.33 1433.87 2273.33 1429.87C2273.33 1425.77 2274.48 1422.19 2276.79 1419.12C2279.17 1415.97 2282.46 1413.54 2286.63 1411.83C2290.9 1410.04 2295.76 1409.15 2301.21 1409.15C2306.16 1409.15 2310.55 1410 2314.38 1411.71C2318.3 1413.33 2321.33 1415.67 2323.46 1418.74C2325.68 1421.72 2326.79 1425.18 2326.79 1429.1C2326.79 1430.29 2326.74 1431.19 2326.66 1431.78H2312.85C2313.19 1428.46 2312.21 1425.77 2309.91 1423.73C2307.69 1421.68 2304.49 1420.66 2300.32 1420.66C2296.65 1420.66 2293.67 1421.43 2291.36 1422.96C2289.15 1424.49 2288.04 1426.58 2288.04 1429.23C2288.04 1431.87 2289.19 1434 2291.49 1435.62C2293.79 1437.15 2297.33 1438.86 2302.11 1440.74C2306.45 1442.44 2309.99 1444.06 2312.72 1445.59C2315.45 1447.13 2317.79 1449.18 2319.75 1451.73C2321.71 1454.29 2322.7 1457.49 2322.7 1461.32C2322.7 1465.5 2321.42 1469.17 2318.86 1472.32C2316.39 1475.39 2312.93 1477.78 2308.5 1479.48C2304.07 1481.1 2299.04 1481.91 2293.41 1481.91ZM2387.96 1413.7C2389.33 1412.28 2390.58 1410.93 2391.7 1409.64C2392.83 1408.35 2393.85 1407.06 2394.76 1405.77C2395.68 1404.48 2396.51 1403.17 2397.26 1401.84C2398.05 1400.46 2398.76 1398.98 2399.38 1397.4L2382.34 1388.97C2382.34 1386.68 2382.75 1384.6 2383.59 1382.73C2384.46 1380.86 2385.6 1379.25 2387.02 1377.92C2388.44 1376.59 2390.1 1375.57 2392.02 1374.86C2393.93 1374.11 2395.95 1373.74 2398.07 1373.74C2400.45 1373.74 2402.61 1374.11 2404.57 1374.86C2406.52 1375.57 2408.19 1376.59 2409.56 1377.92C2410.94 1379.21 2412 1380.81 2412.75 1382.73C2413.54 1384.6 2413.93 1386.68 2413.93 1388.97C2413.93 1391.35 2413.5 1393.82 2412.62 1396.4C2411.79 1398.94 2410.56 1401.52 2408.94 1404.15C2407.31 1406.77 2405.34 1409.37 2403.01 1411.95C2400.72 1414.53 2398.11 1417.01 2395.2 1419.38L2387.96 1413.7ZM2347.18 1413.7C2348.56 1412.28 2349.8 1410.93 2350.93 1409.64C2352.05 1408.35 2353.07 1407.06 2353.99 1405.77C2354.9 1404.48 2355.74 1403.17 2356.49 1401.84C2357.28 1400.46 2357.98 1398.98 2358.61 1397.4L2341.56 1388.97C2341.56 1386.68 2341.98 1384.6 2342.81 1382.73C2343.69 1380.86 2344.83 1379.25 2346.25 1377.92C2347.66 1376.59 2349.33 1375.57 2351.24 1374.86C2353.16 1374.11 2355.17 1373.74 2357.3 1373.74C2359.67 1373.74 2361.84 1374.11 2363.79 1374.86C2365.75 1375.57 2367.41 1376.59 2368.79 1377.92C2370.16 1379.21 2371.22 1380.81 2371.97 1382.73C2372.76 1384.6 2373.16 1386.68 2373.16 1388.97C2373.16 1391.35 2372.72 1393.82 2371.85 1396.4C2371.01 1398.94 2369.79 1401.52 2368.16 1404.15C2366.54 1406.77 2364.56 1409.37 2362.23 1411.95C2359.94 1414.53 2357.34 1417.01 2354.43 1419.38L2347.18 1413.7Z" fill="white"/>
</svg>
