<svg width="1024" height="844" viewBox="0 0 1024 844" fill="none" xmlns="http://www.w3.org/2000/svg">
<path d="M104.334 612.882C95.06 607.55 83.931 604.767 70.7154 604.767C58.4271 604.767 47.2982 606.854 37.5603 610.564C27.8224 614.273 19.9394 619.838 14.3749 627.025C8.81041 634.213 6.02813 642.791 6.02813 652.529C6.02813 666.672 11.3609 678.497 22.4898 687.771C33.387 697.045 48.4574 702.61 67.7012 704.464C81.6125 705.856 91.8141 709.797 98.7697 716.057C105.493 722.317 108.971 729.737 108.971 738.547C108.971 747.821 104.798 755.24 96.9149 760.573C88.8 765.906 79.0621 768.456 67.4694 768.456C57.4997 768.456 48.4574 766.369 40.3425 762.196C31.9958 758.023 26.6631 752.922 23.8809 746.894C22.7216 744.575 21.0987 742.488 18.7802 741.097C16.4616 739.706 14.1431 738.779 11.8245 738.779C10.6653 738.779 9.9697 739.011 9.50599 739.011C6.49189 739.706 4.17334 740.866 2.55037 742.72C0.695536 744.575 0 746.43 0 748.749C0 750.14 0.231807 751.531 1.15922 753.386C5.7963 764.515 14.1431 773.325 26.4313 780.049C38.7196 787.004 52.3989 790.25 67.4694 790.25C78.8302 790.25 89.4955 788.396 99.4652 784.454C109.435 780.512 117.55 774.484 123.578 766.601C129.606 758.718 132.62 748.98 132.62 737.851C132.62 722.549 127.52 710.261 117.318 700.987C107.116 691.713 92.7415 685.916 74.1932 684.061C57.4997 682.438 45.907 678.961 39.4151 673.396C32.9232 668.063 29.6773 661.34 29.6773 653.225C29.6773 644.646 33.1551 638.154 40.5744 633.517C47.7619 628.88 57.2678 626.562 69.0924 626.562C78.5984 626.562 86.4814 628.416 92.7414 632.126C99.0015 635.836 104.334 640.937 108.507 647.892C109.435 649.979 111.058 651.602 113.145 652.761C114.999 653.92 117.318 654.384 119.637 654.384C121.955 654.384 123.81 653.92 125.665 652.761C128.679 650.674 130.302 647.892 130.302 644.414C130.302 641.864 129.374 639.082 127.52 636.068C121.028 626.098 113.376 618.447 104.334 612.882Z" fill="white"/>
<path d="M277.877 729.968C279.732 728.114 280.891 725.563 280.891 722.549C280.891 710.493 278.573 699.596 273.936 690.09C269.298 680.815 262.575 673.396 253.996 668.063C245.186 662.963 234.984 660.18 223.16 660.18C211.103 660.18 200.206 662.963 190.7 668.527C181.194 674.092 173.775 681.743 168.442 691.481C163.109 701.219 160.559 712.348 160.559 724.636C160.559 737.156 163.341 748.053 168.906 757.791C174.47 767.529 182.353 775.18 192.555 780.744C202.525 786.309 213.885 788.859 226.637 788.859C233.593 788.859 241.012 787.7 248.895 784.918C256.778 782.367 263.27 778.89 268.603 774.716C270.921 772.861 272.313 770.543 272.313 767.761C272.313 764.978 270.921 762.196 268.139 759.878C266.284 758.486 263.966 757.559 261.184 757.559C258.17 757.559 255.619 758.486 253.532 760.109C250.286 762.66 246.113 764.746 241.012 766.369C235.912 768.224 231.275 768.92 226.637 768.92C214.813 768.92 204.843 765.674 196.728 758.95C188.613 752.458 183.744 743.648 182.122 732.751H270.226C273.24 732.751 275.79 731.823 277.877 729.968ZM195.569 689.394C202.525 683.366 211.799 680.12 223.16 680.12C233.361 680.12 241.476 683.366 247.968 689.394C254.228 695.654 258.17 704.001 259.561 714.202H182.353C184.208 704.001 188.613 695.654 195.569 689.394Z" fill="white"/>
<path d="M422.807 687.307C417.938 678.497 411.214 671.541 402.868 666.904C394.753 662.731 385.942 660.412 376.205 660.18C375.973 660.18 375.509 659.949 375.509 659.949H322.183C318.937 659.949 316.386 661.108 314.3 663.194C311.981 665.513 311.054 668.063 311.054 671.078C311.054 671.309 311.054 671.773 311.054 672.005C311.054 672.469 311.054 672.7 311.054 672.932V776.339C311.054 779.817 311.981 782.599 314.3 784.918C316.618 787.236 319.4 788.164 322.878 788.164C326.356 788.164 329.138 787.236 331.457 784.918C333.544 782.599 334.703 779.817 334.703 776.339V710.956C334.703 705.392 336.094 700.523 339.108 695.886C342.122 691.481 346.295 688.003 351.628 685.221C356.961 682.67 362.989 681.279 369.481 681.279C380.61 681.279 389.42 684.525 396.144 691.017C402.868 697.509 406.346 707.015 406.346 719.303V776.339C406.346 779.817 407.273 782.599 409.591 784.918C411.91 787.236 414.692 788.164 418.17 788.164C421.416 788.164 424.198 787.236 426.517 784.918C428.835 782.599 429.995 779.817 429.995 776.339V719.303C429.995 706.783 427.444 696.118 422.807 687.307Z" fill="white"/>
<path d="M540.506 665.049C532.623 661.803 523.58 660.18 513.611 660.18C505.264 660.18 497.613 661.572 490.425 664.122C483.006 666.904 477.21 670.846 472.804 675.946C468.167 681.279 466.081 687.771 466.081 695.19C466.081 713.97 480.919 726.259 510.597 731.823C521.957 734.142 530.072 736.692 534.941 739.938C539.578 743.184 542.129 747.126 542.129 751.763C542.129 756.863 539.578 760.805 534.709 763.587C529.841 766.601 523.117 767.992 514.306 767.992C507.583 767.992 501.322 766.833 495.526 764.515C489.498 762.196 485.093 759.182 482.31 755.936C479.528 753.154 476.514 751.763 473.5 751.763C470.95 751.763 468.167 752.922 465.385 755.009C462.139 757.327 460.748 760.341 460.748 764.051C460.748 766.833 461.675 769.384 463.762 771.238C468.863 776.571 476.282 780.744 485.556 783.99C494.831 787.236 504.568 788.859 515.234 788.859C525.667 788.859 534.709 787.236 542.129 783.99C549.548 780.744 555.344 776.107 559.286 770.311C562.995 764.515 565.082 758.023 565.082 750.835C565.082 741.329 561.373 733.446 554.417 727.418C547.461 721.39 535.405 716.753 518.711 713.275C510.365 711.652 504.105 710.029 499.931 708.174C495.526 706.319 492.512 704.464 491.121 702.378C489.498 700.291 488.802 697.741 488.802 694.495C488.802 690.321 490.889 686.844 495.526 684.525C500.163 682.207 505.959 680.815 513.147 680.815C519.175 680.815 524.508 681.743 528.913 683.134C533.086 684.525 537.26 687.075 541.201 690.553C544.447 693.567 547.925 694.958 552.098 694.958C554.649 694.958 556.735 694.495 558.59 693.104C561.141 691.017 562.532 688.698 562.532 685.916C562.532 683.598 561.373 681.047 559.518 678.497C554.881 672.932 548.389 668.295 540.506 665.049Z" fill="white"/>
<path d="M593.593 610.1C591.274 612.419 590.347 615.201 590.347 618.447V745.039C590.347 753.386 591.738 760.805 594.752 767.297C597.534 773.789 601.708 778.89 607.04 782.599C612.373 786.309 618.401 787.932 625.125 787.932H625.589C630.226 787.932 633.935 787.004 636.949 784.686C639.732 782.599 641.355 779.817 641.355 776.339C641.355 773.093 640.195 770.311 638.341 767.992C636.486 765.906 633.935 764.746 630.921 764.746H625.125C621.647 764.746 618.865 762.892 616.778 759.182C614.459 755.472 613.532 750.835 613.532 745.039V618.447C613.532 615.201 612.373 612.419 610.286 610.1C607.968 608.013 605.185 606.854 601.939 606.854C598.462 606.854 595.679 608.013 593.593 610.1Z" fill="white"/>
<path d="M768.823 671.309C768.823 667.136 766.272 664.122 761.635 662.267C759.781 661.572 757.926 661.108 756.071 661.108C751.898 661.108 748.883 663.426 747.029 667.832L709.7 751.994L667.271 667.6C664.952 663.426 661.706 661.108 657.533 661.108C655.678 661.108 654.287 661.572 652.896 662.035C650.809 662.963 649.186 664.354 648.027 665.977C646.636 667.832 646.172 669.686 646.172 671.541C646.172 673.396 646.404 675.019 647.332 676.41L699.499 775.412L676.313 827.579C675.386 829.434 674.922 831.288 674.922 833.143C674.922 837.317 677.241 840.331 681.878 842.186C683.964 843.113 685.819 843.577 687.442 843.577C691.616 843.577 694.63 841.258 696.484 836.389L767.432 676.874C768.359 674.787 768.823 672.932 768.823 671.309Z" fill="white"/>
<path d="M884.765 777.035C884.765 769.847 881.055 766.138 873.868 766.138H814.977L880.36 679.424C881.751 677.569 882.446 675.251 882.446 672.005C882.446 664.817 878.736 661.108 871.549 661.108H792.487C785.068 661.108 781.59 664.817 781.59 672.005C781.59 679.424 785.068 682.902 792.487 682.902H851.61L785.995 769.615C784.604 771.47 783.908 774.021 783.908 777.035C783.908 784.454 787.386 787.932 794.806 787.932H873.868C881.055 787.932 884.765 784.454 884.765 777.035Z" fill="white"/>
<path d="M1020.99 729.968C1022.84 728.114 1024 725.563 1024 722.549C1024 710.493 1021.68 699.596 1017.04 690.09C1012.41 680.815 1005.68 673.396 997.105 668.063C988.295 662.963 978.093 660.18 966.268 660.18C954.212 660.18 943.315 662.963 933.809 668.527C924.303 674.092 916.884 681.743 911.551 691.481C906.218 701.219 903.668 712.348 903.668 724.636C903.668 737.156 906.45 748.053 912.015 757.791C917.579 767.529 925.462 775.18 935.664 780.744C945.634 786.309 956.994 788.859 969.746 788.859C976.702 788.859 984.121 787.7 992.004 784.918C999.887 782.367 1006.38 778.89 1011.71 774.716C1014.03 772.861 1015.42 770.543 1015.42 767.761C1015.42 764.978 1014.03 762.196 1011.25 759.878C1009.39 758.486 1007.07 757.559 1004.29 757.559C1001.28 757.559 998.728 758.486 996.641 760.109C993.395 762.66 989.222 764.746 984.121 766.369C979.02 768.224 974.383 768.92 969.746 768.92C957.922 768.92 947.952 765.674 939.837 758.95C931.722 752.458 926.853 743.648 925.23 732.751H1013.33C1016.35 732.751 1018.9 731.823 1020.99 729.968ZM938.678 689.394C945.634 683.366 954.908 680.12 966.268 680.12C976.47 680.12 984.585 683.366 991.077 689.394C997.337 695.654 1001.28 704.001 1002.67 714.202H925.462C927.317 704.001 931.722 695.654 938.678 689.394Z" fill="white"/>
<path d="M651.447 376.96C653.869 370.783 656.013 365.304 658.352 359.326C672.841 359.326 687.515 359.326 704.949 359.326C699.899 373.219 696.684 387.011 690.148 399.198C660.033 455.349 611.49 485.315 544.821 486.529C495.215 487.431 445.576 486.577 395.954 486.861C389.281 486.899 320.097 486.529 320.097 486.529V443.724C324.788 443.724 372.423 443.786 375.668 443.786C431.15 443.79 486.633 444.049 542.113 443.724C592.877 443.427 629.092 420.902 651.447 376.96Z" fill="white"/>
<path d="M553.294 0.239047C575.641 0.238868 596.96 0.425622 618.27 0.115445C624.063 0.0311992 704.949 0.36962 704.949 0.36962V43.3222C700.252 43.3222 643.212 43.3224 639.974 43.3222C588.404 43.3199 536.834 43.3037 485.264 43.3189C427.692 43.336 386.632 71.4968 368.121 123.62C367.683 124.852 367.247 126.085 366.698 127.629C351.987 127.629 337.301 127.629 320.097 127.629C324.453 115.159 327.314 103.044 332.742 92.0863C361.87 33.2777 410.84 2.46516 479.037 0.36962C503.422 -0.379688 527.853 0.242772 553.294 0.239047Z" fill="white"/>
<path d="M553.234 402.524C532.835 402.32 512.437 401.977 492.038 401.94C445.202 401.854 366.93 402.12 320.097 402.524V357.899C410.171 357.905 511.808 357.877 603.481 357.782C605.514 357.594 605.949 357.478 606.384 357.363C609.43 357.713 612.476 358.063 616.59 358.536C604.333 383.463 584.763 397.702 555.601 401.787C553.976 402.24 553.605 402.382 553.234 402.524Z" fill="white"/>
<path d="M413.612 127.629C404.898 127.578 409.601 123.456 410.792 121.429C424.102 98.7808 444.689 85.3182 472.033 84.9406C537.041 84.0429 602.072 84.5811 667.094 84.7037H704.949V106.031V126.648C609.235 126.648 508.685 127.625 413.612 127.629Z" fill="white"/>
<path d="M461.399 263.041C487.803 236.669 513.667 210.736 539.626 184.9C541.61 182.926 544.223 180.332 546.63 180.236C563.921 179.55 581.058 180.645 599.27 187.53C578.117 208.352 557.828 228.234 537.644 248.22C519.517 266.168 501.562 284.291 483.364 302.165C481.215 304.276 477.899 306.785 475.307 306.596C458.891 305.403 442.527 303.501 426.145 301.833C425.834 300.629 425.522 299.424 425.21 298.219C437.101 286.648 448.991 275.077 461.399 263.041Z" fill="white"/>
<path d="M424.758 184.895C428.02 182.9 430.758 180.215 433.55 180.156C451.81 179.774 470.083 179.959 487.808 179.959C454.196 213.575 420.672 247.102 386.215 281.563C376.793 273.326 366.347 264.192 355.083 254.344C378.921 230.592 401.59 208.006 424.758 184.895Z" fill="white"/>
<path d="M537.154 302.103C570.075 269.276 602.447 236.959 636.116 203.346C646.819 212.448 657.557 221.58 669.08 231.379C647.994 252.432 627.237 271.78 608.214 292.705C598.006 303.934 587.461 308.694 572.531 307.011L538.243 306.568C537.669 306.556 537.149 303.99 537.154 302.103Z" fill="white"/>
<path d="M679.214 274.681C682.513 271.034 685.31 267.87 690.176 262.366C695.501 278.312 700.012 291.821 704.944 306.589C684.892 306.589 666.89 306.589 646.751 306.589C658.327 295.208 668.52 285.186 679.214 274.681Z" fill="white"/>
<path d="M373.29 182.859C360.505 195.885 348.182 208.387 334.04 222.736C329.103 207.884 324.794 194.924 320.056 180.67C339.195 180.67 356.501 180.67 373.808 180.67C373.789 181.225 373.77 181.78 373.29 182.859Z" fill="white"/>
<path d="M606.77 357.939C606.614 358.434 606.21 358.547 605.2 358.493C605.237 358.07 605.88 357.813 606.77 357.939Z" fill="white"/>
<path d="M557.859 402.46C557.974 402.016 558.319 401.878 559.209 401.85C559.199 402.229 558.644 402.498 557.859 402.46Z" fill="white"/>
</svg>
