<svg width="381" height="89" viewBox="0 0 381 89" fill="none" xmlns="http://www.w3.org/2000/svg">
<path d="M38.7767 3.01596C35.3299 1.03404 31.1937 0 26.282 0C21.7149 0 17.5788 0.775532 13.9596 2.15426C10.3404 3.53298 7.41064 5.60108 5.34255 8.27236C3.27446 10.9436 2.2404 14.1319 2.2404 17.7511C2.2404 23.0075 4.22236 27.4022 8.35854 30.849C12.4085 34.2958 18.0096 36.3639 25.1617 37.0533C30.332 37.5703 34.1235 39.0352 36.7086 41.3618C39.2075 43.6884 40.5001 46.4458 40.5001 49.7203C40.5001 53.1671 38.949 55.9246 36.0192 57.9065C33.0033 59.8884 29.3841 60.8363 25.0756 60.8363C21.3703 60.8363 18.0096 60.0607 14.9936 58.5097C11.8915 56.9586 9.90958 55.0629 8.87553 52.8224C8.44468 51.9607 7.84151 51.1852 6.9798 50.6682C6.1181 50.1512 5.25639 49.8065 4.39469 49.8065C3.96383 49.8065 3.70532 49.8926 3.53298 49.8926C2.41277 50.1512 1.55106 50.582 0.947865 51.2714C0.258502 51.9607 0 52.6501 0 53.5118C0 54.0288 0.0861529 54.5458 0.430834 55.2352C2.15424 59.3714 5.2564 62.6459 9.82343 65.1448C14.3905 67.7299 19.4745 68.9363 25.0756 68.9363C29.2979 68.9363 33.2618 68.2469 36.9671 66.782C40.6724 65.3171 43.6884 63.0767 45.9288 60.1469C48.1693 57.2171 49.2895 53.598 49.2895 49.4618C49.2895 43.7746 47.3937 39.2075 43.6022 35.7607C39.8107 32.3139 34.4682 30.1596 27.5745 29.4703C21.3703 28.8671 17.0617 27.5745 14.649 25.5064C12.2362 23.5245 11.0298 21.0256 11.0298 18.0096C11.0298 14.8213 12.3224 12.4085 15.0798 10.6851C17.7511 8.96172 21.2841 8.10002 25.6788 8.10002C29.2118 8.10002 32.1415 8.78938 34.4681 10.1681C36.7947 11.5468 38.7767 13.4426 40.3277 16.0277C40.6724 16.8032 41.2756 17.4064 42.0511 17.8373C42.7405 18.2681 43.6022 18.4405 44.4639 18.4405C45.3256 18.4405 46.015 18.2681 46.7043 17.8373C47.8246 17.0617 48.4277 16.0277 48.4277 14.7351C48.4277 13.7873 48.0831 12.7532 47.3937 11.633C44.981 7.92768 42.1373 5.08405 38.7767 3.01596Z" fill="black"/>
<path d="M103.28 46.5325C103.969 45.8431 104.4 44.8953 104.4 43.775C104.4 39.2942 103.538 35.2442 101.815 31.7112C100.092 28.2644 97.5927 25.5069 94.4044 23.525C91.1299 21.6293 87.3384 20.5952 82.9437 20.5952C78.4629 20.5952 74.4129 21.6293 70.8799 23.6973C67.3469 25.7654 64.5894 28.6091 62.6075 32.2282C60.6256 35.8474 59.6777 39.9835 59.6777 44.5506C59.6777 49.2038 60.7118 53.2538 62.7799 56.8729C64.848 60.4921 67.7778 63.3357 71.5692 65.4038C75.2746 67.4719 79.4969 68.4198 84.2363 68.4198C86.8214 68.4198 89.5789 67.9889 92.5086 66.9549C95.4384 66.007 97.8512 64.7144 99.8331 63.1634C100.695 62.474 101.212 61.6123 101.212 60.5783C101.212 59.5442 100.695 58.5102 99.6608 57.6485C98.9714 57.1314 98.1097 56.7868 97.0757 56.7868C95.9555 56.7868 95.0076 57.1314 94.2321 57.7346C93.0257 58.6825 91.4746 59.458 89.5789 60.0612C87.6831 60.7506 85.9597 61.0091 84.2363 61.0091C79.8416 61.0091 76.1363 59.8027 73.1203 57.3038C70.1043 54.891 68.2948 51.6165 67.6916 47.5665H100.436C101.557 47.5665 102.504 47.2218 103.28 46.5325ZM72.6895 31.4527C75.2746 29.2122 78.7214 28.0059 82.9437 28.0059C86.7352 28.0059 89.7512 29.2122 92.164 31.4527C94.4906 33.7793 95.9555 36.8814 96.4725 40.6729H67.7778C68.4671 36.8814 70.1044 33.7793 72.6895 31.4527Z" fill="black"/>
<path d="M157.135 30.6764C155.325 27.4019 152.826 24.8168 149.724 23.0934C146.708 21.5423 143.434 20.6806 139.814 20.5945C139.728 20.5945 139.556 20.5083 139.556 20.5083H119.737C118.53 20.5083 117.582 20.9392 116.807 21.7147C115.945 22.5764 115.601 23.5243 115.601 24.6445C115.601 24.7306 115.601 24.903 115.601 24.9892C115.601 25.1615 115.601 25.2477 115.601 25.3338V63.7658C115.601 65.0584 115.945 66.0924 116.807 66.9541C117.669 67.8158 118.703 68.1605 119.995 68.1605C121.288 68.1605 122.322 67.8158 123.184 66.9541C123.959 66.0924 124.39 65.0584 124.39 63.7658V39.4658C124.39 37.3977 124.907 35.5881 126.027 33.8647C127.147 32.2275 128.698 30.9349 130.68 29.9009C132.662 28.953 134.903 28.436 137.315 28.436C141.452 28.436 144.726 29.6424 147.225 32.0551C149.724 34.4679 151.017 38.0009 151.017 42.5679V63.7658C151.017 65.0584 151.361 66.0924 152.223 66.9541C153.085 67.8158 154.119 68.1605 155.411 68.1605C156.618 68.1605 157.652 67.8158 158.513 66.9541C159.375 66.0924 159.806 65.0584 159.806 63.7658V42.5679C159.806 37.9147 158.858 33.9509 157.135 30.6764Z" fill="black"/>
<path d="M200.886 22.4048C197.956 21.1984 194.595 20.5952 190.89 20.5952C187.788 20.5952 184.944 21.1122 182.273 22.0601C179.516 23.0942 177.361 24.5591 175.724 26.4548C174.001 28.4367 173.225 30.8495 173.225 33.6069C173.225 40.5867 178.74 45.1538 189.77 47.2219C193.992 48.0836 197.008 49.0314 198.818 50.2378C200.541 51.4442 201.489 52.9091 201.489 54.6325C201.489 56.5282 200.541 57.9931 198.732 59.0272C196.922 60.1474 194.423 60.6644 191.149 60.6644C188.65 60.6644 186.323 60.2336 184.169 59.3719C181.928 58.5102 180.291 57.3899 179.257 56.1836C178.223 55.1495 177.103 54.6325 175.983 54.6325C175.035 54.6325 174.001 55.0634 172.967 55.8389C171.76 56.7006 171.243 57.8208 171.243 59.1995C171.243 60.2336 171.588 61.1814 172.363 61.8708C174.259 63.8527 177.017 65.4038 180.463 66.6102C183.91 67.8166 187.529 68.4198 191.493 68.4198C195.371 68.4198 198.731 67.8166 201.489 66.6102C204.246 65.4038 206.401 63.6804 207.866 61.5261C209.244 59.3719 210.02 56.9591 210.02 54.2878C210.02 50.7548 208.641 47.825 206.056 45.5846C203.471 43.3442 198.99 41.6208 192.786 40.3282C189.684 39.725 187.357 39.1218 185.806 38.4325C184.169 37.7431 183.049 37.0537 182.531 36.2782C181.928 35.5027 181.67 34.5548 181.67 33.3484C181.67 31.7974 182.445 30.5048 184.169 29.6431C185.892 28.7814 188.046 28.2644 190.718 28.2644C192.958 28.2644 194.94 28.6091 196.577 29.1261C198.128 29.6431 199.679 30.591 201.144 31.8835C202.351 33.0037 203.643 33.5208 205.194 33.5208C206.142 33.5208 206.918 33.3484 207.607 32.8314C208.555 32.0559 209.072 31.1942 209.072 30.1601C209.072 29.2984 208.641 28.3505 207.952 27.4027C206.228 25.3346 203.816 23.6112 200.886 22.4048Z" fill="black"/>
<path d="M220.609 1.98129C219.747 2.84299 219.402 3.87703 219.402 5.08342V52.1324C219.402 55.2346 219.919 57.992 221.04 60.4048C222.074 62.8175 223.625 64.7133 225.607 66.092C227.589 67.4707 229.829 68.0739 232.328 68.0739H232.5C234.224 68.0739 235.602 67.7293 236.723 66.8676C237.757 66.092 238.36 65.058 238.36 63.7654C238.36 62.559 237.929 61.525 237.24 60.6633C236.55 59.8877 235.602 59.4569 234.482 59.4569H232.328C231.035 59.4569 230.001 58.7675 229.226 57.3888C228.364 56.0101 228.019 54.2867 228.019 52.1324V5.08342C228.019 3.87703 227.589 2.84299 226.813 1.98129C225.951 1.20575 224.917 0.774902 223.711 0.774902C222.418 0.774902 221.384 1.20575 220.609 1.98129Z" fill="black"/>
<path d="M285.734 24.7305C285.734 23.1794 284.787 22.0592 283.063 21.3698C282.374 21.1113 281.684 20.939 280.995 20.939C279.444 20.939 278.324 21.8007 277.634 23.4379L263.761 54.7178L247.992 23.3517C247.13 21.8007 245.924 20.939 244.373 20.939C243.683 20.939 243.166 21.1113 242.649 21.2836C241.874 21.6283 241.271 22.1453 240.84 22.7485C240.323 23.4379 240.15 24.1273 240.15 24.8166C240.15 25.506 240.237 26.1092 240.581 26.6262L259.97 63.421L251.353 82.8093C251.008 83.4987 250.835 84.188 250.835 84.8774C250.835 86.4285 251.697 87.5487 253.421 88.238C254.196 88.5827 254.885 88.7551 255.489 88.7551C257.04 88.7551 258.16 87.8934 258.849 86.0838L285.217 26.7986C285.562 26.023 285.734 25.3337 285.734 24.7305Z" fill="black"/>
<path d="M328.837 64.0242C328.837 61.3529 327.458 59.9741 324.787 59.9741H302.9L327.2 27.7464C327.717 27.0571 327.975 26.1954 327.975 24.989C327.975 22.3177 326.597 20.939 323.925 20.939H294.541C291.784 20.939 290.491 22.3177 290.491 24.989C290.491 27.7464 291.784 29.039 294.541 29.039H316.515L292.128 61.2667C291.611 61.9561 291.353 62.9039 291.353 64.0242C291.353 66.7816 292.645 68.0742 295.403 68.0742H324.787C327.458 68.0742 328.837 66.7816 328.837 64.0242Z" fill="black"/>
<path d="M379.465 46.5325C380.154 45.8431 380.585 44.8953 380.585 43.775C380.585 39.2942 379.723 35.2442 378 31.7112C376.276 28.2644 373.777 25.5069 370.589 23.525C367.314 21.6293 363.523 20.5952 359.128 20.5952C354.647 20.5952 350.597 21.6293 347.064 23.6973C343.531 25.7654 340.774 28.6091 338.792 32.2282C336.81 35.8474 335.862 39.9835 335.862 44.5506C335.862 49.2038 336.896 53.2538 338.964 56.8729C341.033 60.4921 343.962 63.3357 347.754 65.4038C351.459 67.4719 355.682 68.4198 360.421 68.4198C363.006 68.4198 365.763 67.9889 368.693 66.9549C371.623 66.007 374.036 64.7144 376.018 63.1634C376.879 62.474 377.396 61.6123 377.396 60.5783C377.396 59.5442 376.879 58.5102 375.845 57.6485C375.156 57.1314 374.294 56.7868 373.26 56.7868C372.14 56.7868 371.192 57.1314 370.417 57.7346C369.21 58.6825 367.659 59.458 365.763 60.0612C363.868 60.7506 362.144 61.0091 360.421 61.0091C356.026 61.0091 352.321 59.8027 349.305 57.3038C346.289 54.891 344.479 51.6165 343.876 47.5665H376.621C377.741 47.5665 378.689 47.2218 379.465 46.5325ZM348.874 31.4527C351.459 29.2122 354.906 28.0059 359.128 28.0059C362.92 28.0059 365.936 29.2122 368.349 31.4527C370.675 33.7793 372.14 36.8814 372.657 40.6729H343.962C344.652 36.8814 346.289 33.7793 348.874 31.4527Z" fill="black"/>
</svg>
