<svg width="169" height="212" viewBox="0 0 169 212" fill="none" xmlns="http://www.w3.org/2000/svg">
<g clip-path="url(#clip0_4074_6491)">
<path d="M168.342 161.395C167.532 167.299 165.845 172.951 163.398 178.164C160.53 184.272 156.666 189.822 151.976 194.546C151.841 194.681 151.723 194.799 151.588 194.934C146.813 199.658 141.263 203.589 135.105 206.491C129.874 208.954 124.205 210.675 118.25 211.518C117.828 211.586 117.406 211.636 116.984 211.687H0.148438V194.951H17.0201H101.395C101.614 194.951 101.834 194.951 102.053 194.951C103.622 194.951 105.174 194.85 106.71 194.681C110.725 194.276 114.589 193.399 118.267 192.083C124.56 189.89 130.279 186.482 135.121 182.129C136.522 180.914 137.855 179.581 139.086 178.181C143.456 173.339 146.864 167.671 149.074 161.411H168.359L168.342 161.395Z" fill="#E3E3E3"/>
<path d="M122.231 161.396C120.983 162.796 119.667 164.112 118.25 165.344C113.374 169.679 107.671 173.087 101.378 175.281C101.378 175.281 101.328 175.281 101.311 175.281C96.0805 177.12 90.4622 178.115 84.5909 178.115H33.9086V178.149H0.148438V161.379H122.231V161.396Z" fill="#E3E3E3"/>
<path d="M168.872 34.3262V51.0959H46.7717C48.0202 49.6956 49.37 48.346 50.7872 47.1144C55.6631 42.7785 61.3657 39.3875 67.6588 37.1942C72.7878 35.389 78.3048 34.3768 84.0411 34.343C84.1761 34.343 84.3111 34.343 84.4461 34.343H168.872V34.3262Z" fill="#E3E3E3"/>
<path d="M168.867 0.785695V17.5386H67.5528C61.6646 17.5386 56.0127 18.5509 50.7656 20.4067C49.3315 20.9128 47.9311 21.4695 46.5645 22.0769C41.908 24.1858 37.6563 26.9864 33.894 30.3099C32.4599 31.5584 31.127 32.8912 29.8616 34.3084C26.4873 38.0537 23.6866 42.2883 21.5608 46.9279C20.9365 48.2775 20.3798 49.6778 19.8736 51.0781H0.741211C1.58479 45.1564 3.32257 39.5046 5.8027 34.3084C8.63713 28.3698 12.4332 22.9542 17.0223 18.3147L17.8153 17.5217C22.4887 12.9666 27.9214 9.18745 33.894 6.36999C39.1242 3.90683 44.8099 2.18599 50.7487 1.34244C53.4819 0.954405 56.2489 0.751953 59.0833 0.751953H168.85L168.867 0.785695Z" fill="#E3E3E3"/>
<path d="M168.864 139.633H132.169L135.121 136.697L149.057 122.846L161.998 109.99C164.022 114.056 165.625 118.358 166.789 122.846C168.173 128.177 168.864 133.88 168.864 139.633Z" fill="#E3E3E3"/>
<path d="M151.943 95.2464L107.283 139.617H82.3809L84.5067 137.508L99.2694 122.847L101.395 120.738L116.175 106.078L118.284 103.986L133.046 89.3247L138.614 83.791C141.195 85.4612 143.642 87.3171 145.953 89.3247C148.079 91.1636 150.104 93.1375 151.959 95.2464H151.943Z" fill="#E3E3E3"/>
<path d="M74.9072 72.8594L24.596 122.865H22.9763C20.8505 121.043 18.8765 119.069 17.0375 116.977C15.8396 115.644 14.7261 114.278 13.6463 112.877C13.292 112.405 12.9377 111.933 12.6002 111.46C12.4147 111.173 12.2122 110.887 12.0266 110.617L17.0375 105.64L33.9091 88.8699L50.0046 72.8594H74.8903H74.9072Z" fill="#E3E3E3"/>
<path d="M121.676 75.8443L58.154 138.976C55.6401 138.638 53.1769 138.149 50.7642 137.542C46.6644 136.479 42.7165 135.078 38.9541 133.307L66.3367 106.094L67.6359 104.812L83.2084 89.3411L84.4906 88.0758L99.7763 72.875H101.666C107.369 72.875 112.936 73.6005 118.234 74.9333C119.381 75.2032 120.528 75.5237 121.659 75.878L121.676 75.8443Z" fill="#E3E3E3"/>
<path d="M25.137 72.8594L3.77748 94.0831C3.25446 92.531 2.78205 90.9282 2.39401 89.3255C1.06115 84.0955 0.128418 78.4943 0.128418 72.8594H25.1201H25.137Z" fill="#E3E3E3"/>
</g>
<defs>
<clipPath id="clip0_4074_6491">
<rect width="168.743" height="210.935" fill="white" transform="translate(0.128418 0.751953)"/>
</clipPath>
</defs>
</svg>
