<svg width="48" height="45" viewBox="0 0 48 45" fill="none" xmlns="http://www.w3.org/2000/svg">
<path d="M18.3833 24.6765C18.7625 24.6765 19.1379 24.7512 19.4883 24.8963C19.8386 25.0414 20.1569 25.2541 20.4251 25.5223C20.6932 25.7904 20.9059 26.1087 21.051 26.4591C21.1961 26.8094 21.2708 27.1849 21.2708 27.5641V28.7242C21.271 29.418 21.1212 30.1035 20.8317 30.734C20.5422 31.3644 20.1198 31.9248 19.5935 32.3767C17.585 34.1015 14.709 34.9434 11.0001 34.9434C7.29114 34.9434 4.41897 34.1015 2.41435 32.3767C1.88877 31.9251 1.46692 31.3652 1.17764 30.7355C0.888369 30.1058 0.738499 29.4211 0.738281 28.7281V27.5628C0.738622 26.7972 1.043 26.0631 1.58448 25.5218C2.12597 24.9806 2.86024 24.6765 3.62585 24.6765H18.3833ZM11.0001 9.27612C11.2327 9.27613 11.4574 9.36037 11.6327 9.51325C11.808 9.66613 11.922 9.87731 11.9536 10.1077L11.9626 10.2386L11.9613 11.1999H16.4531C17.2189 11.1999 17.9534 11.5041 18.4949 12.0456C19.0364 12.5872 19.3406 13.3216 19.3406 14.0875V19.869C19.3406 20.6349 19.0364 21.3693 18.4949 21.9108C17.9534 22.4524 17.2189 22.7566 16.4531 22.7566H5.54448C4.77865 22.7566 4.04418 22.4524 3.50266 21.9108C2.96114 21.3693 2.65691 20.6349 2.65691 19.869V14.0887C2.65691 13.7094 2.73164 13.3338 2.87684 12.9834C3.02203 12.633 3.23484 12.3146 3.50311 12.0465C3.77139 11.7783 4.08986 11.5656 4.44034 11.4206C4.79083 11.2756 5.16645 11.201 5.54576 11.2012L10.0375 11.1999V10.2386C10.0376 10.0059 10.122 9.78098 10.2751 9.60566C10.4283 9.43034 10.6398 9.31646 10.8704 9.28511L11.0001 9.27612ZM8.11121 15.0513C7.89531 15.0426 7.6799 15.0777 7.47789 15.1543C7.27587 15.231 7.09143 15.3477 6.93562 15.4974C6.77981 15.6471 6.65585 15.8267 6.57117 16.0255C6.4865 16.2243 6.44285 16.4381 6.44285 16.6542C6.44285 16.8703 6.4865 17.0841 6.57117 17.2829C6.65585 17.4817 6.77981 17.6613 6.93562 17.811C7.09143 17.9607 7.27587 18.0774 7.47789 18.154C7.6799 18.2307 7.89531 18.2658 8.11121 18.2571C8.52523 18.2405 8.91678 18.0644 9.20386 17.7656C9.49093 17.4668 9.65126 17.0685 9.65126 16.6542C9.65126 16.2398 9.49093 15.8416 9.20386 15.5428C8.91678 15.244 8.52523 15.0678 8.11121 15.0513ZM13.8774 15.0513C13.6615 15.0426 13.4461 15.0777 13.244 15.1543C13.042 15.231 12.8576 15.3477 12.7018 15.4974C12.546 15.6471 12.422 15.8267 12.3373 16.0255C12.2527 16.2243 12.209 16.4381 12.209 16.6542C12.209 16.8703 12.2527 17.0841 12.3373 17.2829C12.422 17.4817 12.546 17.6613 12.7018 17.811C12.8576 17.9607 13.042 18.0774 13.244 18.154C13.4461 18.2307 13.6615 18.2658 13.8774 18.2571C14.2914 18.2405 14.6829 18.0644 14.97 17.7656C15.2571 17.4668 15.4174 17.0685 15.4174 16.6542C15.4174 16.2398 15.2571 15.8416 14.97 15.5428C14.6829 15.244 14.2914 15.0678 13.8774 15.0513Z" fill="url(#paint0_linear_2947_3968)"/>
<path d="M28.1384 13.313H24.6812L24.0872 15H22.6735L25.6317 6.73132H27.1999L30.158 15H28.7324L28.1384 13.313ZM27.7701 12.2557L26.4158 8.3708L25.0495 12.2557H27.7701ZM32.7986 6.7432V15H31.4443V6.7432H32.7986Z" fill="url(#paint1_linear_2947_3968)"/>
<path d="M31.8569 17.8529V26.1097H30.5026V20.4547L27.984 26.1097H27.0454L24.5149 20.4547V26.1097H23.1606V17.8529H24.6218L27.5206 24.3277L30.4075 17.8529H31.8569ZM34.9914 25.0762H37.7832V26.1097H33.637V17.8529H34.9914V25.0762Z" fill="url(#paint2_linear_2947_3968)"/>
<path d="M27.4493 37.2195L25.5485 33.9168H24.5149V37.2195H23.1606V28.9627H26.0118C26.6454 28.9627 27.1801 29.0736 27.6157 29.2953C28.0592 29.5171 28.3879 29.8141 28.6017 30.1864C28.8235 30.5586 28.9344 30.9744 28.9344 31.4338C28.9344 31.9724 28.776 32.4634 28.4592 32.9069C28.1503 33.3425 27.6711 33.6396 27.0216 33.798L29.0651 37.2195H27.4493ZM24.5149 32.8475H26.0118C26.5187 32.8475 26.8989 32.7208 27.1523 32.4674C27.4137 32.2139 27.5444 31.8694 27.5444 31.4338C27.5444 30.9902 27.4177 30.6457 27.1642 30.4002C26.9108 30.1467 26.5266 30.02 26.0118 30.02H24.5149V32.8475ZM35.6448 35.5325H32.1876L31.5936 37.2195H30.1799L33.138 28.9508H34.7062L37.6644 37.2195H36.2388L35.6448 35.5325ZM35.2765 34.4751L33.9221 30.5903L32.5559 34.4751H35.2765ZM38.4992 33.0733C38.4992 32.2654 38.6853 31.5407 39.0576 30.8992C39.4378 30.2576 39.9486 29.7587 40.5901 29.4023C41.2396 29.0379 41.9485 28.8558 42.7167 28.8558C43.5959 28.8558 44.376 29.0736 45.0571 29.5092C45.7462 29.9369 46.2452 30.5467 46.5541 31.3387H44.9265C44.7126 30.9269 44.4156 30.618 44.0354 30.4121C43.6553 30.1982 43.2157 30.0913 42.7167 30.0913C42.1702 30.0913 41.6831 30.2141 41.2554 30.4596C40.8278 30.7051 40.4911 31.0536 40.2456 31.5051C40.008 31.9565 39.8892 32.4792 39.8892 33.0733C39.8892 33.6673 40.008 34.194 40.2456 34.6533C40.4911 35.1048 40.8278 35.4533 41.2554 35.6988C41.6831 35.9443 42.1702 36.0671 42.7167 36.0671C43.4533 36.0671 44.0513 35.8612 44.5106 35.4493C44.9779 35.0295 45.2591 34.4633 45.3541 33.7504H42.2534V32.6931H46.8035V33.7504C46.7164 34.392 46.4867 34.982 46.1145 35.5206C45.7502 36.0592 45.271 36.4908 44.677 36.8156C44.0909 37.1324 43.4375 37.2908 42.7167 37.2908C41.9405 37.2908 41.2317 37.1126 40.5901 36.7562C39.9486 36.3918 39.4378 35.8889 39.0576 35.2474C38.6853 34.6058 38.4992 33.8811 38.4992 33.0733Z" fill="url(#paint3_linear_2947_3968)"/>
<defs>
<linearGradient id="paint0_linear_2947_3968" x1="1.68167" y1="9.27612" x2="26.2836" y2="27.4156" gradientUnits="userSpaceOnUse">
<stop stop-color="#00FFFF"/>
<stop offset="1" stop-color="#0047FF"/>
</linearGradient>
<linearGradient id="paint1_linear_2947_3968" x1="22.8209" y1="3.03745e-07" x2="40.5377" y2="8.90712" gradientUnits="userSpaceOnUse">
<stop stop-color="#00FFFF"/>
<stop offset="1" stop-color="#0047FF"/>
</linearGradient>
<linearGradient id="paint2_linear_2947_3968" x1="23.0047" y1="11.1097" x2="43.423" y2="24.7968" gradientUnits="userSpaceOnUse">
<stop stop-color="#00FFFF"/>
<stop offset="1" stop-color="#0047FF"/>
</linearGradient>
<linearGradient id="paint3_linear_2947_3968" x1="23.4182" y1="22.2195" x2="45.4681" y2="45.3144" gradientUnits="userSpaceOnUse">
<stop stop-color="#00FFFF"/>
<stop offset="1" stop-color="#0047FF"/>
</linearGradient>
</defs>
</svg>
