<svg width="52" height="49" viewBox="0 0 52 49" fill="none" xmlns="http://www.w3.org/2000/svg">
<path d="M51.5772 31.4833L49.7876 31.1581C49.625 30.4256 49.2998 29.7746 48.974 29.1243L50.0318 27.6598C50.1943 27.4156 50.1943 27.0905 49.9501 26.8463L47.5912 24.4867C47.347 24.2432 47.0218 24.2432 46.7777 24.4057L45.3132 25.4634C44.6622 25.1377 44.0119 24.8125 43.2794 24.6499L42.9542 22.8597C42.8726 22.5345 42.6284 22.3719 42.3849 22.3719H41.3272V3.17249C41.3272 1.46447 39.9443 0 38.154 0H13.9925C12.2845 0 10.82 1.38287 10.82 3.17249V5.77565H9.76229C9.43713 5.77565 9.19295 6.01983 9.19295 6.26401L8.86716 8.05364C8.13524 8.21622 7.4843 8.54201 6.83335 8.86716L5.36951 7.80946C5.12533 7.64688 4.79954 7.64688 4.55599 7.89106L2.19639 10.25C1.95221 10.4942 1.95221 10.82 2.11541 11.0636L3.17249 12.528C2.84734 13.179 2.52218 13.8299 2.35897 14.5618L0.569342 14.8876C0.244183 14.9686 0 15.2128 0 15.5379V18.8736C0 19.1988 0.244183 19.443 0.488366 19.443L2.27799 19.7688C2.44057 20.4191 2.76573 21.1516 3.09152 21.8026L2.03381 23.2664C1.87123 23.5106 1.87123 23.8364 2.11541 24.0799L4.47438 26.4395C4.71857 26.6837 5.04373 26.6837 5.28791 26.5205L6.75238 25.4634C7.40332 25.7886 8.05364 26.1138 8.78619 26.277L9.11135 28.0666C9.19295 28.3918 9.43713 28.5543 9.68069 28.5543H10.7384V45.2316C10.7384 46.9402 12.1213 48.4047 13.9115 48.4047H38.0731C39.7811 48.4047 41.2456 47.0218 41.2456 45.2316V45.069H42.3033C42.6284 45.069 42.8726 44.8248 42.8726 44.5813L43.1984 42.791C43.9303 42.6284 44.5813 42.3033 45.2322 41.9775L46.696 43.0352C46.9402 43.1978 47.266 43.1978 47.5096 42.9542L49.8692 40.5946C50.1134 40.3504 50.1134 40.0253 49.9501 39.7811L48.8931 38.3166C49.2182 37.6663 49.5434 37.0154 49.7066 36.2828L51.4962 35.9577C51.8214 35.876 51.984 35.6325 51.984 35.3883V32.0526C52.0656 31.8084 51.8214 31.4833 51.5772 31.4833ZM10.4942 27.4156H10.2507L9.92487 25.707C9.8439 25.4634 9.68069 25.3002 9.43713 25.2193C8.62361 25.0567 7.81009 24.7309 7.07754 24.2432C6.83335 24.0799 6.5898 24.1615 6.42659 24.2432L5.04373 25.2193L3.41668 23.5922L4.39278 22.2093C4.55599 22.0461 4.55599 21.721 4.39278 21.5584C3.90504 20.8258 3.57926 20.0123 3.41668 19.1988C3.3357 18.9552 3.17249 18.792 2.92894 18.7111L1.22029 18.3853V16.0263L2.92894 15.7011C3.17249 15.6195 3.3357 15.457 3.41668 15.2128C3.57926 14.3993 3.98602 13.5857 4.39278 12.8538C4.55599 12.6096 4.47438 12.3654 4.39278 12.2029L3.41668 10.82L5.04373 9.19295L6.42659 10.1691C6.5898 10.3316 6.91496 10.3316 7.07754 10.1691C7.81009 9.68069 8.62361 9.35553 9.43713 9.19295C9.68069 9.11135 9.8439 8.94877 9.92487 8.70459L10.2507 6.99593H10.4942V12.2029C8.13524 12.6906 6.34562 14.7244 6.34562 17.2466C6.34562 19.6872 8.13524 21.8026 10.4942 22.2903V27.4156ZM10.82 21.07C8.94877 20.7449 7.5659 19.1178 7.5659 17.2466C7.5659 15.2944 8.94877 13.7483 10.82 13.4232V21.07ZM40.0253 45.3132C40.0253 46.3709 39.1308 47.2654 38.0731 47.2654H13.9925C12.9348 47.2654 12.0403 46.3709 12.0403 45.3132V42.71H40.0253V45.3132ZM21.1516 20.9075L25.5444 24.3241C25.7886 24.4867 26.0328 24.4867 26.277 24.3241L30.9139 20.9075C31.0765 20.8258 31.1581 20.5823 31.1581 20.4191V16.1079C32.4594 17.3282 33.2729 18.9552 33.4361 20.6633C33.7613 23.7548 32.2158 26.6837 29.4495 28.0666C29.2869 28.1476 29.1243 28.3918 29.1243 28.6359V41.4897H22.9413V28.6359C22.9413 28.3918 22.7787 28.2292 22.6161 28.0666C20.1755 26.7647 18.6295 24.2432 18.6295 21.4768C18.6295 19.443 19.443 17.4908 20.9075 16.1079V20.4191C20.9075 20.5823 20.9891 20.7449 21.1516 20.9075ZM40.0253 22.6161C39.9443 22.6971 39.8627 22.8597 39.8627 22.9413V29.2869C39.8627 29.4495 39.9443 29.5311 40.0253 29.612V41.4897H30.3446V28.9611C33.3545 27.2531 34.9815 23.999 34.6564 20.5007C34.4122 17.9785 33.0293 15.7011 30.9139 14.2367C30.7513 14.0741 30.5072 14.0741 30.263 14.2367C30.1004 14.3177 29.9378 14.5618 29.9378 14.806V20.0123L25.9512 22.9413L22.1277 20.0123V14.7244C22.1277 14.4809 21.9652 14.3177 21.8026 14.1551C21.64 14.0741 21.3958 14.0741 21.1516 14.1551C18.7927 15.7821 17.3282 18.4669 17.3282 21.3142C17.3282 24.4057 18.9552 27.2531 21.64 28.7985V41.2456H12.0403V6.99593H40.0253V22.6161ZM40.0253 5.77565H12.0403V3.17249C12.0403 2.11479 12.9348 1.22029 13.9925 1.22029H38.154C39.2118 1.22029 40.1069 2.11479 40.1069 3.17249V5.77565H40.0253ZM41.2456 29.9378C43.1168 30.263 44.4997 31.8084 44.4997 33.7613C44.4997 35.7135 43.1168 37.2595 41.2456 37.5847V29.9378ZM50.8453 34.8999L49.1366 35.2257C48.8931 35.3067 48.7299 35.4693 48.6489 35.7135C48.4863 36.527 48.1605 37.3405 47.6728 38.0731C47.5096 38.3166 47.5912 38.5608 47.6728 38.7234L48.6489 40.1069L47.0218 41.7339L45.639 40.7572C45.4758 40.5946 45.1506 40.5946 44.988 40.7572C44.2555 41.2456 43.442 41.5707 42.6284 41.7339C42.3849 41.8149 42.2217 41.9775 42.1407 42.2217L41.8149 43.9303H41.2456V38.805C43.7677 38.4798 45.7199 36.3644 45.7199 33.7613C45.7199 31.1581 43.7677 28.9611 41.2456 28.7175V23.5922H41.8149L42.1407 25.3002C42.2217 25.5444 42.3849 25.707 42.6284 25.7886C43.442 25.9512 44.2555 26.277 44.988 26.7647C45.2322 26.9273 45.4758 26.8463 45.639 26.7647L47.0218 25.7886L48.6489 27.4156L47.6728 28.7985C47.5096 28.9611 47.5096 29.2869 47.6728 29.4495C48.1605 30.1814 48.4863 30.9949 48.6489 31.8084C48.7299 32.0526 48.8931 32.2152 49.1366 32.2968L50.8453 32.622V34.8999Z" fill="url(#paint0_linear_2959_2663)"/>
<path d="M30.0195 2.9285H22.0474C21.7216 2.9285 21.3965 3.17268 21.3965 3.57944C21.3965 3.90523 21.6407 4.23039 22.0474 4.23039H30.0195C30.3453 4.23039 30.6704 3.9862 30.6704 3.57944C30.5894 3.17268 30.3453 2.9285 30.0195 2.9285Z" fill="url(#paint1_linear_2959_2663)"/>
<path d="M26.0338 46.8587C27.0915 46.8587 27.9051 46.0451 27.9051 44.9881C27.9051 43.9303 27.0915 43.1168 26.0338 43.1168C24.9761 43.1168 24.1626 43.9303 24.1626 44.9881C24.1626 46.0451 24.9761 46.8587 26.0338 46.8587ZM26.0338 44.3371C26.359 44.3371 26.6848 44.6623 26.6848 44.9881C26.6848 45.3132 26.359 45.6384 26.0338 45.6384C25.7087 45.6384 25.3829 45.3132 25.3829 44.9881C25.3829 44.5813 25.7087 44.3371 26.0338 44.3371Z" fill="url(#paint2_linear_2959_2663)"/>
<defs>
<linearGradient id="paint0_linear_2959_2663" x1="2.38919" y1="6.68304e-07" x2="50.9534" y2="48.0866" gradientUnits="userSpaceOnUse">
<stop stop-color="#00FFFF"/>
<stop offset="1" stop-color="#0047FF"/>
</linearGradient>
<linearGradient id="paint1_linear_2959_2663" x1="21.8226" y1="2.9285" x2="22.2115" y2="5.48175" gradientUnits="userSpaceOnUse">
<stop stop-color="#00FFFF"/>
<stop offset="1" stop-color="#0047FF"/>
</linearGradient>
<linearGradient id="paint2_linear_2959_2663" x1="24.3345" y1="43.1168" x2="28.0765" y2="46.5664" gradientUnits="userSpaceOnUse">
<stop stop-color="#00FFFF"/>
<stop offset="1" stop-color="#0047FF"/>
</linearGradient>
</defs>
</svg>
