<svg width="56" height="63" viewBox="0 0 56 63" fill="none" xmlns="http://www.w3.org/2000/svg">
<path d="M12.6234 23.7714H12.5156C11.1288 23.7714 10 24.9067 10 26.2873V37.245C10 38.6319 11.1288 39.7608 12.5156 39.7608H12.6255C14.0101 39.7608 15.141 38.6298 15.141 37.245V26.2873C15.1383 25.6205 14.872 24.9819 14.4004 24.5107C13.9288 24.0394 13.29 23.7737 12.6234 23.7714ZM16.3439 41.4733C16.3439 42.746 17.3839 43.782 18.6565 43.782H21.1298V49.7016C21.1298 51.0906 22.2607 52.2196 23.6453 52.2196H23.751C25.1399 52.2196 26.2708 51.0885 26.2708 49.6995V43.782H29.725V49.7016C29.725 51.0906 30.8622 52.2196 32.2447 52.2196H32.3504C33.7393 52.2196 34.8681 51.0885 34.8681 49.6995V43.782H37.3414C38.6119 43.782 39.6519 42.746 39.6519 41.4733V24.1753H16.3439V41.4733ZM33.8027 13.6827L35.7665 10.6531C35.7981 10.6073 35.8202 10.5557 35.8316 10.5012C35.8429 10.4467 35.8432 10.3905 35.8324 10.336C35.8216 10.2814 35.8001 10.2295 35.7689 10.1834C35.7378 10.1373 35.6977 10.0979 35.6511 10.0675C35.6045 10.0372 35.5523 10.0164 35.4976 10.0066C35.4428 9.99673 35.3867 9.99795 35.3324 10.0102C35.2781 10.0224 35.2269 10.0453 35.1816 10.0777C35.1364 10.11 35.098 10.1511 35.0689 10.1985L33.0332 13.3338C31.4356 12.6843 29.7267 12.3526 28.0021 12.3571C26.2761 12.3522 24.5658 12.684 22.9668 13.3338L20.9353 10.1985C20.9055 10.1519 20.8667 10.1117 20.8212 10.0803C20.7758 10.0488 20.7245 10.0267 20.6703 10.0153C20.6162 10.0039 20.5604 10.0034 20.5061 10.0138C20.4517 10.0242 20.4 10.0453 20.354 10.0759C20.3079 10.1057 20.2683 10.1443 20.2372 10.1894C20.2061 10.2346 20.1842 10.2854 20.1728 10.3391C20.1614 10.3927 20.1608 10.448 20.1708 10.5019C20.1808 10.5558 20.2014 10.6072 20.2314 10.6531L22.1973 13.6827C18.6544 15.4205 16.2656 18.6911 16.2656 22.4438C16.2656 22.6763 16.2783 22.9025 16.2995 23.1266H39.7005C39.719 22.8995 39.7288 22.6717 39.7301 22.4438C39.7301 18.6911 37.3435 15.4205 33.8027 13.6827ZM22.5757 19.1097C22.2774 19.1103 21.9912 18.9923 21.7799 18.7818C21.5686 18.5713 21.4495 18.2854 21.449 17.9871C21.4484 17.6888 21.5664 17.4025 21.7769 17.1912C21.9874 16.9799 22.2732 16.8608 22.5715 16.8603C22.8697 16.8597 23.156 16.9777 23.3673 17.1882C23.5786 17.3987 23.6976 17.6846 23.6982 17.9829C23.6987 18.2812 23.5808 18.5675 23.3703 18.7788C23.1598 18.9901 22.874 19.1092 22.5757 19.1097ZM33.4243 19.1097C33.2766 19.1101 33.1303 19.0815 32.9937 19.0253C32.8571 18.9692 32.7329 18.8867 32.6282 18.7825C32.4167 18.5722 32.2974 18.2865 32.2965 17.9882C32.2957 17.6899 32.4134 17.4035 32.6237 17.1919C32.834 16.9804 33.1197 16.8611 33.418 16.8603C33.7162 16.8594 34.0026 16.9771 34.2141 17.1874C34.4256 17.3978 34.5449 17.6835 34.5457 17.9818C34.5466 18.2801 34.4289 18.5665 34.2186 18.7781C34.0083 18.9896 33.7226 19.1089 33.4243 19.1097ZM43.4823 23.7714H43.3766C41.992 23.7714 40.859 24.9067 40.859 26.2873V37.245C40.859 38.6319 41.9941 39.7608 43.3766 39.7608H43.4823C44.8712 39.7608 46 38.6298 46 37.245V26.2873C46 24.9046 44.8691 23.7714 43.4823 23.7714Z" fill="url(#paint0_linear_2947_3974)"/>
<defs>
<linearGradient id="paint0_linear_2947_3974" x1="11.6541" y1="10" x2="52.8147" y2="42.3492" gradientUnits="userSpaceOnUse">
<stop stop-color="#00FFFF"/>
<stop offset="1" stop-color="#0047FF"/>
</linearGradient>
</defs>
</svg>
