<svg width="46" height="50" viewBox="0 0 46 50" fill="none" xmlns="http://www.w3.org/2000/svg">
<mask id="mask0_2959_2579" style="mask-type:luminance" maskUnits="userSpaceOnUse" x="0" y="0" width="46" height="50">
<path d="M0.5 0H45.5V49.8374H0.5V0Z" fill="white"/>
</mask>
<g mask="url(#mask0_2959_2579)">
<path fill-rule="evenodd" clip-rule="evenodd" d="M43.4685 11.7223C40.0391 11.4234 36.7329 11.4257 33.2967 11.727C32.3693 11.8082 31.6561 12.4947 31.5421 13.4193C31.3077 15.3201 31.2533 17.1416 31.3751 19.0438C31.3834 19.173 31.3585 19.3059 31.2957 19.4295L29.3538 23.185C29.3354 23.2206 29.3391 23.2612 29.364 23.2925C29.3884 23.3244 29.4272 23.3377 29.4664 23.3285L33.1698 22.4565C33.1809 22.4538 33.1906 22.4533 33.2021 22.4542C34.8833 22.6037 36.6776 22.7403 38.3694 22.7407C40.0446 22.7412 41.7471 22.6655 43.4758 22.5133C44.4133 22.4307 45.1322 21.7248 45.2332 20.7951C45.5017 18.3356 45.4976 15.918 45.229 13.4419C45.128 12.5104 44.4083 11.804 43.4685 11.7223ZM28.056 25.4439C28.0334 25.4176 28.0255 25.3844 28.0348 25.3512C28.044 25.3175 28.0675 25.293 28.1003 25.2824C28.1506 25.2658 28.1995 25.2441 28.2461 25.2164C28.2548 25.2114 28.2632 25.2081 28.2733 25.2058L33.1481 24.0132C33.1592 24.0104 33.1693 24.01 33.1809 24.0109C34.5064 24.1285 35.8351 24.2014 37.1662 24.2291L38.5752 24.2406C38.6301 24.2411 38.6748 24.2859 38.6748 24.3408V28.9974C38.6748 33.7148 36.6347 37.8764 32.8127 40.6312L21.2245 48.9834C20.801 49.2883 20.3382 49.5421 19.8575 49.7285C19.6757 49.7986 19.4838 49.7935 19.3154 49.7285C18.8342 49.5421 18.3719 49.2888 17.9483 48.9834L6.3597 40.6312C2.53773 37.8764 0.497559 33.7148 0.497559 28.9974V6.89459C0.497559 6.47843 0.835741 6.14117 1.2519 6.14117C7.78302 6.14117 13.9649 4.03734 19.1387 0.206136C19.415 0.0017496 19.7851 0.0146679 20.0448 0.213979C20.0453 0.21444 20.0457 0.214902 20.0466 0.215363C22.6142 2.11482 25.47 3.61518 28.5298 4.63112C31.4849 5.61152 34.6397 6.14117 37.9205 6.14117C38.3371 6.14117 38.6748 6.47843 38.6748 6.89459V9.8981C38.6748 9.92578 38.6652 9.94977 38.6453 9.96915C38.6259 9.98898 38.602 9.99867 38.5743 9.99867C36.7676 9.99406 34.9553 10.0693 33.167 10.2257C31.5333 10.3692 30.2452 11.613 30.045 13.2366C29.9259 14.2017 29.8516 15.1854 29.8221 16.1875C29.7954 17.1005 29.8078 18.0076 29.8586 18.9082C29.8599 18.9266 29.8563 18.9423 29.8484 18.9589L27.1997 24.2194C27.1803 24.2568 27.1642 24.2955 27.1513 24.3348C27.1406 24.368 27.1157 24.3915 27.0825 24.4007C27.0488 24.41 27.0156 24.4026 26.9893 24.3795C25.9443 23.4665 24.73 22.7426 23.4017 22.2614C23.3713 22.2508 23.3408 22.254 23.3136 22.2711C22.5187 22.7707 21.6162 23.1158 20.6487 23.2625C20.6206 23.2672 20.598 23.281 20.5814 23.3045C20.5652 23.3276 20.5597 23.3539 20.5652 23.382L23.3339 36.9237C23.3344 36.926 23.3348 36.9278 23.3353 36.9301C23.3966 37.1516 23.356 37.3984 23.2043 37.5936L20.1906 41.464C19.893 41.8538 19.3002 41.8723 18.9915 41.4755L15.9691 37.5936L15.9709 37.5922C15.8408 37.4252 15.7822 37.2046 15.8279 36.9813L18.6076 23.382C18.6136 23.3539 18.6081 23.3276 18.592 23.3041C18.5753 23.281 18.5527 23.2667 18.5246 23.2625C17.5571 23.1154 16.6547 22.7707 15.8597 22.2711C15.8325 22.254 15.8021 22.2503 15.7716 22.2614C11.3789 23.8513 8.3159 28.0525 8.3159 32.8516V40.1375C8.3159 40.1712 8.33067 40.1998 8.35789 40.2192L18.8231 47.7621C18.8254 47.764 18.8282 47.7653 18.8309 47.7672L19.5355 48.1815C19.5682 48.2009 19.6056 48.2009 19.6379 48.1815L20.3428 47.7672C20.3456 47.7653 20.3479 47.764 20.3507 47.7621L30.8154 40.2192C30.8427 40.1998 30.8574 40.1712 30.8574 40.1375V32.8516C30.857 30.0216 29.7977 27.4269 28.056 25.4439ZM23.4354 12.5011C21.3099 10.3784 17.863 10.3784 15.7375 12.5011C13.6119 14.6243 13.6119 18.0671 15.7375 20.1898C17.863 22.3131 21.3099 22.3131 23.4354 20.1898C25.5609 18.0671 25.5609 14.6243 23.4354 12.5011ZM33.3078 15.237C33.3078 14.8209 33.6455 14.4836 34.0621 14.4836H42.6823C43.0989 14.4836 43.4366 14.8209 43.4366 15.237C43.4366 15.6532 43.0989 15.9905 42.6823 15.9905H34.0621C33.6455 15.9905 33.3078 15.6532 33.3078 15.237ZM34.6812 18.2502L39.6262 18.2267C40.0442 18.2249 40.3842 18.5681 40.3801 18.9769H40.3833C40.3833 19.4253 40.0511 19.7571 39.629 19.7571H34.0621C33.6455 19.7571 33.3078 19.4198 33.3078 19.0037C33.3078 18.5875 33.6455 18.2502 34.0621 18.2502H34.6812Z" fill="url(#paint0_linear_2959_2579)"/>
</g>
<defs>
<linearGradient id="paint0_linear_2959_2579" x1="2.56214" y1="0.0585715" x2="51.6275" y2="40.9296" gradientUnits="userSpaceOnUse">
<stop stop-color="#00FFFF"/>
<stop offset="1" stop-color="#0047FF"/>
</linearGradient>
</defs>
</svg>
