<svg width="60" height="45" viewBox="0 0 60 45" fill="none" xmlns="http://www.w3.org/2000/svg">
<path d="M17.4034 0C14.3618 0 11.8724 2.48941 11.8724 5.53104C11.8724 8.57267 14.3618 11.0621 17.4034 11.0621C17.9857 11.0621 18.5476 10.97 19.0759 10.801L21.9856 16.9856C18.3905 19.2507 16.514 23.6773 17.6697 27.9902C17.8723 28.7446 18.1633 29.4725 18.5365 30.1588L10.6826 35.2048L10.6818 35.2044C9.66495 33.9738 8.12868 33.1862 6.41764 33.1862C3.37607 33.1862 0.886719 35.6756 0.886719 38.7173C0.886719 41.7589 3.37607 44.2483 6.41764 44.2483C9.4592 44.2483 11.9486 41.7589 11.9486 38.7173C11.9486 38.0195 11.8123 37.3527 11.5733 36.7363L19.5166 31.6331C21.9139 34.6185 25.9343 36.0823 29.8625 35.0296C35.1634 33.6092 38.3226 28.1371 36.9023 22.8361C36.4684 21.2106 35.627 19.7226 34.4576 18.513L38.8279 12.8457C39.4153 13.127 40.0581 13.2735 40.7093 13.2745C43.1398 13.2745 45.1341 11.2802 45.1341 8.84966C45.1341 6.4191 43.1398 4.42483 40.7093 4.42483C38.2788 4.42483 36.2846 6.4191 36.2846 8.84966C36.2846 9.97313 36.7138 10.9997 37.4125 11.7829L33.1174 17.352C30.7723 15.659 27.7134 14.9913 24.7095 15.7962C24.3148 15.9024 23.9334 16.0329 23.5635 16.1816L20.652 9.99304C22.0308 8.98418 22.9343 7.36026 22.9343 5.53104C22.9343 2.48941 20.4449 0 17.4034 0ZM17.4034 2.21242C19.2494 2.21242 20.7219 3.685 20.7219 5.53104C20.7219 7.37708 19.2494 8.84966 17.4034 8.84966C16.9669 8.85189 16.5344 8.76757 16.1308 8.60158C15.7271 8.4356 15.3604 8.19123 15.0518 7.88263C14.7432 7.57402 14.4989 7.20729 14.3329 6.80365C14.1669 6.40001 14.0826 5.96747 14.0848 5.53104C14.0848 3.685 15.5574 2.21242 17.4034 2.21242ZM40.7093 6.63725C41.9443 6.63725 42.9217 7.61469 42.9217 8.84966C42.9217 10.0846 41.9443 11.0621 40.7093 11.0621C39.4744 11.0621 38.497 10.0846 38.497 8.84966C38.497 7.61469 39.4744 6.63725 40.7093 6.63725ZM27.6356 16.5688C31.3984 16.7179 34.7926 19.2785 35.8275 23.1007C35.8301 23.108 35.8323 23.1154 35.8342 23.1228C35.8364 23.1316 35.8381 23.1405 35.8395 23.1494C37.0868 27.8587 34.2859 32.6995 29.5767 33.961C24.8586 35.2252 20.0029 32.4221 18.7388 27.7043C17.4746 22.9861 20.2786 18.129 24.9962 16.8648C25.856 16.6335 26.7459 16.534 27.6356 16.5688ZM26.6002 17.1241C26.4859 17.1337 26.3719 17.1455 26.2581 17.1595C26.248 17.1843 26.3015 17.2192 26.4714 17.2644L26.6626 17.2763C26.8745 17.1905 26.7595 17.1409 26.6002 17.1241ZM28.2643 17.152C28.1347 17.2201 27.928 17.2936 27.7183 17.3409C27.8333 17.7524 28.3117 18.8042 28.8856 18.4361C28.7807 18.4905 29.3701 18.8268 29.1502 18.9684C29.2528 19.8644 28.1696 18.6144 27.8201 18.7281C27.3143 18.9595 28.0148 19.0533 27.8581 19.2325C27.4723 19.798 28.5285 19.9989 28.259 19.2949C28.4767 19.8622 28.6696 19.7909 29.1347 19.6339C28.1028 20.106 29.8975 20.0746 29.4448 20.5706C28.89 20.6657 28.6409 20.9489 29.0886 21.3967C29.0767 21.9264 29.5674 21.818 29.7789 21.9432L29.9563 21.8772L30.0696 21.8308C30.0652 21.8312 30.0608 21.8339 30.0559 21.8343C30.6754 21.4458 29.9647 20.1883 30.7077 20.0843C30.6966 20.6467 31.6612 20.921 31.0125 20.283C30.6054 19.9803 32.0722 20.2954 31.5545 20.6365C32.3023 21.2179 31.5351 19.9109 32.0497 20.1843C32.4422 20.5786 32.6625 20.1476 32.7306 20.1109C32.8944 20.014 33.1824 20.0201 33.2638 20.0427C34.1151 20.5082 32.7227 20.5936 32.836 21.0936C32.9926 21.391 32.0882 21.2033 31.9457 21.1489C31.3439 20.3011 30.8006 21.4533 30.2563 21.7618C30.1082 21.9569 29.9619 22.1534 29.8174 22.3511C29.9015 23.2127 29.3723 23.8919 29.3497 24.7923C29.4294 25.2879 29.7683 25.9118 29.8408 26.4499C30.1754 27.0755 30.909 27.2879 31.5466 27.4676C32.032 27.6229 32.3262 26.9963 32.7705 26.8711C33.0067 26.1932 33.7439 26.4468 34.0846 26.31C33.8501 27.0583 34.6904 27.3623 34.6749 28.1074C34.4638 28.5764 34.512 29.111 34.4669 29.6149C35.0241 28.6655 35.3868 27.6146 35.5336 26.5235C35.6805 25.4324 35.6086 24.323 35.3222 23.26C34.4143 19.8719 31.5457 17.5396 28.2643 17.152ZM25.5723 17.3316C25.4072 17.3441 25.2429 17.3647 25.0798 17.3936C21.5852 18.3555 19.225 21.4069 18.9879 24.8348C19.0467 24.7198 19.1299 24.6485 19.2445 24.6552C19.637 24.4481 19.6737 25.1419 19.8175 25.5392C20.1688 25.5897 19.6653 24.3021 20.3117 24.0959C20.6207 23.4858 21.0122 22.9214 21.4754 22.4184C21.7272 22.5122 22.1763 22.3724 22.4431 21.9423C22.0246 21.9688 21.9148 21.6733 22.4135 21.4113C23.1613 20.8219 22.1392 21.9113 22.8586 21.837C23.6666 21.8569 22.7984 21.1556 23.0622 20.7193C22.6223 20.5657 22.9551 19.4219 22.4223 20.0334C22.6038 19.8122 22.1737 19.6042 22.3427 19.4325C22.4883 19.6427 22.9914 19.8502 22.9962 19.2746C23.433 19.2339 23.2122 18.6449 23.3502 18.2591C24.3095 17.602 23.7086 18.8631 23.8051 19.383C24.4121 20.2856 24.6179 18.7551 25.2143 18.5586C25.9577 18.3865 25.6843 17.7055 25.5723 17.3316ZM28.617 17.5976C28.7984 17.7719 28.4771 17.6294 28.5568 17.6011C28.5766 17.5962 28.5967 17.595 28.617 17.5976ZM28.6431 17.8467C28.6758 17.8409 28.7594 17.8498 28.9196 17.883C29.3001 18.1657 28.4993 17.8714 28.6431 17.8467ZM29.3214 18.0816C29.4386 18.0498 29.8232 18.1666 29.8165 18.4077C29.5674 18.7493 29.6785 18.5728 29.54 18.3046C29.2767 18.1737 29.2506 18.1011 29.3214 18.0816ZM26.2958 18.3706C26.2029 18.3681 26.1102 18.38 26.021 18.406C25.8697 18.4533 25.7741 18.5484 25.8807 18.698C25.9931 18.76 26.1285 18.7454 26.2471 18.7144C26.7767 18.4998 26.5714 18.3754 26.2958 18.3706ZM27.8577 18.4723C27.8457 18.4723 27.8515 18.4967 27.8935 18.5657C28.0811 18.6909 27.8922 18.4728 27.8572 18.4723M27.3072 18.4869C27.2988 18.4936 27.2957 18.5126 27.3028 18.5511C27.4772 18.6653 27.3426 18.4586 27.3072 18.4869ZM31.7174 18.8352C31.7466 18.8237 31.8178 18.8502 31.9479 18.9383C32.0143 18.7113 32.7479 19.0002 32.2386 19.2241C32.2453 19.6507 31.5908 18.8856 31.7174 18.8352ZM22.5577 18.9865C22.6157 19.0201 22.4812 19.3033 22.2369 19.4144C21.9343 19.8436 22.1485 19.3153 22.2958 19.1993C22.4029 19.0684 22.4768 19.006 22.5206 18.9883C22.5369 18.9816 22.5493 18.9816 22.5577 18.9865ZM21.7011 19.5431C22.0064 19.4847 21.8746 20.2697 21.5507 20.3936C21.3679 20.4246 21.321 20.7387 21.2078 20.8679C21.2108 20.9334 20.9613 19.9011 21.4166 19.7365C21.537 19.6148 21.6308 19.5569 21.7011 19.5431ZM30.9466 19.7316C31.0466 19.7219 31.4811 19.8361 31.6714 19.9449C31.8187 20.1263 31.3262 19.8644 31.2523 19.9095C30.9846 19.8029 30.9046 19.7511 30.9293 19.7361C30.9347 19.7334 30.9406 19.7319 30.9466 19.7316ZM32.1855 19.8126C32.1988 19.8024 32.2475 19.8153 32.3568 19.8741C32.4284 20.079 32.1466 19.8436 32.1855 19.8126ZM32.8028 20.2657C32.7881 20.2618 32.7726 20.2627 32.7585 20.2684C32.7214 20.2834 32.6926 20.3374 32.6957 20.4564C33.0129 20.5153 32.9085 20.2918 32.8028 20.2657ZM30.5351 20.6794C30.501 20.6945 30.4634 20.7706 30.4333 20.9542C30.7046 21.1405 30.6369 20.6339 30.5351 20.6794ZM21.975 21.3799C21.9962 21.3746 22.0352 21.383 22.0989 21.4171C22.0104 21.5303 21.9117 21.3963 21.975 21.3799ZM20.3339 21.6038C20.3578 21.6003 20.398 21.6193 20.4622 21.6755C20.4418 22.0547 20.2303 21.6188 20.3339 21.6038ZM20.4591 22.0246C20.4697 22.0193 20.4834 22.0233 20.5007 22.0405C20.4671 22.5525 20.3856 22.0626 20.4591 22.0246ZM26.6391 22.4171C26.5966 22.4246 26.5431 22.4578 26.4878 22.5357C26.7984 22.6034 26.767 22.3945 26.6391 22.4171ZM27.0506 22.445C27.032 22.4427 27.0011 22.464 26.9564 22.5277C27.0555 22.6604 27.1068 22.4503 27.0506 22.445ZM20.3936 22.5644C20.414 22.5627 20.4348 22.5786 20.4511 22.6237C20.2166 22.9016 20.3047 22.5702 20.3936 22.5644ZM28.6639 22.9481C28.6603 22.9463 28.6563 22.9455 28.6523 22.9456C28.6482 22.9458 28.6443 22.9469 28.6409 22.9489C28.6254 22.9578 28.6081 22.9812 28.5913 23.0304C28.724 23.1578 28.7134 22.9724 28.6639 22.9481ZM29.3563 23.433C29.3209 23.4423 29.2997 23.5171 29.3355 23.7158C29.5798 23.7091 29.4338 23.4122 29.3563 23.433ZM29.0002 23.7158C28.9369 23.7157 28.874 23.7249 28.8134 23.7432C28.7148 23.7759 28.6617 23.8388 28.7648 23.9388L28.7988 23.9445L28.9692 23.899C29.3462 23.7839 29.1926 23.7131 29.0002 23.7158ZM20.0843 25.3207C20.0688 25.3251 20.0693 25.3662 20.1082 25.4755C20.3286 25.6291 20.1308 25.3074 20.0843 25.3207ZM20.0666 25.6273C20.0507 25.6286 20.0396 25.6813 20.0454 25.8277C20.2126 26.0764 20.1157 25.6224 20.0666 25.6273ZM19.6286 25.8994C19.2874 25.9543 20.0547 26.376 20.1476 26.6282C20.8069 26.6291 20.1569 27.0043 20.733 27.0751C21.5909 27.1468 20.9387 26.6472 20.571 26.6039C20.6454 26.36 20.1432 26.3295 19.8471 25.9003C19.7746 25.8916 19.7012 25.8913 19.6286 25.8994ZM19.279 25.9861C19.2423 25.9769 19.1834 26.0512 19.0883 26.2605C19.0505 26.2184 19.0205 26.1698 18.9998 26.1171C19.0264 26.4224 19.0693 26.73 19.1308 27.037C19.3768 27.4994 19.6033 28.0521 19.9308 28.4291C20.2131 28.9229 20.1374 28.2264 20.2843 28.6357C20.6148 29.3946 20.3507 30.3384 21.1476 30.938C21.6343 31.6274 22.398 31.9973 23.0104 32.5473C23.9754 33.1271 25.0481 33.5051 26.1635 33.6584C26.3006 33.4451 26.3404 33.1703 26.5652 33.0345C27.7453 33.0053 26.8957 31.7645 27.5652 31.2526C27.8218 30.1937 26.1727 30.4774 25.5086 30.295C24.4975 30.4083 24.2719 29.2021 23.321 29.1826C22.5679 29.261 22.5515 28.1494 22.0369 28.3468C21.6024 28.5548 21.252 27.9738 21.0095 28.0871C20.9653 28.168 20.5772 27.7508 20.444 28.3614C19.6157 28.3981 19.9224 27.3534 19.4573 26.9393C19.3082 26.7941 19.3901 26.0136 19.279 25.9861ZM20.3467 25.9972C20.3442 25.9971 20.3418 25.9975 20.3395 25.9985C20.3372 25.9994 20.3351 26.0008 20.3334 26.0025C20.3188 26.0189 20.3325 26.0738 20.4148 26.1822L20.4604 26.1977C20.4622 26.0755 20.383 25.9968 20.3467 25.9972ZM28.6833 26.2813C28.6639 26.287 28.6417 26.3078 28.6196 26.3534C28.8055 26.5238 28.7683 26.2574 28.6833 26.2813ZM28.1962 26.299C28.1519 26.3056 28.1608 26.3388 28.3095 26.4198C28.6417 26.3977 28.2926 26.2839 28.1962 26.299ZM28.7068 26.5202C28.6934 26.5183 28.6798 26.5206 28.6679 26.5269C28.6391 26.5401 28.6019 26.5711 28.5564 26.63C28.7333 26.7415 28.7811 26.5357 28.7068 26.5202ZM28.4555 26.6185C28.4387 26.6211 28.421 26.6516 28.4068 26.7317C28.5395 26.8512 28.5046 26.6109 28.4555 26.6185ZM20.0414 26.7618C19.994 26.7645 20.0016 26.818 20.1582 26.9711C20.5175 26.9977 20.1458 26.7561 20.0414 26.7618ZM33.8784 26.8724C33.8616 26.8751 33.843 26.9047 33.8289 26.9848C33.9616 27.1043 33.9275 26.8649 33.8784 26.8724ZM21.3476 26.9375C21.331 26.9342 21.3138 26.9357 21.298 26.9419C21.2582 26.9578 21.2334 27.0109 21.2538 27.1269C21.6197 27.1733 21.4706 26.9592 21.3476 26.9375ZM22.0648 27.4043C22.0467 27.4021 22.0489 27.4813 22.098 27.7092L22.1378 27.8309C22.3666 28.1517 22.1201 27.4105 22.0648 27.4043ZM6.41764 35.3986C8.26364 35.3986 9.73619 36.8712 9.73619 38.7173C9.73619 40.5633 8.26364 42.0359 6.41764 42.0359C5.98121 42.0381 5.54868 41.9538 5.14505 41.7878C4.74142 41.6218 4.3747 41.3775 4.0661 41.0689C3.7575 40.7603 3.51314 40.3935 3.34716 39.9899C3.18117 39.5862 3.09686 39.1537 3.09909 38.7173C3.09909 36.8712 4.57164 35.3986 6.41764 35.3986Z" fill="url(#paint0_linear_2947_3969)"/>
<path fill-rule="evenodd" clip-rule="evenodd" d="M56.2622 19.9339C55.2421 20.0162 54.4817 20.9099 54.564 21.9301C54.6463 22.9503 55.54 23.7107 56.5601 23.6284C57.5803 23.5461 58.3406 22.6524 58.2584 21.6322C58.1761 20.612 57.2824 19.8517 56.2622 19.9339ZM53.8597 21.4381C54.0166 20.2629 54.9745 19.3147 56.2043 19.2156C57.6212 19.1013 58.8625 20.1574 58.9767 21.5743C59.091 22.9912 58.035 24.2325 56.6181 24.3468C55.401 24.4449 54.3136 23.6796 53.9586 22.5638L45.3864 23.2551L45.2956 22.1287L53.8597 21.4381Z" fill="url(#paint1_linear_2947_3969)"/>
<path fill-rule="evenodd" clip-rule="evenodd" d="M5.93706 21.5309C7.54207 22.1399 9.33695 21.3325 9.94602 19.7275C10.5551 18.1224 9.74766 16.3275 8.14265 15.7184C6.53763 15.1093 4.74275 15.9167 4.13369 17.5218C3.52463 19.1269 4.33205 20.9218 5.93706 21.5309ZM10.6617 20.9759C9.5796 22.6464 7.44444 23.3958 5.5082 22.6611C3.27899 21.8152 2.15759 19.3222 3.0035 17.093C3.84941 14.8637 6.34229 13.7423 8.57151 14.5882C10.4849 15.3143 11.5821 17.2537 11.3197 19.1984L18.8303 22.0484L18.1579 23.8205L10.6617 20.9759Z" fill="url(#paint2_linear_2947_3969)"/>
<defs>
<linearGradient id="paint0_linear_2947_3969" x1="2.9197" y1="6.10918e-07" x2="47.1687" y2="40.7837" gradientUnits="userSpaceOnUse">
<stop stop-color="#00FFFF"/>
<stop offset="1" stop-color="#0047FF"/>
</linearGradient>
<linearGradient id="paint1_linear_2947_3969" x1="59.1646" y1="23.9041" x2="55.5435" y2="15.6694" gradientUnits="userSpaceOnUse">
<stop stop-color="#00FFFF"/>
<stop offset="1" stop-color="#0047FF"/>
</linearGradient>
<linearGradient id="paint2_linear_2947_3969" x1="4.39441" y1="13.4274" x2="5.62242" y2="27.7685" gradientUnits="userSpaceOnUse">
<stop stop-color="#00FFFF"/>
<stop offset="1" stop-color="#0047FF"/>
</linearGradient>
</defs>
</svg>
