<svg width="250" height="209" viewBox="0 0 250 209" fill="none" xmlns="http://www.w3.org/2000/svg">
<path d="M25.4718 151.844C23.2076 150.523 20.4906 149.833 17.2642 149.833C14.2642 149.833 11.5472 150.35 9.16984 151.27C6.79248 152.189 4.86793 153.567 3.50944 155.348C2.15094 157.129 1.47169 159.254 1.47169 161.667C1.47169 165.171 2.7736 168.1 5.49059 170.398C8.15098 172.696 11.8302 174.074 16.5283 174.534C19.9246 174.879 22.4152 175.855 24.1133 177.406C25.7548 178.957 26.6039 180.795 26.6039 182.978C26.6039 185.276 25.585 187.114 23.6605 188.435C21.6793 189.756 19.3019 190.388 16.4717 190.388C14.0378 190.388 11.8302 189.871 9.84908 188.837C7.81133 187.803 6.50944 186.539 5.8302 185.046C5.54718 184.472 5.15096 183.955 4.58492 183.61C4.01888 183.265 3.45284 183.035 2.8868 183.035C2.60378 183.035 2.43397 183.093 2.32076 183.093C1.58491 183.265 1.01887 183.552 0.622637 184.012C0.169806 184.472 0 184.931 0 185.506C0 185.85 0.0565925 186.195 0.283008 186.654C1.41509 189.412 3.45285 191.594 6.45286 193.26C9.45287 194.984 12.7925 195.788 16.4717 195.788C19.2453 195.788 21.8491 195.328 24.2831 194.352C26.7171 193.375 28.6982 191.882 30.1699 189.929C31.6416 187.976 32.3775 185.563 32.3775 182.806C32.3775 179.014 31.1322 175.97 28.6416 173.672C26.151 171.375 22.6416 169.938 18.1133 169.479C14.0378 169.077 11.2076 168.215 9.62267 166.837C8.03775 165.515 7.24531 163.85 7.24531 161.839C7.24531 159.714 8.09437 158.105 9.9057 156.956C11.6604 155.808 13.9812 155.233 16.868 155.233C19.1887 155.233 21.1133 155.693 22.6416 156.612C24.1699 157.531 25.4718 158.795 26.4906 160.518C26.7171 161.035 27.1133 161.437 27.6227 161.724C28.0756 162.011 28.6416 162.126 29.2076 162.126C29.7737 162.126 30.2265 162.011 30.6793 161.724C31.4152 161.207 31.8114 160.518 31.8114 159.656C31.8114 159.024 31.585 158.335 31.1322 157.588C29.5473 155.118 27.6793 153.223 25.4718 151.844Z" fill="white"/>
<path d="M67.8437 180.853C68.2966 180.393 68.5796 179.761 68.5796 179.015C68.5796 176.028 68.0136 173.328 66.8815 170.973C65.7494 168.675 64.1079 166.837 62.0135 165.516C59.8626 164.252 57.372 163.562 54.4852 163.562C51.5418 163.562 48.8814 164.252 46.5607 165.63C44.2399 167.009 42.4286 168.905 41.1267 171.317C39.8248 173.73 39.2021 176.487 39.2021 179.532C39.2021 182.634 39.8814 185.333 41.2399 187.746C42.5984 190.159 44.5229 192.054 47.0135 193.433C49.4475 194.811 52.2211 195.443 55.3343 195.443C57.0324 195.443 58.8437 195.156 60.7683 194.467C62.6928 193.835 64.2777 192.973 65.5796 191.939C66.1456 191.48 66.4852 190.905 66.4852 190.216C66.4852 189.527 66.1456 188.837 65.4664 188.263C65.0136 187.918 64.4475 187.688 63.7683 187.688C63.0324 187.688 62.4098 187.918 61.9003 188.32C61.1079 188.952 60.089 189.469 58.8437 189.871C57.5984 190.331 56.4664 190.503 55.3343 190.503C52.4475 190.503 50.0135 189.699 48.0324 188.033C46.0512 186.425 44.8626 184.242 44.4663 181.542H65.9758C66.7117 181.542 67.3343 181.312 67.8437 180.853ZM47.7493 170.8C49.4475 169.307 51.7116 168.503 54.4852 168.503C56.9758 168.503 58.9569 169.307 60.5418 170.8C62.0701 172.351 63.0324 174.419 63.372 176.947H44.5229C44.9758 174.419 46.0512 172.351 47.7493 170.8Z" fill="white"/>
<path d="M103.215 170.283C102.026 168.1 100.385 166.377 98.3468 165.228C96.3657 164.194 94.2147 163.62 91.8373 163.562C91.7807 163.562 91.6675 163.505 91.6675 163.505H78.6486C77.8562 163.505 77.2335 163.792 76.7241 164.309C76.1581 164.884 75.9316 165.515 75.9316 166.262C75.9316 166.32 75.9316 166.434 75.9316 166.492C75.9316 166.607 75.9316 166.664 75.9316 166.722V192.341C75.9316 193.203 76.1581 193.892 76.7241 194.467C77.2901 195.041 77.9694 195.271 78.8184 195.271C79.6675 195.271 80.3467 195.041 80.9128 194.467C81.4222 193.892 81.7052 193.203 81.7052 192.341V176.142C81.7052 174.764 82.0448 173.557 82.7807 172.409C83.5165 171.317 84.5354 170.455 85.8373 169.766C87.1392 169.134 88.6109 168.79 90.1958 168.79C92.9128 168.79 95.0638 169.594 96.7053 171.202C98.3468 172.811 99.1958 175.166 99.1958 178.21V192.341C99.1958 193.203 99.4222 193.892 99.9883 194.467C100.554 195.041 101.234 195.271 102.083 195.271C102.875 195.271 103.554 195.041 104.12 194.467C104.686 193.892 104.969 193.203 104.969 192.341V178.21C104.969 175.108 104.347 172.466 103.215 170.283Z" fill="white"/>
<path d="M131.954 164.769C130.03 163.965 127.822 163.562 125.388 163.562C123.35 163.562 121.482 163.907 119.728 164.539C117.916 165.228 116.501 166.205 115.426 167.469C114.294 168.79 113.784 170.398 113.784 172.236C113.784 176.889 117.407 179.934 124.652 181.312C127.426 181.887 129.407 182.519 130.596 183.323C131.728 184.127 132.35 185.104 132.35 186.252C132.35 187.516 131.728 188.493 130.539 189.182C129.35 189.929 127.709 190.273 125.558 190.273C123.916 190.273 122.388 189.986 120.973 189.412C119.501 188.837 118.426 188.091 117.747 187.286C117.067 186.597 116.331 186.252 115.596 186.252C114.973 186.252 114.294 186.54 113.615 187.057C112.822 187.631 112.482 188.378 112.482 189.297C112.482 189.986 112.709 190.618 113.218 191.078C114.464 192.399 116.275 193.433 118.539 194.237C120.803 195.041 123.181 195.443 125.784 195.443C128.332 195.443 130.539 195.041 132.35 194.237C134.162 193.433 135.577 192.284 136.539 190.848C137.445 189.412 137.954 187.803 137.954 186.023C137.954 183.667 137.049 181.714 135.35 180.221C133.652 178.727 130.709 177.579 126.633 176.717C124.596 176.315 123.067 175.913 122.048 175.453C120.973 174.994 120.237 174.534 119.898 174.017C119.501 173.5 119.331 172.868 119.331 172.064C119.331 171.03 119.841 170.168 120.973 169.594C122.105 169.02 123.52 168.675 125.275 168.675C126.747 168.675 128.049 168.905 129.124 169.249C130.143 169.594 131.162 170.226 132.124 171.088C132.916 171.834 133.765 172.179 134.784 172.179C135.407 172.179 135.916 172.064 136.369 171.719C136.992 171.202 137.332 170.628 137.332 169.939C137.332 169.364 137.049 168.732 136.596 168.1C135.464 166.722 133.879 165.573 131.954 164.769Z" fill="white"/>
<path d="M144.91 151.155C144.344 151.729 144.117 152.419 144.117 153.223V184.587C144.117 186.654 144.457 188.493 145.193 190.101C145.872 191.709 146.891 192.973 148.193 193.892C149.495 194.811 150.966 195.213 152.608 195.213H152.721C153.853 195.213 154.759 194.984 155.495 194.409C156.174 193.892 156.57 193.203 156.57 192.341C156.57 191.537 156.287 190.848 155.834 190.273C155.381 189.756 154.759 189.469 154.023 189.469H152.608C151.759 189.469 151.079 189.01 150.57 188.091C150.004 187.171 149.778 186.023 149.778 184.587V153.223C149.778 152.419 149.495 151.729 148.985 151.155C148.419 150.638 147.74 150.351 146.947 150.351C146.098 150.351 145.419 150.638 144.91 151.155Z" fill="white"/>
<path d="M187.694 166.32C187.694 165.286 187.072 164.539 185.94 164.08C185.487 163.907 185.034 163.792 184.581 163.792C183.562 163.792 182.826 164.367 182.374 165.458L173.26 186.31L162.902 165.401C162.336 164.367 161.543 163.792 160.525 163.792C160.072 163.792 159.732 163.907 159.392 164.022C158.883 164.252 158.487 164.597 158.204 164.999C157.864 165.458 157.751 165.918 157.751 166.377C157.751 166.837 157.808 167.239 158.034 167.584L170.77 192.112L165.109 205.036C164.883 205.496 164.77 205.956 164.77 206.415C164.77 207.449 165.336 208.196 166.468 208.655C166.977 208.885 167.43 209 167.826 209C168.845 209 169.581 208.426 170.034 207.219L187.355 167.699C187.581 167.182 187.694 166.722 187.694 166.32Z" fill="white"/>
<path d="M216.008 192.514C216.008 190.733 215.102 189.814 213.348 189.814H198.97L214.933 168.33C215.272 167.871 215.442 167.296 215.442 166.492C215.442 164.712 214.536 163.792 212.782 163.792H193.48C191.668 163.792 190.819 164.712 190.819 166.492C190.819 168.33 191.668 169.192 193.48 169.192H207.914L191.895 190.676C191.555 191.135 191.385 191.767 191.385 192.514C191.385 194.352 192.234 195.214 194.046 195.214H213.348C215.102 195.214 216.008 194.352 216.008 192.514Z" fill="white"/>
<path d="M249.263 180.853C249.716 180.393 249.999 179.761 249.999 179.015C249.999 176.028 249.432 173.328 248.3 170.973C247.168 168.675 245.527 166.837 243.432 165.516C241.282 164.252 238.791 163.562 235.904 163.562C232.961 163.562 230.3 164.252 227.98 165.63C225.659 167.009 223.848 168.905 222.546 171.317C221.244 173.73 220.621 176.487 220.621 179.532C220.621 182.634 221.3 185.333 222.659 187.746C224.017 190.159 225.942 192.054 228.432 193.433C230.866 194.811 233.64 195.443 236.753 195.443C238.451 195.443 240.263 195.156 242.187 194.467C244.112 193.835 245.697 192.973 246.999 191.939C247.565 191.48 247.904 190.905 247.904 190.216C247.904 189.527 247.565 188.837 246.885 188.263C246.432 187.918 245.866 187.688 245.187 187.688C244.451 187.688 243.829 187.918 243.319 188.32C242.527 188.952 241.508 189.469 240.263 189.871C239.017 190.331 237.885 190.503 236.753 190.503C233.866 190.503 231.432 189.699 229.451 188.033C227.47 186.425 226.281 184.242 225.885 181.542H247.395C248.131 181.542 248.753 181.312 249.263 180.853ZM229.168 170.8C230.866 169.307 233.131 168.503 235.904 168.503C238.395 168.503 240.376 169.307 241.961 170.8C243.489 172.351 244.451 174.419 244.791 176.947H225.942C226.395 174.419 227.47 172.351 229.168 170.8Z" fill="white"/>
<path d="M159.032 93.3939C159.624 91.8633 160.147 90.5061 160.718 89.0249C164.255 89.0249 167.838 89.0249 172.094 89.0249C170.861 92.4669 170.076 95.8839 168.481 98.9034C161.128 112.815 149.277 120.239 133.001 120.54C120.891 120.764 108.772 120.552 96.6573 120.622C95.0281 120.632 78.1377 120.54 78.1377 120.54V109.935C79.283 109.935 90.9124 109.95 91.7046 109.95C105.25 109.951 118.795 110.015 132.34 109.935C144.733 109.861 153.575 104.281 159.032 93.3939Z" fill="white"/>
<path d="M135.07 0.0592251C140.525 0.0591807 145.73 0.10545 150.933 0.0286019C152.347 0.00772976 172.094 0.0915752 172.094 0.0915752V10.7333C170.947 10.7333 157.022 10.7333 156.231 10.7333C143.641 10.7327 131.051 10.7287 118.461 10.7325C104.406 10.7367 94.3813 17.7137 89.8622 30.6276C89.7553 30.9328 89.6487 31.2381 89.5149 31.6208C85.9233 31.6208 82.338 31.6208 78.1377 31.6208C79.2012 28.5313 79.8998 25.5297 81.2248 22.8148C88.3361 8.2447 100.292 0.610755 116.941 0.0915752C122.894 -0.0940695 128.859 0.060148 135.07 0.0592251Z" fill="white"/>
<path d="M135.055 99.727C130.075 99.6765 125.095 99.5916 120.115 99.5823C108.68 99.561 89.5713 99.6269 78.1377 99.727V88.6709C100.128 88.6724 124.941 88.6656 147.322 88.6419C147.819 88.5954 147.925 88.5667 148.031 88.5381C148.774 88.6248 149.518 88.7116 150.522 88.8287C147.53 95.0045 142.752 98.5324 135.633 99.5446C135.236 99.6567 135.145 99.6919 135.055 99.727Z" fill="white"/>
<path d="M100.977 31.6204C98.8492 31.6078 99.9974 30.5865 100.288 30.0843C103.538 24.473 108.564 21.1376 115.239 21.044C131.11 20.8216 146.987 20.955 162.861 20.9853H172.103V26.2692V31.3772C148.735 31.3772 124.187 31.6193 100.977 31.6204Z" fill="white"/>
<path d="M112.643 65.1703C119.089 58.6365 125.403 52.2114 131.741 45.8104C132.225 45.3213 132.863 44.6786 133.451 44.655C137.672 44.485 141.856 44.7564 146.302 46.462C141.138 51.6209 136.185 56.5466 131.257 61.4983C126.831 65.9451 122.448 70.435 118.005 74.8635C117.481 75.3863 116.671 76.008 116.038 75.9613C112.03 75.6656 108.035 75.1945 104.036 74.7813C103.96 74.4828 103.884 74.1844 103.808 73.8859C106.711 71.019 109.613 68.1522 112.643 65.1703Z" fill="white"/>
<path d="M103.692 45.8088C104.488 45.3145 105.157 44.6492 105.838 44.6347C110.296 44.5398 114.757 44.5859 119.085 44.5859C110.879 52.9143 102.694 61.2208 94.2821 69.7586C91.982 67.7178 89.4316 65.4549 86.6816 63.015C92.5015 57.1305 98.0358 51.5346 103.692 45.8088Z" fill="white"/>
<path d="M131.127 74.8475C139.164 66.7144 147.067 58.7077 155.287 50.3799C157.9 52.6349 160.522 54.8974 163.335 57.3252C158.187 62.5413 153.119 67.3348 148.475 72.519C145.983 75.301 143.409 76.4804 139.764 76.0635L131.393 75.9536C131.253 75.9506 131.126 75.315 131.127 74.8475Z" fill="white"/>
<path d="M165.809 68.0536C166.614 67.15 167.297 66.3661 168.485 65.0024C169.785 68.953 170.887 72.3 172.091 75.9588C167.195 75.9588 162.8 75.9588 157.884 75.9588C160.71 73.1392 163.198 70.6562 165.809 68.0536Z" fill="white"/>
<path d="M91.1292 45.3041C88.0081 48.5315 84.9996 51.6289 81.5469 55.1838C80.3415 51.5042 79.2897 48.2934 78.1328 44.7617C82.8055 44.7617 87.0306 44.7617 91.2556 44.7617C91.2511 44.8992 91.2465 45.0367 91.1292 45.3041Z" fill="white"/>
<path d="M148.133 88.6809C148.095 88.804 147.996 88.832 147.748 88.8186C147.757 88.7133 147.915 88.6495 148.133 88.6809Z" fill="white"/>
<path d="M136.192 99.7124C136.221 99.6017 136.305 99.5675 136.523 99.5605C136.521 99.6548 136.385 99.7218 136.192 99.7124Z" fill="white"/>
</svg>
