<svg width="353" height="303" viewBox="0 0 353 303" fill="none" xmlns="http://www.w3.org/2000/svg">
<path fill-rule="evenodd" clip-rule="evenodd" d="M62.5022 0.488298H19.5319C9.01442 0.488298 0.488298 9.01441 0.488298 19.5319V169.288C0.488298 180.742 10.5277 189.605 21.894 188.184L64.8643 182.813C74.3942 181.622 81.5458 173.52 81.5458 163.916V19.5319C81.5458 9.01442 73.0197 0.488298 62.5022 0.488298ZM19.5319 0C8.74474 0 0 8.74473 0 19.5319V169.288C0 181.036 10.2968 190.126 21.9545 188.669L64.9248 183.297C74.6992 182.076 82.0341 173.767 82.0341 163.916V19.5319C82.0341 8.74474 73.2894 0 62.5022 0H19.5319Z" fill="url(#paint0_linear_2939_3717)"/>
<path fill-rule="evenodd" clip-rule="evenodd" d="M156.536 55.666H113.566C103.049 55.666 94.5225 64.1921 94.5225 74.7097V224.465C94.5225 235.92 104.562 244.783 115.928 243.362L158.898 237.991C168.428 236.799 175.58 228.698 175.58 219.094V74.7097C175.58 64.1922 167.054 55.666 156.536 55.666ZM113.566 55.1777C102.779 55.1777 94.0342 63.9225 94.0342 74.7097V224.465C94.0342 236.214 104.331 245.304 115.989 243.846L158.959 238.475C168.733 237.253 176.068 228.944 176.068 219.094V74.7097C176.068 63.9225 167.324 55.1777 156.536 55.1777H113.566Z" fill="url(#paint1_linear_2939_3717)"/>
<path fill-rule="evenodd" clip-rule="evenodd" d="M250.571 111.488H207.6C197.083 111.488 188.557 120.014 188.557 130.532V280.288C188.557 291.742 198.596 300.605 209.962 299.184L252.933 293.813C262.463 292.622 269.614 284.52 269.614 274.916V130.532C269.614 120.014 261.088 111.488 250.571 111.488ZM207.6 111C196.813 111 188.068 119.745 188.068 130.532V280.288C188.068 292.036 198.365 301.126 210.023 299.669L252.993 294.297C262.768 293.076 270.102 284.767 270.102 274.916V130.532C270.102 119.745 261.358 111 250.571 111H207.6Z" fill="url(#paint2_linear_2939_3717)"/>
<path fill-rule="evenodd" clip-rule="evenodd" d="M144.502 0.488298H101.532C91.0144 0.488298 82.4883 9.01441 82.4883 19.5319V169.288C82.4883 180.742 92.5277 189.605 103.894 188.184L146.864 182.813C156.394 181.622 163.546 173.52 163.546 163.916V19.5319C163.546 9.01442 155.02 0.488298 144.502 0.488298ZM101.532 0C90.7447 0 82 8.74473 82 19.5319V169.288C82 181.036 92.2968 190.126 103.955 188.669L146.925 183.297C156.699 182.076 164.034 173.767 164.034 163.916V19.5319C164.034 8.74474 155.289 0 144.502 0H101.532Z" fill="url(#paint3_linear_2939_3717)"/>
<path fill-rule="evenodd" clip-rule="evenodd" d="M238.536 55.666H195.566C185.049 55.666 176.522 64.1921 176.522 74.7097V224.465C176.522 235.92 186.562 244.783 197.928 243.362L240.898 237.991C250.428 236.799 257.58 228.698 257.58 219.094V74.7097C257.58 64.1922 249.054 55.666 238.536 55.666ZM195.566 55.1777C184.779 55.1777 176.034 63.9225 176.034 74.7097V224.465C176.034 236.214 186.331 245.304 197.989 243.846L240.959 238.475C250.733 237.253 258.068 228.944 258.068 219.094V74.7097C258.068 63.9225 249.324 55.1777 238.536 55.1777H195.566Z" fill="url(#paint4_linear_2939_3717)"/>
<path fill-rule="evenodd" clip-rule="evenodd" d="M332.571 111.488H289.6C279.083 111.488 270.557 120.014 270.557 130.532V280.288C270.557 291.742 280.596 300.605 291.962 299.184L334.933 293.813C344.463 292.622 351.614 284.52 351.614 274.916V130.532C351.614 120.014 343.088 111.488 332.571 111.488ZM289.6 111C278.813 111 270.068 119.745 270.068 130.532V280.288C270.068 292.036 280.365 301.126 292.023 299.669L334.993 294.297C344.768 293.076 352.102 284.767 352.102 274.916V130.532C352.102 119.745 343.358 111 332.571 111H289.6Z" fill="url(#paint5_linear_2939_3717)"/>
<path fill-rule="evenodd" clip-rule="evenodd" d="M112.502 22.4883H69.5319C59.0144 22.4883 50.4883 31.0144 50.4883 41.5319V191.288C50.4883 202.742 60.5277 211.605 71.894 210.184L114.864 204.813C124.394 203.622 131.546 195.52 131.546 185.916V41.5319C131.546 31.0144 123.02 22.4883 112.502 22.4883ZM69.5319 22C58.7447 22 50 30.7447 50 41.5319V191.288C50 203.036 60.2968 212.126 71.9545 210.669L114.925 205.297C124.699 204.076 132.034 195.767 132.034 185.916V41.5319C132.034 30.7447 123.289 22 112.502 22H69.5319Z" fill="url(#paint6_linear_2939_3717)"/>
<path fill-rule="evenodd" clip-rule="evenodd" d="M206.536 77.666H163.566C153.049 77.666 144.522 86.1921 144.522 96.7097V246.465C144.522 257.92 154.562 266.783 165.928 265.362L208.898 259.991C218.428 258.799 225.58 250.698 225.58 241.094V96.7097C225.58 86.1922 217.054 77.666 206.536 77.666ZM163.566 77.1777C152.779 77.1777 144.034 85.9225 144.034 96.7097V246.465C144.034 258.214 154.331 267.304 165.989 265.846L208.959 260.475C218.733 259.253 226.068 250.944 226.068 241.094V96.7097C226.068 85.9225 217.324 77.1777 206.536 77.1777H163.566Z" fill="url(#paint7_linear_2939_3717)"/>
<path d="M19.5319 0.244149H62.5022C73.1545 0.244149 81.79 8.87958 81.79 19.5319V163.916C81.79 173.643 74.5467 181.849 64.8945 183.055L21.9243 188.426C10.4123 189.865 0.244149 180.889 0.244149 169.288V19.5319C0.244149 8.87957 8.87958 0.244149 19.5319 0.244149Z" fill="url(#paint8_linear_2939_3717)" fill-opacity="0.3" stroke="url(#paint9_linear_2939_3717)" stroke-width="0.488298"/>
<path d="M101.532 0.244149H144.502C155.155 0.244149 163.79 8.87958 163.79 19.5319V163.916C163.79 173.643 156.547 181.849 146.895 183.055L103.924 188.426C92.4123 189.865 82.2441 180.889 82.2441 169.288V19.5319C82.2441 8.87957 90.8796 0.244149 101.532 0.244149Z" fill="url(#paint10_linear_2939_3717)" fill-opacity="0.3" stroke="url(#paint11_linear_2939_3717)" stroke-width="0.488298"/>
<g filter="url(#filter0_b_2939_3717)">
<path d="M188 130.532C188 119.745 196.745 111 207.532 111H250.502C261.289 111 270.034 119.745 270.034 130.532V274.916C270.034 284.767 262.699 293.076 252.925 294.297L209.955 299.669C198.297 301.126 188 292.036 188 280.287V130.532Z" fill="url(#paint12_linear_2939_3717)" fill-opacity="0.44"/>
<path d="M207.532 111.244H250.502C261.155 111.244 269.79 119.88 269.79 130.532V274.916C269.79 284.643 262.547 292.849 252.895 294.055L209.924 299.426C198.412 300.865 188.244 291.889 188.244 280.288V130.532C188.244 119.88 196.88 111.244 207.532 111.244Z" stroke="url(#paint13_linear_2939_3717)" stroke-width="0.488298"/>
</g>
<g filter="url(#filter1_b_2939_3717)">
<path d="M270 130.532C270 119.745 278.745 111 289.532 111H332.502C343.289 111 352.034 119.745 352.034 130.532V274.916C352.034 284.767 344.699 293.076 334.925 294.297L291.955 299.669C280.297 301.126 270 292.036 270 280.287V130.532Z" fill="url(#paint14_linear_2939_3717)" fill-opacity="0.44"/>
<path d="M289.532 111.244H332.502C343.155 111.244 351.79 119.88 351.79 130.532V274.916C351.79 284.643 344.547 292.849 334.895 294.055L291.924 299.426C280.412 300.865 270.244 291.889 270.244 280.288V130.532C270.244 119.88 278.88 111.244 289.532 111.244Z" stroke="url(#paint15_linear_2939_3717)" stroke-width="0.488298"/>
</g>
<defs>
<filter id="filter0_b_2939_3717" x="177" y="100" width="104.034" height="210.822" filterUnits="userSpaceOnUse" color-interpolation-filters="sRGB">
<feFlood flood-opacity="0" result="BackgroundImageFix"/>
<feGaussianBlur in="BackgroundImageFix" stdDeviation="5.5"/>
<feComposite in2="SourceAlpha" operator="in" result="effect1_backgroundBlur_2939_3717"/>
<feBlend mode="normal" in="SourceGraphic" in2="effect1_backgroundBlur_2939_3717" result="shape"/>
</filter>
<filter id="filter1_b_2939_3717" x="259" y="100" width="104.034" height="210.822" filterUnits="userSpaceOnUse" color-interpolation-filters="sRGB">
<feFlood flood-opacity="0" result="BackgroundImageFix"/>
<feGaussianBlur in="BackgroundImageFix" stdDeviation="5.5"/>
<feComposite in2="SourceAlpha" operator="in" result="effect1_backgroundBlur_2939_3717"/>
<feBlend mode="normal" in="SourceGraphic" in2="effect1_backgroundBlur_2939_3717" result="shape"/>
</filter>
<linearGradient id="paint0_linear_2939_3717" x1="3.76913" y1="2.60699e-06" x2="134.53" y2="52.3614" gradientUnits="userSpaceOnUse">
<stop stop-color="#00FFFF"/>
<stop offset="1" stop-color="#0047FF"/>
</linearGradient>
<linearGradient id="paint1_linear_2939_3717" x1="97.8033" y1="55.1777" x2="228.564" y2="107.539" gradientUnits="userSpaceOnUse">
<stop stop-color="#00FFFF"/>
<stop offset="1" stop-color="#0047FF"/>
</linearGradient>
<linearGradient id="paint2_linear_2939_3717" x1="191.837" y1="111" x2="322.598" y2="163.361" gradientUnits="userSpaceOnUse">
<stop stop-color="#00FFFF"/>
<stop offset="1" stop-color="#0047FF"/>
</linearGradient>
<linearGradient id="paint3_linear_2939_3717" x1="85.7691" y1="2.60699e-06" x2="216.53" y2="52.3614" gradientUnits="userSpaceOnUse">
<stop stop-color="#00FFFF"/>
<stop offset="1" stop-color="#0047FF"/>
</linearGradient>
<linearGradient id="paint4_linear_2939_3717" x1="179.803" y1="55.1777" x2="310.564" y2="107.539" gradientUnits="userSpaceOnUse">
<stop stop-color="#00FFFF"/>
<stop offset="1" stop-color="#0047FF"/>
</linearGradient>
<linearGradient id="paint5_linear_2939_3717" x1="273.837" y1="111" x2="404.598" y2="163.361" gradientUnits="userSpaceOnUse">
<stop stop-color="#00FFFF"/>
<stop offset="1" stop-color="#0047FF"/>
</linearGradient>
<linearGradient id="paint6_linear_2939_3717" x1="53.7691" y1="22" x2="184.53" y2="74.3614" gradientUnits="userSpaceOnUse">
<stop stop-color="#00FFFF"/>
<stop offset="1" stop-color="#0047FF"/>
</linearGradient>
<linearGradient id="paint7_linear_2939_3717" x1="147.803" y1="77.1777" x2="278.564" y2="129.539" gradientUnits="userSpaceOnUse">
<stop stop-color="#00FFFF"/>
<stop offset="1" stop-color="#0047FF"/>
</linearGradient>
<linearGradient id="paint8_linear_2939_3717" x1="3.76913" y1="2.64276e-06" x2="135.018" y2="51.8453" gradientUnits="userSpaceOnUse">
<stop stop-color="#00FFFF"/>
<stop offset="1" stop-color="#0047FF"/>
</linearGradient>
<linearGradient id="paint9_linear_2939_3717" x1="3.76913" y1="2.64276e-06" x2="135.018" y2="51.8453" gradientUnits="userSpaceOnUse">
<stop stop-color="#00FFFF"/>
<stop offset="1" stop-color="#0047FF"/>
</linearGradient>
<linearGradient id="paint10_linear_2939_3717" x1="85.7691" y1="2.64276e-06" x2="217.018" y2="51.8453" gradientUnits="userSpaceOnUse">
<stop stop-color="#00FFFF"/>
<stop offset="1" stop-color="#0047FF"/>
</linearGradient>
<linearGradient id="paint11_linear_2939_3717" x1="85.7691" y1="2.64276e-06" x2="217.018" y2="51.8453" gradientUnits="userSpaceOnUse">
<stop stop-color="#00FFFF"/>
<stop offset="1" stop-color="#0047FF"/>
</linearGradient>
<linearGradient id="paint12_linear_2939_3717" x1="191.769" y1="111" x2="323.018" y2="162.845" gradientUnits="userSpaceOnUse">
<stop stop-color="#00FFFF"/>
<stop offset="1" stop-color="#0047FF"/>
</linearGradient>
<linearGradient id="paint13_linear_2939_3717" x1="191.769" y1="111" x2="323.018" y2="162.845" gradientUnits="userSpaceOnUse">
<stop stop-color="#00FFFF"/>
<stop offset="1" stop-color="#0047FF"/>
</linearGradient>
<linearGradient id="paint14_linear_2939_3717" x1="273.769" y1="111" x2="405.018" y2="162.845" gradientUnits="userSpaceOnUse">
<stop stop-color="#00FFFF"/>
<stop offset="1" stop-color="#0047FF"/>
</linearGradient>
<linearGradient id="paint15_linear_2939_3717" x1="273.769" y1="111" x2="405.018" y2="162.845" gradientUnits="userSpaceOnUse">
<stop stop-color="#00FFFF"/>
<stop offset="1" stop-color="#0047FF"/>
</linearGradient>
</defs>
</svg>
