<svg width="396" height="500" viewBox="0 0 396 500" fill="none" xmlns="http://www.w3.org/2000/svg" opacity="0.07">
<path d="M340.254 387.058C342.741 380.715 344.943 375.09 347.345 368.951C362.221 368.951 377.289 368.951 395.19 368.951C390.004 383.216 386.704 397.378 379.992 409.892C349.07 467.546 299.227 498.316 230.772 499.561C179.838 500.488 128.869 499.611 77.9177 499.903C71.0658 499.942 0.0280762 499.561 0.0280762 499.561V455.611C4.84492 455.611 53.7559 455.674 57.0878 455.674C114.056 455.678 171.026 455.944 227.992 455.611C280.115 455.306 317.3 432.177 340.254 387.058Z" fill="white"/>
<path d="M239.461 0.245451C262.407 0.245267 284.297 0.437024 306.178 0.118537C312.126 0.032035 395.179 0.379522 395.179 0.379522V44.4828C390.356 44.4828 331.788 44.4829 328.463 44.4828C275.512 44.4804 222.561 44.4637 169.609 44.4794C110.495 44.4969 68.3345 73.4121 49.3278 126.932C48.8786 128.197 48.43 129.462 47.8672 131.048C32.7619 131.048 17.6827 131.048 0.0170898 131.048C4.49002 118.244 7.42806 105.805 13.001 94.5532C42.9097 34.1691 93.1915 2.5312 163.216 0.379522C188.253 -0.389859 213.339 0.249276 239.461 0.245451Z" fill="white"/>
<path d="M239.41 413.307C218.465 413.097 197.521 412.746 176.576 412.707C128.485 412.619 48.1155 412.892 0.0280762 413.307V367.486C92.5149 367.492 196.875 367.464 291.004 367.366C293.092 367.173 293.538 367.054 293.984 366.936C297.112 367.295 300.24 367.655 304.464 368.14C291.878 393.735 271.784 408.356 241.841 412.551C240.172 413.016 239.791 413.161 239.41 413.307Z" fill="white"/>
<path d="M96.0749 131.048C87.127 130.996 91.9559 126.763 93.179 124.682C106.846 101.427 127.984 87.6035 156.06 87.2157C222.81 86.294 289.583 86.8466 356.347 86.9726H395.216V108.871V130.04C296.938 130.04 193.694 131.044 96.0749 131.048Z" fill="white"/>
<path d="M145.137 270.088C172.248 243.009 198.805 216.381 225.46 189.853C227.497 187.826 230.179 185.163 232.652 185.065C250.405 184.36 268.002 185.485 286.701 192.554C264.981 213.934 244.15 234.348 223.424 254.87C204.812 273.299 186.376 291.907 167.69 310.26C165.484 312.427 162.079 315.003 159.418 314.81C142.562 313.584 125.759 311.632 108.939 309.919C108.619 308.682 108.299 307.445 107.979 306.209C120.188 294.327 132.397 282.446 145.137 270.088Z" fill="white"/>
<path d="M107.5 189.849C110.849 187.8 113.66 185.043 116.528 184.983C135.277 184.59 154.039 184.78 172.24 184.78C137.727 219.296 103.305 253.722 67.9243 289.106C58.2504 280.648 47.524 271.27 35.9583 261.157C60.4353 236.77 83.7115 213.579 107.5 189.849Z" fill="white"/>
<path d="M222.903 310.196C256.706 276.489 289.944 243.306 324.516 208.793C335.505 218.138 346.531 227.515 358.362 237.577C336.712 259.194 315.399 279.06 295.866 300.546C285.385 312.075 274.557 316.963 259.227 315.235L224.02 314.78C223.431 314.767 222.898 312.133 222.903 310.196Z" fill="white"/>
<path d="M368.76 282.039C372.147 278.294 375.019 275.046 380.016 269.394C385.483 285.767 390.115 299.638 395.179 314.801C374.59 314.801 356.106 314.801 335.428 314.801C347.313 303.116 357.78 292.826 368.76 282.039Z" fill="white"/>
<path d="M54.6603 187.758C41.5333 201.134 28.8803 213.97 14.3588 228.703C9.28935 213.454 4.86571 200.147 0 185.51C19.6522 185.51 37.4221 185.51 55.1919 185.51C55.1727 186.08 55.1535 186.65 54.6603 187.758Z" fill="white"/>
<path d="M294.411 367.528C294.249 368.039 293.833 368.154 292.791 368.099C292.829 367.663 293.492 367.398 294.411 367.528Z" fill="white"/>
<path d="M244.175 413.244C244.293 412.786 244.649 412.644 245.567 412.615C245.557 413.006 244.984 413.283 244.175 413.244Z" fill="white"/>
</svg>