<svg width="1446" height="342" viewBox="0 0 1446 342" fill="none" xmlns="http://www.w3.org/2000/svg"  >
<path d="M147.235 11.6213C134.147 3.98445 118.442 0 99.7924 0C82.4514 0 66.7464 2.98833 53.0045 8.30093C39.2626 13.6135 28.1381 21.5824 20.2856 31.8756C12.4331 42.1688 8.5068 54.4541 8.5068 68.3997C8.5068 88.654 16.0323 105.588 31.7373 118.869C47.1151 132.151 68.3823 140.12 95.5389 142.776C115.17 144.768 129.566 150.413 139.382 159.378C148.871 168.343 153.778 178.968 153.778 191.586C153.778 204.867 147.889 215.492 136.765 223.129C125.313 230.766 111.571 234.418 95.2117 234.418C81.1426 234.418 68.3823 231.43 56.9307 225.453C45.1519 219.477 37.6266 212.172 33.7003 203.539C32.0644 200.219 29.7741 197.23 26.5022 195.238C23.2304 193.246 19.9585 191.918 16.6866 191.918C15.0506 191.918 14.0691 192.25 13.4147 192.25C9.16125 193.246 5.88935 194.906 3.59903 197.562C0.981529 200.219 0 202.875 0 206.195C0 208.187 0.327122 210.18 1.63587 212.836C8.17964 228.774 19.9585 241.391 37.2995 251.02C54.6405 260.981 73.9445 265.63 95.2117 265.63C111.244 265.63 126.295 262.974 140.364 257.329C154.433 251.684 165.884 243.051 174.391 231.762C182.898 220.473 187.152 206.527 187.152 190.589C187.152 168.675 179.954 151.077 165.557 137.796C151.161 124.514 130.875 116.213 104.7 113.557C81.1427 111.233 64.7832 106.252 55.6219 98.2831C46.4607 90.6462 41.8801 81.0171 41.8801 69.3958C41.8801 57.1104 46.7879 47.8134 57.258 41.1726C67.4008 34.5319 80.8154 31.2115 97.502 31.2115C110.917 31.2115 122.041 33.8678 130.875 39.1804C139.709 44.493 147.235 51.7978 153.124 61.759C154.433 64.7473 156.723 67.0715 159.668 68.7317C162.285 70.3919 165.557 71.056 168.829 71.056C172.101 71.056 174.718 70.3919 177.336 68.7317C181.589 65.7434 183.88 61.7589 183.88 56.7784C183.88 53.126 182.571 49.1415 179.954 44.825C170.792 30.5474 159.995 19.5902 147.235 11.6213Z" fill="white"/>
<path d="M392.149 179.3C394.766 176.644 396.402 172.991 396.402 168.675C396.402 151.409 393.131 135.803 386.587 122.19C380.043 108.908 370.555 98.2831 358.449 90.6462C346.016 83.3414 331.619 79.3569 314.933 79.3569C297.919 79.3569 282.541 83.3414 269.126 91.3103C255.712 99.2792 245.242 110.236 237.716 124.182C230.191 138.128 226.592 154.065 226.592 171.663C226.592 189.593 230.518 205.199 238.371 219.145C246.223 233.09 257.347 244.047 271.744 252.016C285.813 259.985 301.845 263.638 319.84 263.638C329.656 263.638 340.126 261.977 351.25 257.993C362.375 254.341 371.536 249.36 379.061 243.383C382.333 240.727 384.296 237.407 384.296 233.422C384.296 229.438 382.333 225.453 378.407 222.133C375.79 220.141 372.518 218.813 368.591 218.813C364.338 218.813 360.739 220.141 357.794 222.465C353.214 226.117 347.324 229.106 340.126 231.43C332.928 234.086 326.384 235.082 319.84 235.082C303.154 235.082 289.085 230.434 277.633 220.805C266.182 211.508 259.311 198.89 257.02 183.285H381.352C385.605 183.285 389.204 181.956 392.149 179.3ZM275.997 121.194C285.813 112.561 298.9 107.912 314.933 107.912C329.329 107.912 340.78 112.561 349.942 121.194C358.776 130.159 364.338 142.112 366.301 156.722H257.347C259.965 142.112 266.182 130.159 275.997 121.194Z" fill="white"/>
<path d="M596.613 118.206C589.742 105.588 580.253 95.6273 568.475 88.9865C557.023 83.0098 544.59 79.6895 530.848 79.3574C530.521 79.3574 529.866 79.0254 529.866 79.0254H454.613C450.033 79.0254 446.434 80.6856 443.489 83.6739C440.217 86.9943 438.908 90.6467 438.908 94.9632C438.908 95.2952 438.908 95.9593 438.908 96.2913C438.908 96.9554 438.908 97.2874 438.908 97.6195V245.708C438.908 250.689 440.217 254.673 443.489 257.994C446.761 261.314 450.687 262.642 455.595 262.642C460.503 262.642 464.429 261.314 467.701 257.994C470.645 254.673 472.281 250.689 472.281 245.708V152.074C472.281 144.105 474.244 137.132 478.498 130.491C482.751 124.182 488.641 119.202 496.166 115.217C503.691 111.565 512.198 109.573 521.359 109.573C537.065 109.573 549.498 114.221 558.986 123.518C568.475 132.815 573.382 146.429 573.382 164.027V245.708C573.382 250.689 574.691 254.673 577.963 257.994C581.235 261.314 585.161 262.642 590.069 262.642C594.65 262.642 598.576 261.314 601.848 257.994C605.12 254.673 606.756 250.689 606.756 245.708V164.027C606.756 146.097 603.156 130.823 596.613 118.206Z" fill="white"/>
<path d="M762.734 86.3297C751.61 81.6812 738.85 79.3569 724.781 79.3569C713.002 79.3569 702.205 81.3492 692.062 85.0016C681.592 88.986 673.412 94.6306 667.195 101.935C660.652 109.572 657.707 118.869 657.707 129.495C657.707 156.39 678.647 173.988 720.527 181.956C736.559 185.277 748.011 188.929 754.882 193.578C761.425 198.226 765.024 203.871 765.024 210.512C765.024 217.816 761.426 223.461 754.555 227.446C747.684 231.762 738.195 233.754 725.762 233.754C716.274 233.754 707.439 232.094 699.26 228.774C690.753 225.453 684.536 221.137 680.61 216.488C676.684 212.504 672.43 210.512 668.177 210.512C664.578 210.512 660.652 212.172 656.725 215.16C652.145 218.481 650.182 222.797 650.182 228.11C650.182 232.094 651.49 235.746 654.435 238.403C661.633 246.04 672.103 252.016 685.191 256.665C698.278 261.313 712.02 263.638 727.071 263.638C741.794 263.638 754.554 261.313 765.024 256.665C775.495 252.016 783.674 245.376 789.236 237.075C794.471 228.774 797.416 219.477 797.416 209.183C797.416 195.57 792.181 184.281 782.366 175.648C772.55 167.015 755.536 160.374 731.979 155.393C720.2 153.069 711.366 150.745 705.476 148.089C699.26 145.432 695.006 142.776 693.043 139.788C690.753 136.799 689.771 133.147 689.771 128.498C689.771 122.522 692.716 117.541 699.26 114.221C705.804 110.9 713.983 108.908 724.126 108.908C732.633 108.908 740.158 110.236 746.375 112.229C752.264 114.221 758.154 117.873 763.716 122.854C768.297 127.17 773.204 129.163 779.094 129.163C782.693 129.163 785.637 128.498 788.255 126.506C791.854 123.518 793.817 120.198 793.817 116.213C793.817 112.893 792.181 109.24 789.564 105.588C783.02 97.619 773.859 90.9782 762.734 86.3297Z" fill="white"/>
<path d="M837.622 7.63607C834.35 10.9564 833.041 14.9409 833.041 19.5894V200.882C833.041 212.835 835.004 223.46 839.258 232.757C843.184 242.054 849.073 249.359 856.599 254.672C864.124 259.984 872.631 262.309 882.119 262.309H882.774C889.317 262.309 894.553 260.98 898.806 257.66C902.732 254.672 905.022 250.687 905.022 245.707C905.022 241.058 903.387 237.074 900.769 233.753C898.152 230.765 894.553 229.105 890.299 229.105H882.119C877.212 229.105 873.285 226.449 870.34 221.136C867.069 215.823 865.76 209.183 865.76 200.882V19.5894C865.76 14.9409 864.124 10.9564 861.179 7.63607C857.907 4.64773 853.981 2.98755 849.401 2.98755C844.493 2.98755 840.566 4.64773 837.622 7.63607Z" fill="white"/>
<path d="M1084.92 95.2962C1084.92 89.3195 1081.32 85.003 1074.78 82.3467C1072.16 81.3506 1069.55 80.6865 1066.93 80.6865C1061.04 80.6865 1056.79 84.0069 1054.17 90.3156L1001.49 210.845L941.616 89.9836C938.344 84.0069 933.763 80.6865 927.874 80.6865C925.256 80.6865 923.293 81.3506 921.33 82.0147C918.385 83.3428 916.095 85.335 914.459 87.6593C912.496 90.3156 911.842 92.9719 911.842 95.6282C911.842 98.2845 912.169 100.609 913.478 102.601L987.095 244.381L954.376 319.089C953.067 321.746 952.413 324.402 952.413 327.058C952.413 333.035 955.685 337.351 962.229 340.008C965.173 341.336 967.791 342 970.081 342C975.971 342 980.224 338.68 982.841 331.707L1082.96 103.265C1084.27 100.277 1084.92 97.6204 1084.92 95.2962Z" fill="white"/>
<path d="M1248.6 246.705C1248.6 236.412 1243.37 231.099 1233.22 231.099H1150.12L1242.38 106.917C1244.35 104.261 1245.33 100.941 1245.33 96.2923C1245.33 85.9991 1240.09 80.6865 1229.95 80.6865H1118.38C1107.91 80.6865 1103 85.9991 1103 96.2923C1103 106.917 1107.91 111.898 1118.38 111.898H1201.81L1109.22 236.08C1107.26 238.736 1106.27 242.389 1106.27 246.705C1106.27 257.33 1111.18 262.311 1121.65 262.311H1233.22C1243.37 262.311 1248.6 257.33 1248.6 246.705Z" fill="white"/>
<path d="M1440.81 179.3C1443.43 176.644 1445.07 172.991 1445.07 168.675C1445.07 151.409 1441.79 135.803 1435.25 122.19C1428.71 108.908 1419.22 98.2831 1407.11 90.6462C1394.68 83.3414 1380.28 79.3569 1363.6 79.3569C1346.58 79.3569 1331.2 83.3414 1317.79 91.3103C1304.38 99.2792 1293.91 110.236 1286.38 124.182C1278.85 138.128 1275.26 154.065 1275.26 171.663C1275.26 189.593 1279.18 205.199 1287.03 219.145C1294.89 233.09 1306.01 244.047 1320.41 252.016C1334.48 259.985 1350.51 263.638 1368.5 263.638C1378.32 263.638 1388.79 261.977 1399.91 257.993C1411.04 254.341 1420.2 249.36 1427.73 243.383C1431 240.727 1432.96 237.407 1432.96 233.422C1432.96 229.438 1431 225.453 1427.07 222.133C1424.45 220.141 1421.18 218.813 1417.26 218.813C1413 218.813 1409.4 220.141 1406.46 222.465C1401.88 226.117 1395.99 229.106 1388.79 231.43C1381.59 234.086 1375.05 235.082 1368.5 235.082C1351.82 235.082 1337.75 230.434 1326.3 220.805C1314.85 211.508 1307.97 198.89 1305.68 183.285H1430.02C1434.27 183.285 1437.87 181.956 1440.81 179.3ZM1324.66 121.194C1334.48 112.561 1347.56 107.912 1363.6 107.912C1377.99 107.912 1389.44 112.561 1398.61 121.194C1407.44 130.159 1413 142.112 1414.97 156.722H1306.01C1308.63 142.112 1314.85 130.159 1324.66 121.194Z" fill="white"/>


</svg>


