<svg width="46" height="45" viewBox="0 0 46 45" fill="none" xmlns="http://www.w3.org/2000/svg">
<path fill-rule="evenodd" clip-rule="evenodd" d="M5.1875 8.50484C2.25529 12.2562 0.507812 16.9785 0.507812 22.1089C0.507812 27.2393 2.25529 31.9615 5.1875 35.7129V8.50484ZM7.37463 6.09375H38.6211C34.6548 2.31779 29.2876 0 23.379 0H22.6167C16.7081 0 11.3409 2.31779 7.37463 6.09375ZM40.8211 8.52131V35.6964C43.7455 31.9477 45.4879 27.2317 45.4879 22.1089C45.4879 16.986 43.7455 12.27 40.8211 8.52131ZM38.6321 38.1135H7.36361C11.3309 41.8956 16.7026 44.2177 22.6167 44.2177H23.379C29.2931 44.2177 34.6648 41.8956 38.6321 38.1135Z" fill="url(#paint0_linear_2947_3970)"/>
<path d="M14.5078 31.7233L14.8623 34.8713L17.1596 32.6875L21.0876 21.9103C20.1233 21.6692 19.2725 21.1871 18.5776 20.5206L14.5078 31.7233ZM26.4337 20.5206C25.7388 21.1871 24.8738 21.6692 23.9237 21.9103L27.8517 32.6875L30.149 34.8713L30.5177 31.7233L26.4337 20.5206ZM26.7598 16.4366C26.7598 14.5931 25.5686 13.0333 23.9237 12.4377V9.34631H21.0876V12.4377C19.4426 13.0333 18.2515 14.5931 18.2515 16.4366C18.2515 18.7906 20.1517 20.6908 22.5056 20.6908C24.8596 20.6908 26.7598 18.7906 26.7598 16.4366ZM22.5056 17.8547C21.7257 17.8547 21.0876 17.2165 21.0876 16.4366C21.0876 15.6567 21.7257 15.0185 22.5056 15.0185C23.2856 15.0185 23.9237 15.6567 23.9237 16.4366C23.9237 17.2165 23.2856 17.8547 22.5056 17.8547Z" fill="url(#paint1_linear_2947_3970)"/>
<defs>
<linearGradient id="paint0_linear_2947_3970" x1="2.57446" y1="6.10496e-07" x2="46.8481" y2="41.5108" gradientUnits="userSpaceOnUse">
<stop stop-color="#00FFFF"/>
<stop offset="1" stop-color="#0047FF"/>
</linearGradient>
<linearGradient id="paint1_linear_2947_3970" x1="15.2434" y1="9.34631" x2="37.4373" y2="22.1769" gradientUnits="userSpaceOnUse">
<stop stop-color="#00FFFF"/>
<stop offset="1" stop-color="#0047FF"/>
</linearGradient>
</defs>
</svg>
