<svg width="50" height="50" viewBox="0 0 50 50" fill="none" xmlns="http://www.w3.org/2000/svg">
<path fill-rule="evenodd" clip-rule="evenodd" d="M27.9436 50H22.0564C21.7635 50 21.529 49.795 21.4705 49.5316L20.4162 44.7278C18.2485 44.2298 16.1687 43.3805 14.265 42.1791L10.1345 44.8447C9.90066 44.9912 9.60769 44.9617 9.40273 44.7567L5.2433 40.5683C5.03834 40.3923 5.0088 40.0704 5.15529 39.8359L7.7914 35.706C6.61953 33.8017 5.74122 31.7515 5.2433 29.5549L0.468388 28.5295C0.176022 28.471 0 28.2076 0 27.9436V22.0564C0 21.7635 0.176022 21.529 0.468388 21.4705L5.2433 20.4162C5.74122 18.2485 6.61953 16.1687 7.7914 14.265L5.15529 10.1345C5.0088 9.90066 5.03834 9.60769 5.2433 9.40273L9.40273 5.2433C9.60769 5.03834 9.90066 5.0088 10.1345 5.15529L14.265 7.7914C16.1687 6.61953 18.2485 5.74122 20.4162 5.2433L21.4705 0.468388C21.529 0.204958 21.7635 0 22.0564 0H27.9436C28.2365 0 28.471 0.204958 28.5295 0.468388L29.5549 5.2433C31.7515 5.77016 33.8313 6.61953 35.735 7.82094L39.8655 5.15529C40.0993 5.0088 40.3923 5.03834 40.5973 5.2433L44.7567 9.40273C44.9617 9.60769 44.9912 9.90066 44.8447 10.1345L42.1791 14.265C43.3805 16.1687 44.2298 18.2485 44.7567 20.4162L49.5316 21.4705C49.795 21.529 50 21.7635 50 22.0564V27.9436C50 28.2365 49.795 28.471 49.5316 28.5295L44.7567 29.5838C44.2298 31.7515 43.3805 33.8313 42.1791 35.735L44.8447 39.8655C44.9912 40.0993 44.9617 40.3923 44.7567 40.5973L40.5973 44.7567C40.3923 44.9617 40.0993 44.9912 39.8655 44.8447L35.735 42.2086C33.8313 43.3805 31.7515 44.2588 29.5549 44.7567L28.5295 49.5316C28.471 49.795 28.2076 50 27.9436 50ZM24.9855 39.3084C17.1061 39.3084 10.6916 32.8939 10.6916 24.9855C10.6916 17.1061 17.1061 10.6916 24.9855 10.6916C32.8939 10.6916 39.3084 17.1061 39.3084 24.9855C39.3084 32.8939 32.8939 39.3084 24.9855 39.3084Z" fill="url(#paint0_linear_2959_2589)"/>
<path fill-rule="evenodd" clip-rule="evenodd" d="M16.7835 24.9855L19.9182 28.1196C20.65 28.852 20.1231 30.1113 19.0682 30.1113C18.7758 30.1113 18.4829 29.9943 18.2484 29.7598L14.3234 25.8349C13.8544 25.3659 13.8544 24.6341 14.3234 24.1651L18.2484 20.2106C18.5413 19.9183 18.9512 19.8007 19.3612 19.9183C20.2401 20.1522 20.5626 21.2071 19.9182 21.8804L16.7835 24.9855ZM33.1868 24.9855L30.0816 21.8804C29.7893 21.5875 29.6428 21.1775 29.7597 20.7676C29.9942 19.9183 31.0781 19.5662 31.7225 20.2106L35.6764 24.1651C36.1454 24.6341 36.1454 25.3659 35.6764 25.8349L31.7225 29.7598C31.517 29.9943 31.224 30.1113 30.9021 30.1113C29.8767 30.1113 29.3498 28.852 30.0816 28.1196L33.1868 24.9855Z" fill="url(#paint1_linear_2959_2589)"/>
<path fill-rule="evenodd" clip-rule="evenodd" d="M22.3496 30.7262C21.4707 30.7262 20.8848 29.7599 21.3242 28.969L26.5965 19.8303C26.831 19.4789 27.1824 19.2444 27.6219 19.2444C28.5008 19.2739 29.1156 20.2107 28.6473 21.0016L23.3744 30.1409C23.1695 30.4923 22.7596 30.7262 22.3496 30.7262Z" fill="url(#paint2_linear_2959_2589)"/>
<defs>
<linearGradient id="paint0_linear_2959_2589" x1="2.2973" y1="6.90329e-07" x2="52.2982" y2="46.0861" gradientUnits="userSpaceOnUse">
<stop stop-color="#00FFFF"/>
<stop offset="1" stop-color="#0047FF"/>
</linearGradient>
<linearGradient id="paint1_linear_2959_2589" x1="14.9851" y1="19.8732" x2="23.2383" y2="36.2615" gradientUnits="userSpaceOnUse">
<stop stop-color="#00FFFF"/>
<stop offset="1" stop-color="#0047FF"/>
</linearGradient>
<linearGradient id="paint2_linear_2959_2589" x1="21.5255" y1="19.2444" x2="31.7902" y2="25.5346" gradientUnits="userSpaceOnUse">
<stop stop-color="#00FFFF"/>
<stop offset="1" stop-color="#0047FF"/>
</linearGradient>
</defs>
</svg>
