<svg width="46" height="46" viewBox="0 0 46 46" fill="none" xmlns="http://www.w3.org/2000/svg">
<mask id="path-1-inside-1_2947_3971" fill="white">
<path d="M3.96767 35.4966C1.13098 31.2282 -0.188351 26.13 0.221685 21.0214C0.631721 15.9128 2.74731 11.0903 6.2285 7.32902L22.998 22.8495L3.96767 35.4966Z"/>
</mask>
<path d="M3.96767 35.4966C1.13098 31.2282 -0.188351 26.13 0.221685 21.0214C0.631721 15.9128 2.74731 11.0903 6.2285 7.32902L22.998 22.8495L3.96767 35.4966Z" fill="url(#paint0_linear_2947_3971)" stroke="url(#paint1_linear_2947_3971)" stroke-width="1.21864" mask="url(#path-1-inside-1_2947_3971)"/>
<mask id="path-2-inside-2_2947_3971" fill="white">
<path d="M10.3511 3.81923C14.6195 0.982543 19.7176 -0.336789 24.8262 0.0732472C29.9349 0.483283 34.7573 2.59888 38.5186 6.08006L22.9981 22.8495L10.3511 3.81923Z"/>
</mask>
<path d="M10.3511 3.81923C14.6195 0.982543 19.7176 -0.336789 24.8262 0.0732472C29.9349 0.483283 34.7573 2.59888 38.5186 6.08006L22.9981 22.8495L10.3511 3.81923Z" fill="url(#paint2_linear_2947_3971)" stroke="url(#paint3_linear_2947_3971)" stroke-width="1.21864" mask="url(#path-2-inside-2_2947_3971)"/>
<mask id="path-3-inside-3_2947_3971" fill="white">
<path d="M42.0284 10.2046C44.8651 14.473 46.1844 19.5711 45.7744 24.6798C45.3644 29.7884 43.2488 34.6108 39.7676 38.3721L22.9981 22.8517L42.0284 10.2046Z"/>
</mask>
<path d="M42.0284 10.2046C44.8651 14.473 46.1844 19.5711 45.7744 24.6798C45.3644 29.7884 43.2488 34.6108 39.7676 38.3721L22.9981 22.8517L42.0284 10.2046Z" fill="url(#paint4_linear_2947_3971)" stroke="url(#paint5_linear_2947_3971)" stroke-width="1.21864" mask="url(#path-3-inside-3_2947_3971)"/>
<mask id="path-4-inside-4_2947_3971" fill="white">
<path d="M35.645 41.8819C31.3766 44.7186 26.2785 46.038 21.1699 45.6279C16.0612 45.2179 11.2388 43.1023 7.47746 39.6211L22.998 22.8517L35.645 41.8819Z"/>
</mask>
<path d="M35.645 41.8819C31.3766 44.7186 26.2785 46.038 21.1699 45.6279C16.0612 45.2179 11.2388 43.1023 7.47746 39.6211L22.998 22.8517L35.645 41.8819Z" fill="url(#paint6_linear_2947_3971)" stroke="url(#paint7_linear_2947_3971)" stroke-width="1.21864" mask="url(#path-4-inside-4_2947_3971)"/>
<circle cx="22.6978" cy="23.1646" r="15.6311" fill="#171414" stroke="url(#paint8_linear_2947_3971)" stroke-width="0.422462"/>
<path d="M25.0059 20.7467C25.8508 21.5665 26.5235 21.6468 26.7841 21.6417C26.8199 21.6406 26.8551 21.6324 26.8877 21.6176C26.9203 21.6028 26.9496 21.5817 26.974 21.5555L29.7227 18.7106L31.0691 17.3168C31.2338 17.1462 31.3457 16.9318 31.3913 16.6991L31.9358 13.9221C31.9449 13.876 31.9423 13.8284 31.9283 13.7836C31.9143 13.7388 31.8893 13.6982 31.8556 13.6655C31.8219 13.6328 31.7806 13.6091 31.7353 13.5965C31.6901 13.5839 31.6425 13.5828 31.5967 13.5933L28.8398 14.222C28.6074 14.2753 28.3951 14.3949 28.2296 14.5663L27.1325 15.7022L24.1362 18.8037C24.1101 18.8306 24.0895 18.8624 24.0759 18.8974C24.0622 18.9323 24.0556 18.9696 24.0566 19.0071C24.0612 19.2747 24.1716 19.938 25.0059 20.7467ZM28.7525 14.7801L29.8246 14.5319C29.8449 14.527 29.8662 14.529 29.8852 14.5373C29.9043 14.5457 29.9201 14.5601 29.9302 14.5783C30.0549 14.7958 30.2105 14.994 30.3923 15.1667C30.5707 15.3426 30.7733 15.492 30.9941 15.6104C31.0125 15.6202 31.0272 15.6357 31.036 15.6545C31.0449 15.6733 31.0474 15.6945 31.0433 15.7149L30.8282 16.7938L30.5017 17.1306C30.5017 17.1306 29.8783 17.1279 29.1628 16.434C28.4481 15.7408 28.4255 15.1174 28.4255 15.1174L28.7525 14.7801Z" fill="url(#paint9_linear_2947_3971)"/>
<path d="M12.9562 32.8849L15.8684 29.9727M19.5356 28.6777L18.6639 31.2929C18.65 31.3348 18.6261 31.3728 18.5944 31.4035C18.5627 31.4343 18.5241 31.4569 18.4817 31.4695L13.1379 33.0579C13.0897 33.0722 13.0386 33.073 12.99 33.0602C12.9414 33.0475 12.8973 33.0217 12.8624 32.9856C12.8275 32.9495 12.8031 32.9045 12.792 32.8555C12.7809 32.8065 12.7834 32.7555 12.7993 32.7078L14.5345 27.5031C14.5469 27.4657 14.5672 27.4314 14.5941 27.4026C14.6209 27.3738 14.6537 27.3511 14.6901 27.336L17.1552 26.3211C17.2053 26.3004 17.2604 26.295 17.3136 26.3056C17.3667 26.3162 17.4156 26.3423 17.454 26.3806L19.4692 28.3968C19.5053 28.4328 19.5306 28.4782 19.5423 28.5278C19.554 28.5774 19.5517 28.6294 19.5356 28.6777Z" stroke="url(#paint10_linear_2947_3971)" stroke-width="0.6864" stroke-linecap="round" stroke-linejoin="round"/>
<path d="M19.5943 28.5071L20.8883 27.2125C21.0599 27.0409 21.1563 26.8081 21.1563 26.5655C21.1563 26.3228 21.0599 26.09 20.8883 25.9184L19.9182 24.9474C19.8332 24.8624 19.7323 24.7949 19.6213 24.7489C19.5102 24.7029 19.3912 24.6792 19.271 24.6792C19.1507 24.6792 19.0317 24.7029 18.9206 24.7489C18.8096 24.7949 18.7087 24.8624 18.6237 24.9474L17.3296 26.2419M16.8436 28.9921C16.7799 28.9284 16.7042 28.8778 16.6209 28.8434C16.5376 28.8089 16.4483 28.7911 16.3582 28.7912C16.268 28.7912 16.1788 28.809 16.0955 28.8435C16.0122 28.878 15.9365 28.9286 15.8728 28.9923C15.8091 29.0561 15.7585 29.1318 15.7241 29.2151C15.6896 29.2984 15.6719 29.3876 15.6719 29.4778C15.6719 29.5679 15.6897 29.6572 15.7242 29.7405C15.7587 29.8237 15.8093 29.8994 15.873 29.9631C16.0018 30.0918 16.1764 30.1641 16.3585 30.1641C16.5406 30.164 16.7151 30.0917 16.8438 29.9629C16.9726 29.8341 17.0448 29.6595 17.0448 29.4775C17.0447 29.2954 16.9724 29.1208 16.8436 28.9921Z" stroke="url(#paint11_linear_2947_3971)" stroke-width="0.6864" stroke-linecap="round" stroke-linejoin="round"/>
<rect x="28.2266" y="20.2712" width="11.8976" height="3.93519" transform="rotate(134.677 28.2266 20.2712)" fill="url(#paint12_linear_2947_3971)"/>
<path d="M20.2626 20.5249C21.0824 19.68 21.1627 19.0072 21.1575 18.7466C21.1565 18.7109 21.1483 18.6756 21.1335 18.643C21.1187 18.6105 21.0976 18.5811 21.0713 18.5568L18.2265 15.8081L16.8326 14.4616C16.6621 14.297 16.4476 14.1851 16.215 14.1395L13.4379 13.595C13.3919 13.5859 13.3443 13.5885 13.2995 13.6025C13.2547 13.6165 13.2141 13.6415 13.1814 13.6752C13.1487 13.7089 13.125 13.7502 13.1123 13.7954C13.0997 13.8406 13.0986 13.8883 13.1091 13.9341L13.7379 16.6909C13.7912 16.9233 13.9108 17.1357 14.0822 17.3011L15.2181 18.3983L18.3196 21.3945C18.3465 21.4207 18.3783 21.4412 18.4132 21.4549C18.4482 21.4686 18.4855 21.4751 18.523 21.4742C18.7906 21.4695 19.4539 21.3592 20.2626 20.5249ZM14.296 16.7783L14.0477 15.7061C14.0429 15.6859 14.0448 15.6646 14.0532 15.6455C14.0616 15.6265 14.076 15.6107 14.0942 15.6006C14.3117 15.4759 14.5099 15.3202 14.6825 15.1385C14.8585 14.9601 15.0079 14.7574 15.1263 14.5366C15.1361 14.5183 15.1515 14.5036 15.1704 14.4947C15.1892 14.4859 15.2104 14.4833 15.2307 14.4875L16.3097 14.7026L16.6465 15.029C16.6465 15.029 16.6438 15.6524 15.9499 16.368C15.2567 17.0826 14.6332 17.1053 14.6332 17.1053L14.296 16.7783Z" fill="url(#paint13_linear_2947_3971)"/>
<path d="M32.401 32.5824L29.4888 29.6702M28.1938 26.003L30.809 26.8747C30.8509 26.8886 30.8889 26.9124 30.9196 26.9441C30.9504 26.9759 30.973 27.0145 30.9857 27.0568L32.574 32.4007C32.5883 32.4488 32.5891 32.5 32.5764 32.5486C32.5636 32.5971 32.5378 32.6413 32.5017 32.6762C32.4656 32.7111 32.4206 32.7355 32.3716 32.7466C32.3227 32.7577 32.2716 32.7552 32.2239 32.7393L27.0192 31.0041C26.9818 30.9917 26.9476 30.9713 26.9187 30.9445C26.8899 30.9176 26.8672 30.8849 26.8522 30.8485L25.8372 28.3834C25.8165 28.3333 25.8111 28.2782 25.8217 28.225C25.8323 28.1718 25.8584 28.123 25.8967 28.0846L27.9129 26.0693C27.9489 26.0333 27.9943 26.008 28.0439 25.9962C28.0936 25.9845 28.1455 25.9869 28.1938 26.003Z" stroke="url(#paint14_linear_2947_3971)" stroke-width="0.6864" stroke-linecap="round" stroke-linejoin="round"/>
<path d="M28.0232 25.9404L26.7286 24.6463C26.557 24.4747 26.3243 24.3784 26.0816 24.3784C25.8389 24.3784 25.6062 24.4747 25.4345 24.6463L24.4635 25.6164C24.3785 25.7014 24.311 25.8023 24.265 25.9134C24.219 26.0245 24.1953 26.1435 24.1953 26.2637C24.1953 26.3839 24.219 26.503 24.265 26.614C24.311 26.7251 24.3785 26.826 24.4635 26.911L25.758 28.2051M28.5082 28.691C28.4445 28.7548 28.394 28.8305 28.3595 28.9138C28.325 28.9971 28.3073 29.0863 28.3073 29.1765C28.3073 29.2666 28.3251 29.3559 28.3596 29.4392C28.3941 29.5225 28.4447 29.5981 28.5085 29.6618C28.5722 29.7256 28.6479 29.7761 28.7312 29.8106C28.8145 29.8451 28.9038 29.8628 28.9939 29.8628C29.084 29.8628 29.1733 29.845 29.2566 29.8105C29.3399 29.776 29.4155 29.7254 29.4793 29.6616C29.608 29.5329 29.6802 29.3582 29.6802 29.1762C29.6802 28.9941 29.6078 28.8195 29.479 28.6908C29.3503 28.5621 29.1756 28.4898 28.9936 28.4899C28.8115 28.4899 28.6369 28.5623 28.5082 28.691Z" stroke="url(#paint15_linear_2947_3971)" stroke-width="0.6864" stroke-linecap="round" stroke-linejoin="round"/>
<rect x="19.7891" y="17.3022" width="11.8976" height="3.93519" transform="rotate(44.6767 19.7891 17.3022)" fill="url(#paint16_linear_2947_3971)"/>
<defs>
<linearGradient id="paint0_linear_2947_3971" x1="2.24812" y1="6.30947e-07" x2="47.948" y2="42.1218" gradientUnits="userSpaceOnUse">
<stop stop-color="#00FFFF"/>
<stop offset="1" stop-color="#0047FF"/>
</linearGradient>
<linearGradient id="paint1_linear_2947_3971" x1="2.24812" y1="6.30947e-07" x2="47.948" y2="42.1218" gradientUnits="userSpaceOnUse">
<stop stop-color="#00FFFF"/>
<stop offset="1" stop-color="#0047FF"/>
</linearGradient>
<linearGradient id="paint2_linear_2947_3971" x1="45.8477" y1="2.09968" x2="3.72583" y2="47.7995" gradientUnits="userSpaceOnUse">
<stop stop-color="#00FFFF"/>
<stop offset="1" stop-color="#0047FF"/>
</linearGradient>
<linearGradient id="paint3_linear_2947_3971" x1="45.8477" y1="2.09968" x2="3.72583" y2="47.7995" gradientUnits="userSpaceOnUse">
<stop stop-color="#00FFFF"/>
<stop offset="1" stop-color="#0047FF"/>
</linearGradient>
<linearGradient id="paint4_linear_2947_3971" x1="43.748" y1="45.7012" x2="-1.95189" y2="3.57935" gradientUnits="userSpaceOnUse">
<stop stop-color="#00FFFF"/>
<stop offset="1" stop-color="#0047FF"/>
</linearGradient>
<linearGradient id="paint5_linear_2947_3971" x1="43.748" y1="45.7012" x2="-1.95189" y2="3.57935" gradientUnits="userSpaceOnUse">
<stop stop-color="#00FFFF"/>
<stop offset="1" stop-color="#0047FF"/>
</linearGradient>
<linearGradient id="paint6_linear_2947_3971" x1="0.148438" y1="43.6015" x2="42.2703" y2="-2.09837" gradientUnits="userSpaceOnUse">
<stop stop-color="#00FFFF"/>
<stop offset="1" stop-color="#0047FF"/>
</linearGradient>
<linearGradient id="paint7_linear_2947_3971" x1="0.148438" y1="43.6015" x2="42.2703" y2="-2.09837" gradientUnits="userSpaceOnUse">
<stop stop-color="#00FFFF"/>
<stop offset="1" stop-color="#0047FF"/>
</linearGradient>
<linearGradient id="paint8_linear_2947_3971" x1="8.31125" y1="7.32227" x2="39.9965" y2="36.5267" gradientUnits="userSpaceOnUse">
<stop stop-color="#00FFFF"/>
<stop offset="1" stop-color="#0047FF"/>
</linearGradient>
<linearGradient id="paint9_linear_2947_3971" x1="30.4353" y1="22.1766" x2="23.0343" y2="14.761" gradientUnits="userSpaceOnUse">
<stop stop-color="#00FFFF"/>
<stop offset="1" stop-color="#0047FF"/>
</linearGradient>
<linearGradient id="paint10_linear_2947_3971" x1="13.096" y1="26.3003" x2="19.8647" y2="32.535" gradientUnits="userSpaceOnUse">
<stop stop-color="#00FFFF"/>
<stop offset="1" stop-color="#0047FF"/>
</linearGradient>
<linearGradient id="paint11_linear_2947_3971" x1="15.9239" y1="24.6792" x2="21.4088" y2="29.7343" gradientUnits="userSpaceOnUse">
<stop stop-color="#00FFFF"/>
<stop offset="1" stop-color="#0047FF"/>
</linearGradient>
<linearGradient id="paint12_linear_2947_3971" x1="28.7732" y1="20.2712" x2="31.2837" y2="27.2671" gradientUnits="userSpaceOnUse">
<stop stop-color="#00FFFF"/>
<stop offset="1" stop-color="#0047FF"/>
</linearGradient>
<linearGradient id="paint13_linear_2947_3971" x1="21.6925" y1="15.0955" x2="14.2769" y2="22.4965" gradientUnits="userSpaceOnUse">
<stop stop-color="#00FFFF"/>
<stop offset="1" stop-color="#0047FF"/>
</linearGradient>
<linearGradient id="paint14_linear_2947_3971" x1="25.8164" y1="32.4426" x2="32.0511" y2="25.6739" gradientUnits="userSpaceOnUse">
<stop stop-color="#00FFFF"/>
<stop offset="1" stop-color="#0047FF"/>
</linearGradient>
<linearGradient id="paint15_linear_2947_3971" x1="24.1953" y1="29.6108" x2="29.2504" y2="24.1259" gradientUnits="userSpaceOnUse">
<stop stop-color="#00FFFF"/>
<stop offset="1" stop-color="#0047FF"/>
</linearGradient>
<linearGradient id="paint16_linear_2947_3971" x1="20.3357" y1="17.3022" x2="22.8462" y2="24.2981" gradientUnits="userSpaceOnUse">
<stop stop-color="#00FFFF"/>
<stop offset="1" stop-color="#0047FF"/>
</linearGradient>
</defs>
</svg>
