<svg width="50" height="54" viewBox="0 0 50 54" fill="none" xmlns="http://www.w3.org/2000/svg">
<mask id="mask0_2959_2597" style="mask-type:luminance" maskUnits="userSpaceOnUse" x="18" y="15" width="32" height="39">
<path d="M18.208 15.6069H49.9999V53.7572H18.208V15.6069Z" fill="white"/>
</mask>
<g mask="url(#mask0_2959_2597)">
<mask id="mask1_2959_2597" style="mask-type:luminance" maskUnits="userSpaceOnUse" x="-1" y="-2" width="61" height="63">
<path d="M-0.871582 23.0231L32.2842 -1.04041L59.786 36.852L26.6297 60.9161L-0.871582 23.0231Z" fill="white"/>
</mask>
<g mask="url(#mask1_2959_2597)">
<mask id="mask2_2959_2597" style="mask-type:luminance" maskUnits="userSpaceOnUse" x="-1" y="-2" width="61" height="63">
<path d="M-0.871582 23.0231L32.2842 -1.04041L59.786 36.852L26.6297 60.9161L-0.871582 23.0231Z" fill="white"/>
</mask>
<g mask="url(#mask2_2959_2597)">
<mask id="mask3_2959_2597" style="mask-type:luminance" maskUnits="userSpaceOnUse" x="-1" y="-2" width="61" height="63">
<path d="M-0.871582 23.0231L32.2842 -1.04041L59.786 36.852L26.6297 60.9161L-0.871582 23.0231Z" fill="white"/>
</mask>
<g mask="url(#mask3_2959_2597)">
<path d="M28.9487 31.2759C28.9956 31.2155 29.0198 31.1467 29.0215 31.0705C29.0227 30.9943 29.0012 30.9248 28.9566 30.8627L19.3434 17.6176C19.3124 17.5753 19.2745 17.5403 19.2294 17.5126C19.1848 17.4849 19.1362 17.4669 19.0843 17.459C19.0318 17.4505 18.9804 17.4528 18.9291 17.4646C18.8777 17.477 18.8308 17.4985 18.7879 17.5295L18.4357 17.7853C18.3934 17.8163 18.3567 17.8524 18.3245 17.8942C18.2929 17.936 18.268 17.9817 18.25 18.0308C18.2319 18.0799 18.2212 18.1307 18.2184 18.1832C18.215 18.2357 18.2195 18.2871 18.2319 18.3384L23.4907 40.1299C23.546 40.3597 23.6408 40.5719 23.7746 40.7667C23.909 40.9614 24.0738 41.1257 24.2686 41.2595L30.1827 45.3147L29.5843 45.7488C29.5459 45.7771 29.5104 45.8081 29.4782 45.8431C29.446 45.8781 29.4178 45.9154 29.393 45.956C29.3681 45.9966 29.3472 46.039 29.3309 46.0836C29.3145 46.1282 29.3027 46.1733 29.2953 46.2202C29.288 46.267 29.2852 46.3145 29.2868 46.3619C29.2885 46.4093 29.2947 46.4561 29.306 46.5019C29.3168 46.5482 29.3326 46.5927 29.3523 46.6362C29.3721 46.6791 29.3958 46.7198 29.4235 46.7581L31.1485 49.1352C31.1768 49.1736 31.2078 49.2086 31.2428 49.2408C31.2778 49.2729 31.315 49.3017 31.3557 49.3266C31.3963 49.3508 31.4387 49.3717 31.4833 49.3881C31.5273 49.4045 31.573 49.4163 31.6199 49.4237C31.6667 49.4316 31.7141 49.4338 31.7616 49.4321C31.809 49.4304 31.8558 49.4242 31.9016 49.4129C31.9478 49.4016 31.9924 49.3864 32.0359 49.3666C32.0788 49.3469 32.1194 49.3232 32.1578 49.2949L32.5812 48.9879L35.7672 53.3779C35.7954 53.4163 35.827 53.4518 35.862 53.4846C35.897 53.5168 35.9348 53.5455 35.976 53.5704C36.0167 53.5952 36.0596 53.6161 36.1042 53.633C36.1493 53.6494 36.195 53.6613 36.2425 53.6686C36.2899 53.6765 36.3373 53.6793 36.3853 53.6771C36.4327 53.6754 36.4801 53.6692 36.5264 53.6579C36.5733 53.6466 36.6178 53.6313 36.6613 53.611C36.7048 53.5913 36.746 53.567 36.7849 53.5393L49.5785 44.2541C49.6169 44.2258 49.6524 44.1942 49.6852 44.1592C49.7173 44.1237 49.7461 44.0859 49.771 44.0452C49.7964 44.0046 49.8173 43.9617 49.8336 43.9165C49.85 43.8719 49.8624 43.8256 49.8698 43.7782C49.8771 43.7314 49.8799 43.6839 49.8782 43.636C49.8765 43.588 49.8698 43.5411 49.859 43.4943C49.8477 43.448 49.8325 43.4028 49.8122 43.3594C49.7924 43.3159 49.7682 43.2747 49.7405 43.2363L47.3324 39.9188C47.3064 39.8827 47.2742 39.8533 47.2364 39.8296C47.1986 39.8065 47.1574 39.7912 47.1134 39.7845C47.0693 39.7777 47.0259 39.7794 46.9824 39.7895C46.9389 39.8003 46.8994 39.8183 46.8633 39.8443C46.8272 39.8708 46.7978 39.9024 46.7747 39.9408C46.751 39.9786 46.7357 40.0199 46.7289 40.0633C46.7222 40.1073 46.7239 40.1514 46.734 40.1943C46.7442 40.2377 46.7628 40.2773 46.7888 40.3134L49.1963 43.6309C49.2059 43.6439 49.2093 43.658 49.2065 43.6732C49.2042 43.689 49.1963 43.7014 49.1839 43.7105L36.3904 52.9957C36.3779 53.0048 36.3633 53.0081 36.348 53.0059C36.3322 53.0031 36.3204 52.9957 36.3108 52.9827L33.1248 48.5933L46.9773 38.5398C47.0157 38.5115 47.0513 38.4805 47.0834 38.4455C47.1156 38.4105 47.1444 38.3727 47.1687 38.3326C47.1935 38.292 47.2144 38.2496 47.2308 38.205C47.2471 38.1604 47.259 38.1147 47.2669 38.0679C47.2742 38.021 47.2771 37.9741 47.2754 37.9267C47.2731 37.8793 47.2669 37.8325 47.2556 37.7862C47.2449 37.7399 47.2296 37.6953 47.2099 37.6524C47.1901 37.6095 47.1659 37.5683 47.1382 37.5299L45.4131 35.1534C45.3855 35.115 45.3539 35.0795 45.3189 35.0473C45.2844 35.0151 45.2466 34.9869 45.206 34.962C45.1659 34.9372 45.123 34.9169 45.079 34.9005C45.0344 34.8841 44.9886 34.8717 44.9418 34.8644C44.8949 34.857 44.8475 34.8542 44.8001 34.8559C44.7527 34.8582 44.7064 34.8644 44.6601 34.8757C44.6138 34.8864 44.5692 34.9016 44.5263 34.922C44.4829 34.9417 44.4422 34.9654 44.4038 34.9931L43.8055 35.4277L41.7829 28.5478C41.7163 28.3208 41.6113 28.1137 41.4674 27.9257C41.324 27.7377 41.1518 27.5819 40.9503 27.4577L21.8621 15.704C21.8175 15.6763 21.7696 15.656 21.7188 15.6425C21.6685 15.6289 21.6166 15.6233 21.5641 15.6255C21.5116 15.6272 21.4608 15.6368 21.4111 15.6543C21.3614 15.6712 21.3157 15.6955 21.2734 15.726L20.9211 15.9817C20.8782 16.0128 20.8432 16.0506 20.8156 16.0957C20.7879 16.1403 20.7699 16.1889 20.762 16.2414C20.7535 16.2933 20.7557 16.3447 20.7676 16.396C20.78 16.4474 20.8015 16.4943 20.8325 16.5372L30.4452 29.7817C30.4903 29.8438 30.5496 29.8856 30.623 29.9082C30.6964 29.9302 30.7692 29.9285 30.8409 29.9025C31.0576 29.8263 31.2784 29.7688 31.5047 29.7292C31.7305 29.6903 31.9586 29.67 32.1877 29.6688C32.4169 29.6677 32.645 29.6858 32.8713 29.723C33.0977 29.7603 33.3195 29.8162 33.5363 29.8901C33.7536 29.9646 33.9625 30.0566 34.164 30.1656C34.3655 30.2751 34.5569 30.4004 34.7375 30.5421C34.9176 30.6832 35.0853 30.839 35.2399 31.0084C35.394 31.1777 35.5335 31.3589 35.6577 31.552C36.7522 33.2494 36.3317 35.7472 34.7432 36.9959C34.6455 37.0721 34.545 37.1444 34.4417 37.2115C34.3379 37.2793 34.2312 37.3419 34.1217 37.3995C34.0122 37.4576 33.9004 37.5101 33.7864 37.5581C33.6724 37.6055 33.5561 37.6484 33.4381 37.6857C33.3201 37.723 33.201 37.7546 33.0796 37.7811C32.9588 37.8076 32.8369 37.8285 32.7144 37.8438C32.5919 37.859 32.4683 37.8692 32.3447 37.8731C32.2211 37.8776 32.0974 37.8765 31.9738 37.8697C31.8507 37.8624 31.7277 37.85 31.6052 37.8319C31.4827 37.8138 31.3613 37.7907 31.2411 37.7613C31.1209 37.7325 31.0023 37.6981 30.8849 37.6586C30.7681 37.6185 30.6529 37.5739 30.5394 37.5237C30.4265 37.4734 30.3159 37.4187 30.2081 37.3583C30.0997 37.2979 29.9947 37.2335 29.8925 37.1635C29.7904 37.0941 29.691 37.0196 29.5956 36.9411C29.5002 36.8627 29.4088 36.7797 29.3207 36.6928C29.2327 36.6064 29.1485 36.5155 29.069 36.4207C28.9888 36.3264 28.9137 36.2288 28.8426 36.1271C28.7715 36.0261 28.7054 35.9217 28.6439 35.8144C28.5824 35.7072 28.5259 35.5971 28.474 35.4848C28.4226 35.3724 28.3763 35.2578 28.3351 35.141C28.2939 35.0247 28.2578 34.9062 28.2273 34.7865C28.1968 34.6668 28.172 34.5455 28.1522 34.4235C28.1325 34.301 28.1189 34.1785 28.1105 34.0549C28.102 33.9319 28.0992 33.8082 28.1014 33.6846C28.1042 33.561 28.1127 33.4374 28.1263 33.3143C28.1404 33.1918 28.1596 33.0693 28.1844 32.9485C28.2092 32.8272 28.2397 32.7075 28.2758 32.5889C28.3114 32.4704 28.3521 32.3535 28.3983 32.239C28.4446 32.1244 28.496 32.012 28.5524 31.902C28.6095 31.7919 28.6704 31.6846 28.7365 31.5796C28.8031 31.4752 28.8736 31.3736 28.9487 31.2759ZM44.8695 35.548L46.5946 37.925C46.6025 37.9363 46.6059 37.9487 46.6036 37.9629C46.6014 37.9764 46.5946 37.9877 46.5833 37.9962L31.7638 48.7519C31.752 48.7598 31.7395 48.7632 31.7254 48.7609C31.7119 48.7587 31.7006 48.7519 31.6921 48.7406L29.9676 46.3636C29.9592 46.3523 29.9563 46.3393 29.958 46.3257C29.9603 46.3116 29.9671 46.3009 29.9789 46.2924L44.7984 35.5367C44.8097 35.5282 44.8221 35.5254 44.8362 35.5277C44.8503 35.5299 44.8611 35.5367 44.8695 35.548Z" fill="url(#paint0_linear_2959_2597)"/>
</g>
</g>
</g>
</g>
<mask id="mask4_2959_2597" style="mask-type:luminance" maskUnits="userSpaceOnUse" x="10" y="17" width="9" height="24">
<path d="M10.1155 17.1965H18.0635V40.1734H10.1155V17.1965Z" fill="white"/>
</mask>
<g mask="url(#mask4_2959_2597)">
<mask id="mask5_2959_2597" style="mask-type:luminance" maskUnits="userSpaceOnUse" x="-1" y="-2" width="61" height="63">
<path d="M-0.871826 23.0232L32.2839 -1.04037L59.7858 36.852L26.6294 60.9161L-0.871826 23.0232Z" fill="white"/>
</mask>
<g mask="url(#mask5_2959_2597)">
<mask id="mask6_2959_2597" style="mask-type:luminance" maskUnits="userSpaceOnUse" x="-1" y="-2" width="61" height="63">
<path d="M-0.871826 23.0232L32.2839 -1.04037L59.7858 36.852L26.6294 60.9161L-0.871826 23.0232Z" fill="white"/>
</mask>
<g mask="url(#mask6_2959_2597)">
<mask id="mask7_2959_2597" style="mask-type:luminance" maskUnits="userSpaceOnUse" x="-1" y="-2" width="61" height="63">
<path d="M-0.871826 23.0232L32.2839 -1.04037L59.7858 36.852L26.6294 60.9161L-0.871826 23.0232Z" fill="white"/>
</mask>
<g mask="url(#mask7_2959_2597)">
<path d="M12.6686 17.3935C12.462 17.7283 12.2679 18.0703 12.0861 18.4192C11.9038 18.7686 11.735 19.1237 11.5786 19.485C11.4228 19.8462 11.28 20.2126 11.1502 20.5846C11.0209 20.956 10.9046 21.332 10.8024 21.7119C10.7003 22.0918 10.6116 22.475 10.5371 22.8617C10.4632 23.2478 10.4028 23.6368 10.3559 24.0274C10.3096 24.418 10.278 24.8103 10.26 25.2032C10.2419 25.5961 10.2385 25.9895 10.2492 26.383C10.26 26.7764 10.2848 27.1688 10.3238 27.5605C10.3627 27.9517 10.4163 28.3412 10.4835 28.729C10.5507 29.1168 10.632 29.5012 10.7274 29.8834C10.8228 30.265 10.9317 30.6426 11.0548 31.0163C11.1773 31.3906 11.3133 31.7592 11.4629 32.1233C11.6125 32.4874 11.7745 32.8452 11.95 33.1975C12.1256 33.5497 12.3136 33.8946 12.514 34.2333C12.7144 34.572 12.9272 34.9028 13.1513 35.2257L12.0466 36.0278C12.0082 36.056 11.9726 36.0877 11.9399 36.1227C11.9077 36.1577 11.8789 36.1955 11.8541 36.2361C11.8292 36.2768 11.8084 36.3197 11.792 36.3643C11.7756 36.4089 11.7632 36.4551 11.7559 36.502C11.7485 36.5488 11.7457 36.5963 11.7474 36.6442C11.7491 36.6917 11.7559 36.7391 11.7666 36.7854C11.7779 36.8317 11.7931 36.8762 11.8134 36.9197C11.8332 36.9632 11.8569 37.0038 11.8851 37.0428L13.8783 39.7896C13.9066 39.828 13.9382 39.8635 13.9732 39.8957C14.0082 39.9279 14.046 39.9567 14.0866 39.9815C14.1273 40.0063 14.1702 40.0272 14.2148 40.0436C14.2594 40.06 14.3057 40.0724 14.3525 40.0797C14.3994 40.0871 14.4468 40.0899 14.4948 40.0882C14.5422 40.0865 14.5896 40.0797 14.6359 40.069C14.6822 40.0577 14.7273 40.0419 14.7702 40.0221C14.8137 40.0024 14.8549 39.9781 14.8933 39.9504L17.6412 37.9561C17.6802 37.9279 17.7157 37.8963 17.7479 37.8613C17.7801 37.8263 17.8089 37.7885 17.8337 37.7478C17.8585 37.7072 17.8794 37.6643 17.8958 37.6197C17.9127 37.5745 17.9246 37.5288 17.9319 37.4819C17.9393 37.4345 17.9421 37.3871 17.9404 37.3397C17.9387 37.2917 17.9325 37.2449 17.9212 37.1986C17.9099 37.1523 17.8947 37.1071 17.8749 37.0642C17.8546 37.0208 17.8309 36.9795 17.8027 36.9412L15.8094 34.1944C15.7812 34.156 15.7496 34.1204 15.7146 34.0882C15.6796 34.0555 15.6418 34.0273 15.6012 34.0019C15.5605 33.977 15.5182 33.9567 15.473 33.9398C15.4284 33.9234 15.3827 33.9116 15.3353 33.9042C15.2884 33.8963 15.241 33.8935 15.193 33.8958C15.1456 33.8974 15.0988 33.9037 15.0519 33.9149C15.0056 33.9262 14.961 33.9415 14.9176 33.9618C14.8741 33.9816 14.8335 34.0053 14.7945 34.0335L13.6954 34.8311C13.4809 34.5212 13.2772 34.204 13.0858 33.8799C12.8939 33.5554 12.7138 33.2246 12.5461 32.887C12.3785 32.5495 12.2227 32.2062 12.0799 31.8574C11.9371 31.5085 11.8067 31.1552 11.6898 30.7967C11.5724 30.4388 11.468 30.077 11.3771 29.7112C11.2862 29.3454 11.2083 28.9768 11.144 28.6054C11.0796 28.2339 11.0288 27.8603 10.9915 27.4854C10.9543 27.11 10.9306 26.7341 10.9204 26.3576C10.9103 25.9805 10.9142 25.604 10.9311 25.2275C10.9486 24.851 10.9797 24.475 11.0237 24.1008C11.0683 23.7265 11.1265 23.3545 11.1982 22.9842C11.2693 22.6139 11.3539 22.247 11.4522 21.8829C11.5504 21.5188 11.6616 21.1587 11.7858 20.8025C11.91 20.4468 12.0466 20.0957 12.1962 19.7497C12.3458 19.4031 12.5078 19.0633 12.6822 18.7285C12.8561 18.3944 13.0423 18.067 13.2405 17.7458C13.2636 17.7079 13.2789 17.6667 13.2862 17.6233C13.2935 17.5792 13.2918 17.5352 13.2817 17.4923C13.2709 17.4488 13.2529 17.4088 13.2269 17.3732C13.201 17.3371 13.1688 17.3072 13.131 17.284C13.0931 17.2603 13.0519 17.2451 13.0079 17.2383C12.9644 17.231 12.9204 17.2326 12.8769 17.2428C12.834 17.253 12.794 17.2716 12.7578 17.2976C12.7217 17.3235 12.6923 17.3557 12.6686 17.3935ZM15.1891 34.5771C15.2015 34.5681 15.215 34.5647 15.2297 34.5669C15.245 34.5698 15.2568 34.5771 15.2658 34.5889L17.2591 37.3357C17.2681 37.3482 17.2715 37.3617 17.2687 37.3764C17.2664 37.3916 17.2591 37.4035 17.2472 37.4125L14.4987 39.4068C14.4869 39.4159 14.4727 39.4187 14.4581 39.4164C14.4428 39.4142 14.431 39.4068 14.4225 39.3944L12.4287 36.6482C12.4197 36.6358 12.4169 36.6222 12.4191 36.607C12.4214 36.5923 12.4287 36.5805 12.4412 36.5714L15.1891 34.5771Z" fill="url(#paint1_linear_2959_2597)"/>
</g>
</g>
</g>
</g>
<mask id="mask8_2959_2597" style="mask-type:luminance" maskUnits="userSpaceOnUse" x="0" y="0" width="44" height="27">
<path d="M0 0H43.7862V26.1561H0V0Z" fill="white"/>
</mask>
<g mask="url(#mask8_2959_2597)">
<mask id="mask9_2959_2597" style="mask-type:luminance" maskUnits="userSpaceOnUse" x="-1" y="-2" width="61" height="63">
<path d="M-0.871582 23.0231L32.2842 -1.04041L59.786 36.852L26.6297 60.9161L-0.871582 23.0231Z" fill="white"/>
</mask>
<g mask="url(#mask9_2959_2597)">
<mask id="mask10_2959_2597" style="mask-type:luminance" maskUnits="userSpaceOnUse" x="-1" y="-2" width="61" height="63">
<path d="M-0.871582 23.0231L32.2842 -1.04041L59.786 36.852L26.6297 60.9161L-0.871582 23.0231Z" fill="white"/>
</mask>
<g mask="url(#mask10_2959_2597)">
<mask id="mask11_2959_2597" style="mask-type:luminance" maskUnits="userSpaceOnUse" x="-1" y="-2" width="61" height="63">
<path d="M-0.871582 23.0231L32.2842 -1.04041L59.786 36.852L26.6297 60.9161L-0.871582 23.0231Z" fill="white"/>
</mask>
<g mask="url(#mask11_2959_2597)">
<path d="M30.3286 0.492177C30.2112 0.577415 30.1028 0.672813 30.0024 0.777244C29.9025 0.882238 29.8121 0.995136 29.732 1.11594C29.6524 1.23674 29.5835 1.36375 29.5265 1.49697C29.4689 1.63018 29.4243 1.76735 29.3916 1.90848C29.3589 2.0496 29.3391 2.19298 29.3323 2.33749C29.325 2.48256 29.3306 2.6265 29.3498 2.77045C29.3685 2.91383 29.4001 3.05495 29.4441 3.19269C29.4881 3.33099 29.544 3.46364 29.6117 3.59178L18.9254 11.3478L18.1256 10.2465C18.0979 10.2076 18.0663 10.1726 18.0313 10.1398C17.9963 10.1077 17.9585 10.0789 17.9178 10.054C17.8772 10.0292 17.8343 10.0083 17.7897 9.99194C17.7445 9.97557 17.6988 9.96371 17.6519 9.95581C17.6045 9.94847 17.5571 9.94565 17.5097 9.94734C17.4617 9.9496 17.4149 9.95581 17.3686 9.9671C17.3223 9.97783 17.2771 9.99363 17.2337 10.0134C17.1908 10.0331 17.1496 10.0574 17.1106 10.0851L14.3627 12.08C14.3243 12.1076 14.2887 12.1392 14.2566 12.1742C14.2238 12.2092 14.1956 12.2476 14.1702 12.2883C14.1453 12.3289 14.125 12.3713 14.1081 12.4164C14.0917 12.461 14.0799 12.5067 14.072 12.5541C14.0646 12.601 14.0618 12.6484 14.0635 12.6958C14.0658 12.7438 14.072 12.7907 14.0833 12.837C14.094 12.8838 14.1098 12.9284 14.1295 12.9719C14.1493 13.0153 14.1736 13.056 14.2012 13.0949L15.0005 14.1962L4.31423 21.9523C4.24424 21.8795 4.16972 21.8112 4.0907 21.748C4.01223 21.6842 3.92982 21.626 3.84345 21.5724C3.75765 21.5193 3.66846 21.4719 3.57645 21.4296C3.48444 21.3878 3.39017 21.3517 3.29308 21.3212C3.19655 21.2913 3.09889 21.267 2.99898 21.249C2.89963 21.2309 2.79915 21.2196 2.69811 21.214C2.59706 21.2089 2.49602 21.2094 2.39498 21.2168C2.29393 21.2241 2.19402 21.2377 2.09467 21.2574C1.99532 21.2772 1.89766 21.3031 1.8017 21.3353C1.70574 21.3675 1.61203 21.4053 1.52058 21.4493C1.42914 21.4928 1.34108 21.5425 1.25584 21.5972C1.17117 21.652 1.08932 21.7118 1.01198 21.7767C0.934082 21.8417 0.861263 21.9117 0.792395 21.9856C0.723528 22.0596 0.659176 22.138 0.599905 22.2204C0.541198 22.3023 0.487572 22.3881 0.439026 22.4767C0.39048 22.5659 0.348143 22.6573 0.310887 22.7516C0.274195 22.8459 0.243149 22.9418 0.218311 23.0401C0.193474 23.1383 0.174846 23.2376 0.162427 23.3381C0.150008 23.4386 0.143799 23.5391 0.143799 23.6407C0.144363 23.7417 0.150573 23.8428 0.163556 23.9427C0.176539 24.0432 0.195732 24.1425 0.220569 24.2407C0.245971 24.3384 0.277582 24.4344 0.314839 24.5286C0.352095 24.6229 0.394996 24.7138 0.443542 24.803C0.492652 24.8916 0.546279 24.9768 0.606114 25.0587C0.665385 25.1405 0.729737 25.2184 0.799169 25.2924C0.868036 25.3658 0.94142 25.4352 1.01932 25.5001C1.09722 25.5645 1.17907 25.6237 1.26431 25.6785C1.34954 25.7327 1.43817 25.7818 1.52962 25.8253C1.62106 25.8682 1.71477 25.906 1.81073 25.9376C1.90726 25.9686 2.00491 25.9946 2.10426 26.0138C2.20361 26.033 2.30353 26.046 2.40457 26.0527C2.50561 26.0595 2.60666 26.0601 2.7077 26.0539C2.80874 26.0482 2.90922 26.0364 3.00857 26.0177C3.10849 25.9991 3.20614 25.9748 3.30267 25.9438C3.3992 25.9133 3.49347 25.8766 3.58548 25.8343C3.67693 25.7914 3.76612 25.7434 3.85192 25.6898C3.93772 25.6361 4.02014 25.5774 4.0986 25.5137C4.17706 25.4499 4.25101 25.381 4.32101 25.3076C4.391 25.2348 4.45592 25.1575 4.51632 25.0762C4.57672 24.9943 4.63148 24.9097 4.68115 24.8216C4.73083 24.7335 4.77486 24.6421 4.81268 24.5484C4.85106 24.4547 4.88324 24.3593 4.90977 24.2611C4.93573 24.1634 4.95606 24.0646 4.9696 23.9641C4.98372 23.8642 4.99105 23.7632 4.99218 23.6621C4.99331 23.5611 4.98823 23.46 4.97694 23.3596C4.96565 23.2591 4.94759 23.1592 4.92388 23.061C4.90017 22.9627 4.87025 22.8662 4.83413 22.7719C4.798 22.6771 4.75623 22.5851 4.70881 22.4959L15.3951 14.7398L16.195 15.8412C16.2227 15.8801 16.2543 15.9151 16.2893 15.9478C16.3243 15.98 16.3621 16.0088 16.4027 16.0336C16.4434 16.0585 16.4863 16.0794 16.5309 16.0957C16.576 16.1121 16.6218 16.124 16.6686 16.1319C16.716 16.1392 16.7634 16.142 16.8109 16.1403C16.8588 16.1381 16.9057 16.1319 16.952 16.1206C16.9983 16.1099 17.0434 16.094 17.0869 16.0743C17.1298 16.0545 17.171 16.0303 17.21 16.0026L19.9579 14.0077C19.9963 13.98 20.0318 13.9484 20.064 13.9134C20.0967 13.8784 20.125 13.8401 20.1504 13.7994C20.1752 13.7588 20.1961 13.7164 20.2125 13.6713C20.2288 13.6267 20.2407 13.581 20.2486 13.5335C20.2559 13.4867 20.2587 13.4393 20.2571 13.3918C20.2548 13.3439 20.2486 13.297 20.2373 13.2507C20.2266 13.2039 20.2108 13.1593 20.191 13.1158C20.1713 13.0723 20.147 13.0317 20.1193 12.9928L19.4295 12.0433C26.1238 8.61572 34.3935 10.5028 38.9484 16.5033L37.8493 17.3009C37.8109 17.3286 37.7754 17.3602 37.7426 17.3952C37.7104 17.4302 37.6817 17.4686 37.6568 17.5092C37.632 17.5499 37.6111 17.5922 37.5947 17.6374C37.5784 17.682 37.5659 17.7277 37.5586 17.7751C37.5513 17.8219 37.5484 17.8694 37.5501 17.9168C37.5518 17.9648 37.5586 18.0116 37.5693 18.0579C37.5806 18.1048 37.5959 18.1493 37.6162 18.1928C37.6359 18.2363 37.6596 18.2769 37.6879 18.3159L39.6811 21.0621C39.7093 21.1011 39.7409 21.1361 39.7759 21.1688C39.8109 21.201 39.8487 21.2298 39.8894 21.2546C39.93 21.2794 39.9729 21.3003 40.0175 21.3167C40.0621 21.3331 40.1084 21.3449 40.1552 21.3528C40.2027 21.3602 40.2501 21.363 40.2975 21.3613C40.3449 21.359 40.3923 21.3528 40.4386 21.3415C40.4849 21.3308 40.5301 21.315 40.573 21.2952C40.6164 21.2755 40.6576 21.2512 40.696 21.2235L43.4439 19.2287C43.4829 19.201 43.5185 19.1694 43.5506 19.1344C43.5828 19.0994 43.6116 19.061 43.6364 19.0204C43.6613 18.9797 43.6822 18.9374 43.6985 18.8922C43.7155 18.8476 43.7273 18.8019 43.7347 18.7545C43.7426 18.7076 43.7454 18.6602 43.7431 18.6128C43.7414 18.5648 43.7352 18.518 43.7239 18.4717C43.7126 18.4248 43.6974 18.3802 43.6776 18.3368C43.6573 18.2933 43.6336 18.2527 43.606 18.2137L41.6122 15.4675C41.584 15.4285 41.5529 15.3935 41.5179 15.3608C41.4824 15.3286 41.4445 15.2998 41.4039 15.275C41.3632 15.2501 41.3209 15.2293 41.2758 15.2129C41.2312 15.1965 41.1854 15.1847 41.138 15.1768C41.0912 15.1694 41.0437 15.1666 40.9958 15.1683C40.9483 15.1705 40.9015 15.1768 40.8552 15.188C40.8084 15.1988 40.7638 15.2146 40.7203 15.2343C40.6768 15.2547 40.6362 15.2784 40.5972 15.3066L39.492 16.1082C39.234 15.7678 38.9625 15.4376 38.678 15.1181C38.3935 14.7986 38.0971 14.4909 37.7883 14.1951C37.4796 13.8988 37.1601 13.6154 36.8287 13.3444C36.4979 13.0735 36.157 12.8161 35.8053 12.5722C35.4542 12.3284 35.094 12.0986 34.7243 11.883C34.3551 11.6679 33.9775 11.4669 33.5925 11.2812C33.207 11.0955 32.8152 10.925 32.4161 10.7704C32.0176 10.6157 31.6134 10.4763 31.2036 10.3532C30.7938 10.2307 30.38 10.124 29.9617 10.0331C29.544 9.94283 29.1229 9.86944 28.699 9.81187C28.275 9.75485 27.8494 9.71421 27.4221 9.6905C26.9953 9.66679 26.5675 9.66002 26.1401 9.67018C25.7123 9.68034 25.2855 9.70687 24.8599 9.7509C24.4343 9.79437 24.0109 9.85477 23.5904 9.93154C23.1692 10.0089 22.7521 10.102 22.3389 10.2121C21.9251 10.3216 21.5164 10.448 21.1128 10.5897L30.0063 4.13538C30.1136 4.24658 30.2304 4.3465 30.3563 4.43569C30.4827 4.52431 30.616 4.60052 30.7571 4.66374C30.8976 4.72696 31.0433 4.77664 31.1934 4.81164C31.3442 4.8472 31.496 4.86809 31.6507 4.87486C31.8048 4.88107 31.9583 4.8726 32.1113 4.85002C32.2637 4.82688 32.4133 4.78962 32.5589 4.73825C32.7046 4.68688 32.844 4.62197 32.9772 4.54407C33.1104 4.46561 33.2352 4.37585 33.3509 4.27368C33.4672 4.17207 33.5722 4.0603 33.667 3.93781C33.7619 3.81588 33.8443 3.68605 33.9137 3.54831C33.9837 3.41058 34.0401 3.26776 34.0825 3.1193C34.1248 2.97028 34.153 2.81956 34.1666 2.66545C34.1801 2.51191 34.179 2.35781 34.1632 2.20427C34.1474 2.05073 34.1175 1.90001 34.0729 1.75211C34.0283 1.60478 33.9702 1.46253 33.8985 1.32536C33.8262 1.18876 33.7421 1.06005 33.6461 0.939816C33.5496 0.819016 33.4424 0.708941 33.3249 0.608462C33.2075 0.508547 33.0816 0.420487 32.9473 0.344282C32.813 0.268076 32.6724 0.205418 32.5262 0.156307C32.38 0.107197 32.2304 0.0721986 32.0774 0.0513126C31.9245 0.030991 31.7703 0.0247816 31.6162 0.033249C31.4621 0.0422808 31.3103 0.0654247 31.1607 0.103245C31.0105 0.141066 30.866 0.192434 30.726 0.257915C30.5861 0.323396 30.4534 0.401295 30.3286 0.492177ZM3.59733 25.0519C3.59508 25.0536 3.59225 25.0553 3.58943 25.057C3.66959 24.5388 3.48895 23.8733 3.05768 23.2794C2.62642 22.685 2.04951 22.3068 1.53187 22.2227C1.5347 22.2204 1.53695 22.2182 1.53978 22.2165C1.63292 22.1487 1.7317 22.0912 1.83613 22.0426C1.94056 21.9946 2.04894 21.9574 2.16071 21.9303C2.27248 21.9038 2.38594 21.888 2.5011 21.8834C2.61625 21.8789 2.73028 21.8857 2.84374 21.9038C2.95777 21.9218 3.06841 21.9506 3.17623 21.9907C3.28404 22.0302 3.38734 22.0804 3.48557 22.1403C3.58322 22.2007 3.67467 22.2695 3.75878 22.348C3.84345 22.4259 3.91966 22.5117 3.98683 22.6049C4.05457 22.698 4.11215 22.7968 4.16069 22.9012C4.20867 23.0056 4.24593 23.1135 4.27303 23.2258C4.29956 23.3376 4.31536 23.451 4.31988 23.5656C4.32383 23.6808 4.31706 23.7954 4.29899 23.9088C4.28093 24.0223 4.25214 24.1329 4.21206 24.2413C4.17255 24.3491 4.12231 24.4519 4.06191 24.5501C4.00207 24.6483 3.93264 24.7392 3.85474 24.8239C3.77628 24.9085 3.69047 24.9842 3.59733 25.0519ZM19.5757 13.3879C19.5842 13.3998 19.5876 13.4133 19.5853 13.4285C19.5831 13.4432 19.5757 13.4556 19.5633 13.4641L16.8154 15.459C16.803 15.4675 16.7894 15.4709 16.7742 15.4686C16.7595 15.4663 16.7476 15.459 16.7386 15.4466L14.7454 12.6998C14.7364 12.6879 14.733 12.6744 14.7352 12.6591C14.7375 12.6445 14.7448 12.632 14.7573 12.6236L17.5052 10.6287C17.5176 10.6202 17.5311 10.6168 17.5464 10.6191C17.5611 10.6213 17.5729 10.6287 17.5819 10.6411L19.5757 13.3879ZM40.9918 15.8496C41.0042 15.8412 41.0178 15.8378 41.0325 15.84C41.0477 15.8423 41.0596 15.8496 41.0686 15.862L43.0618 18.6088C43.0708 18.6207 43.0742 18.6342 43.0714 18.6495C43.0691 18.6642 43.0618 18.6766 43.0499 18.685L40.3014 20.6799C40.2896 20.6884 40.276 20.6918 40.2608 20.6895C40.2461 20.6873 40.2337 20.6799 40.2252 20.6675L38.2315 17.9207C38.223 17.9089 38.2196 17.8953 38.2219 17.8801C38.2241 17.8654 38.2315 17.853 38.2439 17.8445L40.9918 15.8496ZM32.7808 3.8712C32.7785 3.87346 32.7757 3.87459 32.7729 3.87684C32.853 3.35808 32.6724 2.69255 32.2411 2.09871C31.8099 1.5043 31.233 1.1261 30.7153 1.04199C30.7181 1.03973 30.7204 1.03747 30.7232 1.03578C30.8164 0.96804 30.9151 0.910463 31.0196 0.861917C31.124 0.813935 31.2324 0.776679 31.3442 0.749584C31.4559 0.723053 31.5694 0.707247 31.6845 0.702731C31.7997 0.698215 31.9137 0.704989 32.0272 0.723053C32.1412 0.741116 32.2519 0.769905 32.3597 0.809984C32.4675 0.849498 32.5708 0.899737 32.6684 0.960138C32.7667 1.01997 32.8581 1.08941 32.9422 1.1673C33.0269 1.2452 33.1031 1.33101 33.1703 1.42415C33.238 1.51729 33.2956 1.61607 33.3441 1.7205C33.3921 1.82493 33.4294 1.93331 33.4565 2.04508C33.483 2.15685 33.4988 2.27031 33.5033 2.38547C33.5073 2.50006 33.5005 2.61465 33.4824 2.72811C33.4644 2.84157 33.4356 2.95221 33.3955 3.0606C33.3554 3.16841 33.3058 3.27115 33.2454 3.36937C33.1855 3.46759 33.1161 3.55847 33.0382 3.64315C32.9597 3.72782 32.8739 3.80346 32.7808 3.8712Z" fill="url(#paint2_linear_2959_2597)"/>
</g>
</g>
</g>
</g>
<defs>
<linearGradient id="paint0_linear_2959_2597" x1="19.672" y1="15.625" x2="56.5457" y2="43.9033" gradientUnits="userSpaceOnUse">
<stop stop-color="#00FFFF"/>
<stop offset="1" stop-color="#0047FF"/>
</linearGradient>
<linearGradient id="paint1_linear_2959_2597" x1="10.5968" y1="17.2338" x2="23.5828" y2="21.2651" gradientUnits="userSpaceOnUse">
<stop stop-color="#00FFFF"/>
<stop offset="1" stop-color="#0047FF"/>
</linearGradient>
<linearGradient id="paint2_linear_2959_2597" x1="2.14705" y1="0.0295719" x2="25.9792" y2="36.8249" gradientUnits="userSpaceOnUse">
<stop stop-color="#00FFFF"/>
<stop offset="1" stop-color="#0047FF"/>
</linearGradient>
</defs>
</svg>
