<svg width="35" height="35" viewBox="0 0 35 35" fill="none" xmlns="http://www.w3.org/2000/svg">
<path d="M31.0745 0.84082C32.076 0.84082 33.0366 1.23869 33.7448 1.9469C34.453 2.65511 34.8509 3.61565 34.8509 4.61722V31.052C34.8509 32.0536 34.453 33.0141 33.7448 33.7223C33.0366 34.4305 32.076 34.8284 31.0745 34.8284H4.63968C3.63812 34.8284 2.67757 34.4305 1.96936 33.7223C1.26115 33.0141 0.863281 32.0536 0.863281 31.052V4.61722C0.863281 3.61565 1.26115 2.65511 1.96936 1.9469C2.67757 1.23869 3.63812 0.84082 4.63968 0.84082H31.0745ZM30.1304 30.1079V20.1004C30.1304 18.4679 29.4818 16.9022 28.3274 15.7478C27.1731 14.5934 25.6074 13.9449 23.9748 13.9449C22.3699 13.9449 20.5005 14.9268 19.5942 16.3996V14.3037H14.3261V30.1079H19.5942V20.7991C19.5942 19.3452 20.7649 18.1556 22.2188 18.1556C22.9199 18.1556 23.5923 18.4341 24.088 18.9299C24.5838 19.4256 24.8623 20.098 24.8623 20.7991V30.1079H30.1304ZM8.18949 11.3392C9.03081 11.3392 9.83766 11.005 10.4326 10.4101C11.0275 9.8152 11.3617 9.00834 11.3617 8.16703C11.3617 6.41101 9.94552 4.97598 8.18949 4.97598C7.34317 4.97598 6.53151 5.31218 5.93308 5.91061C5.33464 6.50905 4.99844 7.32071 4.99844 8.16703C4.99844 9.92306 6.43347 11.3392 8.18949 11.3392ZM10.8141 30.1079V14.3037H5.58378V30.1079H10.8141Z" fill="url(#paint0_linear_1662_601)"/>
<defs>
<linearGradient id="paint0_linear_1662_601" x1="2.42487" y1="0.840821" x2="36.4131" y2="32.1679" gradientUnits="userSpaceOnUse">
<stop stop-color="#00FFFF"/>
<stop offset="1" stop-color="#0047FF"/>
</linearGradient>
</defs>
</svg>
