<svg width="39" height="38" viewBox="0 0 39 38" fill="none" xmlns="http://www.w3.org/2000/svg">
<path d="M19.4566 0.229492C14.4076 0.229492 13.7727 0.252748 11.789 0.341122C9.80522 0.434147 8.45403 0.745781 7.27029 1.20625C6.02804 1.67214 4.90313 2.40488 3.97488 3.35281C3.02695 4.28106 2.29421 5.40597 1.82832 6.64822C1.36785 7.82963 1.05389 9.18315 0.963193 11.1599C0.874819 13.1483 0.851562 13.7809 0.851562 18.8368C0.851562 23.8881 0.874819 24.5206 0.963193 26.5044C1.05622 28.4858 1.36785 29.837 1.82832 31.0208C2.30508 32.244 2.93997 33.2813 3.97488 34.3162C5.00745 35.3511 6.04468 35.9883 7.26796 36.4627C8.45403 36.9232 9.80289 37.2372 11.7843 37.3279C13.7704 37.4162 14.403 37.4395 19.4566 37.4395C24.5101 37.4395 25.1404 37.4162 27.1265 37.3279C29.1056 37.2348 30.4614 36.9232 31.6452 36.4627C32.8866 35.9965 34.0107 35.2638 34.9382 34.3162C35.9731 33.2813 36.608 32.244 37.0848 31.0208C37.5429 29.837 37.8569 28.4858 37.9499 26.5044C38.0383 24.5206 38.0616 23.8881 38.0616 18.8345C38.0616 13.7809 38.0383 13.1483 37.9499 11.1623C37.8569 9.18315 37.5429 7.82963 37.0848 6.64822C36.6189 5.40597 35.8862 4.28106 34.9382 3.35281C34.01 2.40488 32.8851 1.67214 31.6428 1.20625C30.4568 0.745781 29.1033 0.431822 27.1241 0.341122C25.1381 0.252748 24.5078 0.229492 19.4519 0.229492H19.4566ZM17.7891 3.58304H19.4589C24.4264 3.58304 25.0148 3.59932 26.9753 3.69002C28.7893 3.77142 29.7754 4.07608 30.4312 4.32957C31.2986 4.66678 31.9196 5.07144 32.5708 5.72262C33.2219 6.37379 33.6243 6.99241 33.9615 7.86219C34.2173 8.51569 34.5196 9.50176 34.601 11.3157C34.6917 13.2762 34.7103 13.8646 34.7103 18.8298C34.7103 23.795 34.6917 24.3858 34.601 26.3463C34.5196 28.1602 34.215 29.144 33.9615 29.7998C33.6611 30.6066 33.1853 31.3366 32.5684 31.9371C31.9173 32.5882 31.2986 32.9906 30.4289 33.3278C29.7777 33.5836 28.7916 33.8859 26.9753 33.9697C25.0148 34.058 24.4264 34.079 19.4589 34.079C14.4914 34.079 13.9006 34.058 11.9401 33.9697C10.1262 33.8859 9.14242 33.5836 8.48659 33.3278C7.67921 33.0284 6.94842 32.5534 6.34701 31.9371C5.72903 31.3361 5.25241 30.6053 4.95164 29.7975C4.69815 29.144 4.39349 28.1579 4.31209 26.3439C4.22372 24.3834 4.20511 23.795 4.20511 18.8252C4.20511 13.8553 4.22372 13.2716 4.31209 11.3111C4.39581 9.49711 4.69815 8.51104 4.95397 7.85522C5.29118 6.98776 5.69584 6.36682 6.34701 5.71564C6.99819 5.06447 7.61681 4.66213 8.48659 4.32492C9.14242 4.0691 10.1262 3.76677 11.9401 3.68305C13.6565 3.60397 14.3216 3.58072 17.7891 3.57839V3.58304ZM29.3893 6.67147C29.0961 6.67147 28.8058 6.72922 28.5349 6.84142C28.2641 6.95362 28.0179 7.11807 27.8106 7.32539C27.6033 7.5327 27.4389 7.77882 27.3267 8.04969C27.2145 8.32057 27.1567 8.61088 27.1567 8.90407C27.1567 9.19726 27.2145 9.48758 27.3267 9.75845C27.4389 10.0293 27.6033 10.2754 27.8106 10.4828C28.0179 10.6901 28.2641 10.8545 28.5349 10.9667C28.8058 11.0789 29.0961 11.1367 29.3893 11.1367C29.9814 11.1367 30.5493 10.9015 30.968 10.4828C31.3867 10.0641 31.6219 9.4962 31.6219 8.90407C31.6219 8.31195 31.3867 7.74408 30.968 7.32539C30.5493 6.90669 29.9814 6.67147 29.3893 6.67147ZM19.4589 9.28082C18.1916 9.26105 16.933 9.49359 15.7564 9.96489C14.5799 10.4362 13.5088 11.1368 12.6056 12.026C11.7024 12.9153 10.9852 13.9753 10.4956 15.1443C10.006 16.3134 9.75382 17.5682 9.75382 18.8357C9.75382 20.1031 10.006 21.3579 10.4956 22.527C10.9852 23.6961 11.7024 24.7561 12.6056 25.6453C13.5088 26.5345 14.5799 27.2351 15.7564 27.7064C16.933 28.1777 18.1916 28.4103 19.4589 28.3905C21.9672 28.3514 24.3595 27.3275 26.1194 25.5399C27.8794 23.7522 28.8658 21.3442 28.8658 18.8357C28.8658 16.3271 27.8794 13.9191 26.1194 12.1315C24.3595 10.3438 21.9672 9.31996 19.4589 9.28082ZM19.4589 12.6321C20.2734 12.6321 21.0799 12.7925 21.8325 13.1042C22.585 13.4159 23.2687 13.8728 23.8447 14.4487C24.4206 15.0247 24.8775 15.7084 25.1892 16.4609C25.5009 17.2134 25.6613 18.02 25.6613 18.8345C25.6613 19.649 25.5009 20.4555 25.1892 21.2081C24.8775 21.9606 24.4206 22.6443 23.8447 23.2203C23.2687 23.7962 22.585 24.2531 21.8325 24.5648C21.0799 24.8765 20.2734 25.0369 19.4589 25.0369C17.8139 25.0369 16.2363 24.3835 15.0731 23.2203C13.9099 22.0571 13.2564 20.4795 13.2564 18.8345C13.2564 17.1895 13.9099 15.6119 15.0731 14.4487C16.2363 13.2855 17.8139 12.6321 19.4589 12.6321Z" fill="url(#paint0_linear_1662_602)"/>
<defs>
<linearGradient id="paint0_linear_1662_602" x1="2.56121" y1="0.229493" x2="39.7719" y2="34.5268" gradientUnits="userSpaceOnUse">
<stop stop-color="#00FFFF"/>
<stop offset="1" stop-color="#0047FF"/>
</linearGradient>
</defs>
</svg>
