<svg width="42" height="42" viewBox="0 0 42 42" fill="none" xmlns="http://www.w3.org/2000/svg">
<path d="M21.0312 40.37C26.3283 40.37 30.603 31.7782 30.603 21.1435C30.603 10.5503 26.3283 2 21.0312 2C15.7133 2 11.418 10.5503 11.418 21.1435C11.418 31.7782 15.7133 40.37 21.0312 40.37Z" stroke="url(#paint0_linear_2947_3973)" stroke-width="1.57462" stroke-linecap="round" stroke-linejoin="round"/>
<path d="M21.0429 40.37C31.6361 40.37 40.1864 31.7782 40.1864 21.1435C40.1864 10.5503 31.6361 2 21.0429 2M21.0429 40.37C10.4082 40.37 1.81641 31.7782 1.81641 21.1435C1.81641 10.5503 10.4082 2 21.0429 2M21.0429 40.37V21.185V2M37.6478 11.5925H4.36749M37.7546 30.5442H4.26068M1.92011 21.185H40.0827" stroke="url(#paint1_linear_2947_3973)" stroke-width="2.09949" stroke-linecap="round" stroke-linejoin="round"/>
<defs>
<linearGradient id="paint0_linear_2947_3973" x1="12.2994" y1="2" x2="41.5674" y2="15.4882" gradientUnits="userSpaceOnUse">
<stop stop-color="#00FFFF"/>
<stop offset="1" stop-color="#0047FF"/>
</linearGradient>
<linearGradient id="paint1_linear_2947_3973" x1="3.57935" y1="2" x2="41.95" y2="37.3665" gradientUnits="userSpaceOnUse">
<stop stop-color="#00FFFF"/>
<stop offset="1" stop-color="#0047FF"/>
</linearGradient>
</defs>
</svg>
